<svg width="665" height="499" viewBox="0 0 665 499" fill="none" xmlns="http://www.w3.org/2000/svg">
<g clip-path="url(#clip0_18_93)">
<path d="M607.339 444.782L608.337 422.348C618.738 416.789 630.339 413.852 642.132 413.793C625.901 427.064 627.929 452.645 616.925 470.49C613.45 476.03 608.773 480.716 603.241 484.203C597.708 487.689 591.462 489.886 584.965 490.63L571.382 498.947C569.519 488.556 569.929 477.885 572.587 467.669C575.244 457.452 580.085 447.933 586.775 439.768C590.574 435.224 594.93 431.177 599.74 427.722C602.993 436.3 607.339 444.782 607.339 444.782Z" fill="#F2F2F2"/>
<path d="M141.013 245.338C140.115 244.519 139.408 243.513 138.941 242.392C138.475 241.27 138.26 240.059 138.311 238.845C138.363 237.631 138.68 236.444 139.241 235.366C139.801 234.288 140.591 233.345 141.555 232.606L132.25 204.575L147.072 208.557L153.636 234.565C154.772 236.267 155.243 238.326 154.962 240.352C154.68 242.378 153.666 244.231 152.11 245.559C150.554 246.887 148.564 247.598 146.519 247.557C144.474 247.517 142.515 246.727 141.013 245.338V245.338Z" fill="#A0616A"/>
<path d="M167.876 93.0426C170.336 94.4525 184.887 90.959 187.729 91.9528C186.16 101.524 194.681 97.9325 185.428 110.502C176.176 123.072 157.54 160.76 153.307 174.846C149.074 188.932 153.264 208.782 152.63 215.458C152.323 219.326 152.342 223.213 152.687 227.078C147.688 227.015 142.761 228.052 137.683 227.389C132.269 212.069 128.629 190.261 126.157 178.209C123.685 166.157 123.594 171.254 124.728 165.227C125.862 159.201 126.136 163.58 124.945 157.815C123.754 152.049 128.571 144.806 133.021 140.675C134.94 135.156 137.42 130.01 139.32 124.548C153.241 112.404 154.156 105.389 167.876 93.0426Z" fill="#FF7DD8"/>
<path d="M572.34 483.401H560.041L554.19 435.961H572.343L572.34 483.401Z" fill="#FFB6B6"/>
<path d="M575.477 495.324L535.819 495.322V494.82C535.819 490.727 537.446 486.801 540.341 483.906C543.235 481.011 547.161 479.385 551.255 479.385H551.256L558.5 473.889L572.016 479.385L575.478 479.386L575.477 495.324Z" fill="#2F2E41"/>
<path d="M515.2 483.401H502.901L497.05 435.961H515.202L515.2 483.401Z" fill="#FFB6B6"/>
<path d="M518.337 495.324L478.679 495.322V494.82C478.679 490.727 480.305 486.801 483.2 483.906C486.095 481.011 490.021 479.385 494.115 479.385H494.116L501.36 473.889L514.876 479.385L518.338 479.386L518.337 495.324Z" fill="#2F2E41"/>
<path d="M509.876 224.043L589.876 226.043C605.07 234.295 605.301 252.156 600.323 273.363C600.323 273.363 602.003 285.967 598.642 289.328C595.281 292.69 593.6 292.69 595.281 298.572C596.961 304.454 588.082 314.061 589.161 315.14C590.239 316.218 592.76 322.1 592.76 322.1L584.357 369.997C584.357 369.997 578.475 453.187 576.794 454.867C575.114 456.548 573.433 454.867 575.114 459.069C576.794 463.27 578.475 461.59 576.794 463.27C575.306 464.875 573.903 466.558 572.593 468.312H552.277C552.277 468.312 550.745 459.909 550.745 459.069C550.745 458.228 549.064 453.187 549.064 452.346C549.064 451.506 550.55 450.021 550.55 450.021C551.063 448.312 551.41 446.559 551.585 444.784C551.585 443.103 556.627 378.4 556.627 378.4L546.544 294.37L522.175 376.719C522.175 376.719 522.175 448.985 520.494 450.666C518.814 452.346 518.814 451.506 519.654 454.867C520.494 458.228 523.855 457.388 521.335 459.909C518.814 462.43 517.973 458.228 518.814 462.43L519.654 466.631L494.445 466.992C494.445 466.992 491.084 459.909 492.764 457.388C494.445 454.867 494.344 455.555 492.294 451.43C490.244 447.305 489.403 446.464 490.244 445.624C491.084 444.784 491.084 440.314 491.084 440.314L495.285 359.914C495.285 359.914 496.126 275.043 496.126 272.522C496.189 271.225 495.95 269.931 495.428 268.742V265.32L498.647 253.196L509.876 224.043Z" fill="#2F2E41"/>
<path d="M557.934 57.6952C571.661 57.6952 582.79 46.5666 582.79 32.8387C582.79 19.1109 571.661 7.98228 557.934 7.98228C544.206 7.98228 533.077 19.1109 533.077 32.8387C533.077 46.5666 544.206 57.6952 557.934 57.6952Z" fill="#FFB6B6"/>
<path d="M545.505 74.1236C540.15 77.3071 536.947 83.1565 535.108 89.1087C531.704 100.129 529.654 111.522 529.006 123.038L527.063 157.513L503.009 230.921C523.856 248.561 602.218 234.93 602.218 234.93C602.218 234.93 604.624 234.128 602.218 231.722C599.813 229.317 597.471 231.448 599.876 229.043C602.282 226.637 600.624 229.317 599.822 226.911C599.02 224.506 599.822 226.11 600.624 225.308C601.425 224.506 594.416 217.29 594.416 217.29L600.831 175.153L608.849 90.1599C599.227 78.1326 579.876 71.0425 579.876 71.0425L574.876 62.0425L549.876 64.0425L545.505 74.1236Z" fill="#3F3D56"/>
<path d="M542.096 18.2511C543.058 18.2586 544.015 18.3842 544.946 18.6251C546.782 19.0664 548.646 19.379 550.525 19.5606C556.28 20.102 561.687 22.556 565.883 26.5308C570.078 30.5056 572.821 35.7718 573.673 41.4883C575.118 40.2291 578.404 37.9127 581.098 40.0655C581.139 40.0997 581.163 40.1173 581.258 40.0723C583.047 39.2237 586.223 28.7774 586.319 19.5797C586.37 14.6978 585.601 8.46395 581.653 6.48983L581.445 6.38583L581.39 6.15974C581.126 5.0616 578.179 3.18709 573.057 1.72811C563.749 -0.92326 550.147 -1.30656 542.333 6.29452C541.742 8.85702 539.544 9.55917 537.601 10.1807C535.449 10.8687 533.591 11.4625 533.298 14.1021C533.053 17.8585 533.071 21.6275 533.351 25.3814C534.08 23.0843 535.511 21.0738 537.443 19.6329C538.817 18.7082 540.441 18.226 542.096 18.2511V18.2511Z" fill="#2F2E41"/>
<path d="M495.831 155.594L536.434 129.59L515.984 102.405L495.79 127.245L432.871 131.104C431.216 129.468 429.121 128.349 426.841 127.883C424.561 127.418 422.195 127.625 420.031 128.481C417.868 129.337 415.999 130.804 414.655 132.703C413.31 134.602 412.547 136.852 412.459 139.177C412.371 141.502 412.961 143.803 414.157 145.799C415.354 147.794 417.106 149.399 419.198 150.416C421.291 151.434 423.635 151.82 425.943 151.529C428.252 151.237 430.426 150.28 432.2 148.775L495.831 155.594Z" fill="#FFB6B6"/>
<path d="M574.119 93.2949C576.476 107.557 531.974 134.79 531.974 134.79C531.973 131.443 505.412 156.714 504.213 153.938C500.806 146.047 498.41 127.359 493.649 124.367C490.926 122.657 510.048 106.587 510.048 106.587C510.048 106.587 520.057 96.5028 533.193 83.7835C536.84 80.1187 541.354 77.4362 546.317 75.9857C551.279 74.5351 556.528 74.3637 561.575 75.4874C561.575 75.4874 571.763 79.0333 574.119 93.2949Z" fill="#3F3D56"/>
<path d="M528.876 257.043C528.894 272.305 526.338 287.46 521.316 301.873C521.086 302.543 520.846 303.203 520.606 303.873C510.327 331.79 491.206 355.584 466.156 371.633C464.446 372.733 462.716 373.783 460.956 374.803C440.943 386.404 418.287 392.678 395.156 393.023C394.396 393.033 393.636 393.043 392.876 393.043C391.896 393.043 390.926 393.033 389.956 393.013C366.795 392.552 344.138 386.155 324.156 374.433C322.396 373.403 320.663 372.333 318.956 371.223C291.145 353.194 270.866 325.638 261.924 293.723C252.982 261.808 255.991 227.727 270.386 197.873C270.706 197.203 271.036 196.543 271.376 195.873C282.714 173.373 300.076 154.463 321.529 141.251C342.982 128.039 367.682 121.043 392.876 121.043C418.071 121.043 442.771 128.039 464.224 141.251C485.676 154.463 503.039 173.373 514.376 195.873C514.716 196.543 515.046 197.203 515.366 197.873C524.289 216.32 528.908 236.551 528.876 257.043V257.043Z" fill="#F2F2F2"/>
<path d="M486.796 301.873V303.873H498.976V301.873H486.796ZM462.436 301.873V303.873H474.616V301.873H462.436ZM438.076 301.873V303.873H450.256V301.873H438.076ZM413.716 301.873V303.873H425.896V301.873H413.716ZM389.356 301.873V303.873H401.536V301.873H389.356ZM364.996 301.873V303.873H377.176V301.873H364.996ZM340.636 301.873V303.873H352.816V301.873H340.636ZM316.286 301.873V303.873H328.456V301.873H316.286ZM291.926 301.873V303.873H304.106V301.873H291.926ZM267.566 301.873V303.873H279.746V301.873H267.566ZM521.316 301.873H511.156V303.873H520.606L521.316 301.873Z" fill="#E6E6E6"/>
<path d="M511.156 287.873V289.873H523.336V287.873H511.156ZM486.796 287.873V289.873H498.976V287.873H486.796ZM462.436 287.873V289.873H474.616V287.873H462.436ZM438.076 287.873V289.873H450.256V287.873H438.076ZM413.716 287.873V289.873H425.896V287.873H413.716ZM389.356 287.873V289.873H401.536V287.873H389.356ZM364.996 287.873V289.873H377.176V287.873H364.996ZM340.636 287.873V289.873H352.816V287.873H340.636ZM316.286 287.873V289.873H328.456V287.873H316.286ZM291.926 287.873V289.873H304.106V287.873H291.926ZM267.566 287.873V289.873H279.746V287.873H267.566Z" fill="#E6E6E6"/>
<path d="M511.156 258.873V260.873H523.336V258.873H511.156ZM486.796 258.873V260.873H498.976V258.873H486.796ZM462.436 258.873V260.873H474.616V258.873H462.436ZM438.076 258.873V260.873H450.256V258.873H438.076ZM413.716 258.873V260.873H425.896V258.873H413.716ZM389.356 258.873V260.873H401.536V258.873H389.356ZM364.996 258.873V260.873H377.176V258.873H364.996ZM340.636 258.873V260.873H352.816V258.873H340.636ZM316.286 258.873V260.873H328.456V258.873H316.286ZM291.926 258.873V260.873H304.106V258.873H291.926ZM267.566 258.873V260.873H279.746V258.873H267.566Z" fill="#E6E6E6"/>
<path d="M511.156 238.873V240.873H523.336V238.873H511.156ZM486.796 238.873V240.873H498.976V238.873H486.796ZM462.436 238.873V240.873H474.616V238.873H462.436ZM438.076 238.873V240.873H450.256V238.873H438.076ZM413.716 238.873V240.873H425.896V238.873H413.716ZM389.356 238.873V240.873H401.536V238.873H389.356ZM364.996 238.873V240.873H377.176V238.873H364.996ZM340.636 238.873V240.873H352.816V238.873H340.636ZM316.286 238.873V240.873H328.456V238.873H316.286ZM291.926 238.873V240.873H304.106V238.873H291.926ZM267.566 238.873V240.873H279.746V238.873H267.566Z" fill="#E6E6E6"/>
<path d="M514.376 195.873H511.156V197.873H515.366C515.046 197.203 514.716 196.543 514.376 195.873ZM486.796 195.873V197.873H498.976V195.873H486.796ZM462.436 195.873V197.873H474.616V195.873H462.436ZM438.076 195.873V197.873H450.256V195.873H438.076ZM413.716 195.873V197.873H425.896V195.873H413.716ZM389.356 195.873V197.873H401.536V195.873H389.356ZM364.996 195.873V197.873H377.176V195.873H364.996ZM340.636 195.873V197.873H352.816V195.873H340.636ZM316.286 195.873V197.873H328.456V195.873H316.286ZM291.926 195.873V197.873H304.106V195.873H291.926ZM271.376 195.873C271.036 196.543 270.706 197.203 270.386 197.873H279.746V195.873H271.376Z" fill="#E6E6E6"/>
<path d="M466.156 202.613V371.633C464.446 372.733 462.716 373.783 460.956 374.803V202.613H466.156Z" fill="#3F3D56"/>
<path d="M395.156 258.613V393.023C394.396 393.033 393.636 393.043 392.876 393.043C391.896 393.043 390.926 393.033 389.956 393.013V258.613H395.156Z" fill="#3F3D56"/>
<path d="M324.156 202.613V374.433C322.396 373.403 320.663 372.333 318.956 371.223V202.613H324.156Z" fill="#3F3D56"/>
<path d="M69.3536 432.661L67.37 405.072C54.3766 398.577 39.994 395.352 25.4712 395.676C45.9028 411.469 44.2663 443.034 58.4163 464.636C62.8812 471.34 68.7974 476.953 75.7264 481.059C82.6555 485.165 90.4198 487.66 98.444 488.358L115.448 498.14C117.393 485.284 116.528 472.159 112.912 459.67C109.297 447.18 103.016 435.623 94.5038 425.794C89.6737 420.328 84.1745 415.491 78.1359 411.399C74.4192 422.07 69.3536 432.661 69.3536 432.661Z" fill="#F2F2F2"/>
<path d="M462.876 216.043C473.37 216.043 481.876 207.536 481.876 197.043C481.876 186.549 473.37 178.043 462.876 178.043C452.383 178.043 443.876 186.549 443.876 197.043C443.876 207.536 452.383 216.043 462.876 216.043Z" fill="#FF7DD8"/>
<path d="M472.63 189.124C472.344 188.851 471.964 188.699 471.569 188.699C471.174 188.699 470.794 188.851 470.509 189.124C466.477 192.339 462.856 196.038 459.727 200.137C458.959 198.65 458.19 197.164 457.422 195.678C456.535 193.962 453.946 195.478 454.832 197.192C455.955 199.366 457.079 201.54 458.203 203.714C458.338 203.936 458.528 204.119 458.755 204.247C458.982 204.374 459.238 204.441 459.498 204.441C459.758 204.441 460.014 204.374 460.24 204.247C460.467 204.119 460.658 203.936 460.793 203.714C464.128 199.018 468.113 194.819 472.63 191.245C472.909 190.963 473.066 190.582 473.066 190.185C473.066 189.788 472.909 189.406 472.63 189.124V189.124Z" fill="white"/>
<path d="M392.876 272.043C403.37 272.043 411.876 263.536 411.876 253.043C411.876 242.549 403.37 234.043 392.876 234.043C382.383 234.043 373.876 242.549 373.876 253.043C373.876 263.536 382.383 272.043 392.876 272.043Z" fill="#FF7DD8"/>
<path d="M402.63 245.124C402.344 244.851 401.964 244.699 401.569 244.699C401.174 244.699 400.794 244.851 400.509 245.124C396.477 248.339 392.856 252.038 389.727 256.137C388.959 254.65 388.19 253.164 387.422 251.678C386.535 249.962 383.946 251.478 384.832 253.192C385.955 255.366 387.079 257.54 388.203 259.714C388.338 259.936 388.528 260.119 388.755 260.247C388.982 260.374 389.238 260.441 389.498 260.441C389.758 260.441 390.014 260.374 390.24 260.247C390.467 260.119 390.658 259.936 390.793 259.714C394.128 255.018 398.113 250.819 402.63 247.245C402.909 246.963 403.066 246.582 403.066 246.185C403.066 245.788 402.909 245.406 402.63 245.124V245.124Z" fill="white"/>
<path d="M321.876 220.043C332.37 220.043 340.876 211.536 340.876 201.043C340.876 190.549 332.37 182.043 321.876 182.043C311.383 182.043 302.876 190.549 302.876 201.043C302.876 211.536 311.383 220.043 321.876 220.043Z" fill="#FF7DD8"/>
<path d="M331.63 193.124C331.344 192.851 330.964 192.699 330.569 192.699C330.174 192.699 329.794 192.851 329.509 193.124C325.477 196.339 321.856 200.038 318.727 204.137C317.959 202.65 317.19 201.164 316.422 199.678C315.535 197.962 312.946 199.478 313.832 201.192C314.955 203.366 316.079 205.54 317.203 207.714C317.338 207.936 317.528 208.119 317.755 208.247C317.982 208.374 318.238 208.441 318.498 208.441C318.758 208.441 319.014 208.374 319.24 208.247C319.467 208.119 319.658 207.936 319.793 207.714C323.128 203.018 327.113 198.819 331.63 195.245C331.909 194.963 332.066 194.582 332.066 194.185C332.066 193.788 331.909 193.406 331.63 193.124V193.124Z" fill="white"/>
<path d="M594.354 187.531L606.862 140.966L573.437 134.638L575.234 166.6L531.317 211.821C528.992 211.726 526.689 212.31 524.69 213.5C522.691 214.691 521.081 216.438 520.058 218.528C519.034 220.618 518.641 222.96 518.926 225.27C519.211 227.579 520.161 229.756 521.662 231.534C523.162 233.313 525.148 234.617 527.376 235.286C529.605 235.956 531.98 235.963 534.212 235.306C536.445 234.649 538.438 233.356 539.948 231.586C541.459 229.816 542.422 227.645 542.719 225.337L594.354 187.531Z" fill="#FFB6B6"/>
<path d="M610.282 88.756C621.628 97.7129 607.066 147.813 607.066 147.813C604.811 145.339 602.191 181.907 599.435 180.662C591.603 177.124 577.248 164.92 571.713 165.915C568.548 166.484 571.864 141.727 571.864 141.727C571.864 141.727 572.474 127.532 573.62 109.283C573.849 104.118 575.38 99.0947 578.072 94.6807C580.764 90.2667 584.529 86.6056 589.017 84.0381C589.017 84.0381 598.936 79.7992 610.282 88.756Z" fill="#3F3D56"/>
<path d="M218.409 193.301L232.16 254.667L144.042 249.186L168.004 188.918L218.409 193.301Z" fill="#A0616A"/>
<path d="M203.736 476.529L213.634 476.528L218.343 438.349H203.734L203.736 476.529Z" fill="#A0616A"/>
<path d="M200.384 471.646L216.031 470.712V477.416L230.907 487.69C231.642 488.197 232.196 488.926 232.487 489.77C232.778 490.615 232.792 491.53 232.526 492.382C232.26 493.235 231.729 493.98 231.01 494.509C230.29 495.038 229.421 495.324 228.528 495.324H209.899L206.688 488.692L205.434 495.324H198.411L200.384 471.646Z" fill="#2F2E41"/>
<path d="M110.182 471.604L119.856 473.702L132.552 437.389L118.275 434.292L110.182 471.604Z" fill="#A0616A"/>
<path d="M107.942 466.122L123.431 468.526L122.01 475.078L134.37 488.272C134.981 488.924 135.367 489.754 135.473 490.64C135.578 491.527 135.398 492.424 134.957 493.201C134.517 493.978 133.84 494.593 133.024 494.958C132.209 495.323 131.299 495.417 130.426 495.228L112.221 491.279L110.489 484.117L107.858 490.332L100.994 488.843L107.942 466.122Z" fill="#2F2E41"/>
<path d="M234.41 305.982C227.463 344.16 225.726 360.645 225.726 360.645C225.726 360.645 230.937 366.718 227.463 370.191C223.99 373.665 227.463 380.602 227.463 380.602L219.653 464.769L213.366 463.75L198.221 461.315L192.758 460.432L196.232 381.475C196.232 381.475 192.758 374.528 194.495 372.792C196.232 371.055 192.758 360.645 192.758 360.645L188.421 278.215L161.517 368.455C161.517 368.455 164.127 371.928 161.517 374.528C158.917 377.129 153.717 390.149 153.717 390.149L137.718 446.131L136.359 450.885L128.016 449.323L118.934 447.615L117.266 447.305L114.297 446.742L112.385 446.383L111.735 446.266L108.592 445.675L109.543 441.454L110.037 439.232L123.572 379.118L123.883 377.73L124.212 376.265C124.212 376.265 122.476 371.928 125.076 369.318C125.837 368.523 126.392 367.554 126.695 366.496C126.997 365.438 127.038 364.322 126.813 363.245C126.727 363.154 126.65 363.057 126.58 362.954C126.273 362.532 126.061 362.049 125.959 361.537C125.726 360.451 125.93 358.927 127.686 357.171C128.18 356.646 128.595 356.051 128.918 355.405C131.557 350.409 132.886 339.824 132.886 339.824C132.886 339.824 135.234 255.987 142.918 243.18C143.326 242.511 151.483 229.659 151.91 229.397C160.584 224.196 228.16 231.379 228.16 231.379C228.16 231.379 232.253 242.375 232.438 243.52C233.437 249.952 240.299 273.596 234.41 305.982Z" fill="#2F2E41"/>
<path d="M213.876 104.043C213.876 104.043 215.339 96.4524 201.288 82.4018C193.849 79.9223 180.961 81.3675 176.493 82.4018C155.83 109.676 159.53 104.864 154.151 120.103C152.757 124.055 152.059 127.852 152.679 130.951C155.159 143.349 159.184 206.988 158.358 210.294C157.531 213.6 151.746 217.733 157.531 217.733C163.317 217.733 237.926 216.427 236.273 213.947C234.62 211.468 213.876 104.043 213.876 104.043Z" fill="#FF7DD8"/>
<path d="M302.486 204.888C301.353 205.327 300.138 205.512 298.925 205.43C297.713 205.348 296.534 205.001 295.47 204.414C294.406 203.827 293.484 203.014 292.768 202.032C292.053 201.05 291.561 199.923 291.328 198.731L262.087 194.577L272.254 183.08L298.464 188.787C300.493 188.528 302.546 189.023 304.235 190.178C305.924 191.332 307.131 193.066 307.627 195.051C308.122 197.035 307.873 199.133 306.926 200.946C305.978 202.759 304.399 204.162 302.486 204.888L302.486 204.888Z" fill="#A0616A"/>
<path d="M178.773 99.1569C181.13 97.5829 183.808 96.8437 185.964 94.742C193.835 100.41 194.414 91.1815 201.547 105.064C208.68 118.947 234.123 152.418 244.849 162.482C255.574 172.547 275.213 177.637 280.908 181.178C284.235 183.175 287.723 184.889 291.337 186.302C289.054 190.75 287.788 195.623 284.933 199.874C268.805 197.898 247.658 191.444 235.767 188.289C223.875 185.134 228.398 187.485 223.507 183.786C218.617 180.086 222.66 181.791 216.967 180.29C211.275 178.788 206.935 171.249 205.219 165.425C201.132 161.248 197.629 156.736 193.586 152.602C188.913 134.729 183.716 116.94 178.773 99.1569Z" fill="#FF7DD8"/>
<path d="M197.237 71.8233C210.454 71.8233 221.17 61.1082 221.17 47.8905C221.17 34.6728 210.454 23.9578 197.237 23.9578C184.019 23.9578 173.304 34.6728 173.304 47.8905C173.304 61.1082 184.019 71.8233 197.237 71.8233Z" fill="#A0616A"/>
<path d="M213.227 91.6385C212.092 90.0185 203.611 73.9551 201.09 67.8805C200.831 69.196 200.667 70.5285 200.6 71.8676L200.575 72.3666L200.08 72.4308C199.334 72.5259 181.732 74.6625 172.572 64.2752C167.144 58.1224 165.913 48.8935 168.908 36.8394C168.364 36.7325 167.842 36.5315 167.366 36.2453C166.574 35.6971 165.911 34.9826 165.423 34.1518C164.936 33.3209 164.635 32.3937 164.543 31.4348L164.036 31.5708C147.738 23.6405 161.779 0.441633 176.664 11.9756C177.97 11.6839 179.331 11.7621 180.595 12.2015C181.814 12.6973 182.875 13.5137 183.668 14.564C184.46 15.6143 184.954 16.8595 185.096 18.1675C192.787 14.122 202.966 14.7803 208.231 17.8156C210.435 19.0866 211.701 20.6874 211.925 22.4732C218.144 22.8204 224.831 28.8775 224.831 37.4592V38.0568H224.234C221.732 38.1101 219.292 38.8427 217.175 40.1764C215.058 41.51 213.343 43.3944 212.215 45.6277C210.686 48.3904 209.929 51.514 210.024 54.6702C210.119 57.8264 211.063 60.8987 212.755 63.5643C214.598 66.3917 215.856 69.5592 216.455 72.8802C217.054 76.2012 216.983 79.6085 216.245 82.9016L214 92.7415L213.227 91.6385Z" fill="#2F2E41"/>
<path d="M282.67 495.521C282.671 495.677 282.64 495.832 282.58 495.977C282.521 496.122 282.433 496.253 282.323 496.364C282.212 496.474 282.081 496.562 281.936 496.621C281.791 496.681 281.636 496.712 281.48 496.711H1.19003C0.874425 496.711 0.57174 496.586 0.348572 496.362C0.125403 496.139 3.05176e-05 495.837 3.05176e-05 495.521C3.05176e-05 495.205 0.125403 494.903 0.348572 494.68C0.57174 494.456 0.874425 494.331 1.19003 494.331H281.48C281.636 494.331 281.791 494.361 281.936 494.421C282.081 494.48 282.212 494.568 282.323 494.679C282.433 494.789 282.521 494.921 282.58 495.065C282.64 495.21 282.671 495.365 282.67 495.521Z" fill="#CCCCCC"/>
<path d="M664.67 495.521C664.671 495.677 664.64 495.832 664.58 495.977C664.521 496.122 664.433 496.253 664.323 496.364C664.212 496.474 664.081 496.562 663.936 496.621C663.791 496.681 663.636 496.712 663.48 496.711H383.19C382.874 496.711 382.572 496.586 382.349 496.362C382.125 496.139 382 495.837 382 495.521C382 495.205 382.125 494.903 382.349 494.68C382.572 494.456 382.874 494.331 383.19 494.331H663.48C663.636 494.331 663.791 494.361 663.936 494.421C664.081 494.48 664.212 494.568 664.323 494.679C664.433 494.789 664.521 494.921 664.58 495.065C664.64 495.21 664.671 495.365 664.67 495.521Z" fill="#CCCCCC"/>
<path d="M321.286 409.759C327.135 409.759 331.876 405.018 331.876 399.169C331.876 393.32 327.135 388.578 321.286 388.578C315.437 388.578 310.695 393.32 310.695 399.169C310.695 405.018 315.437 409.759 321.286 409.759Z" fill="#E6E6E6"/>
<path d="M392.286 420.759C398.135 420.759 402.876 416.018 402.876 410.169C402.876 404.32 398.135 399.578 392.286 399.578C386.437 399.578 381.695 404.32 381.695 410.169C381.695 416.018 386.437 420.759 392.286 420.759Z" fill="#E6E6E6"/>
<path d="M463.286 407.759C469.135 407.759 473.876 403.018 473.876 397.169C473.876 391.32 469.135 386.578 463.286 386.578C457.437 386.578 452.695 391.32 452.695 397.169C452.695 403.018 457.437 407.759 463.286 407.759Z" fill="#E6E6E6"/>
</g>
<defs>
<clipPath id="clip0_18_93">
<rect width="664.67" height="498.947" fill="white"/>
</clipPath>
</defs>
</svg>
