<svg width="699" height="609" viewBox="0 0 699 609" fill="none" xmlns="http://www.w3.org/2000/svg">
<g clip-path="url(#clip0_1_2)">
<path d="M326.789 600.276C327.038 600.287 327.285 600.222 327.496 600.088C327.706 599.955 327.871 599.76 327.967 599.53C328.063 599.3 328.087 599.045 328.034 598.802C327.98 598.558 327.854 598.337 327.671 598.167L327.587 597.836L327.62 597.756C327.871 597.163 328.292 596.658 328.829 596.303C329.367 595.949 329.997 595.761 330.641 595.763C331.284 595.766 331.913 595.958 332.448 596.317C332.983 596.675 333.399 597.184 333.646 597.779C334.632 600.152 335.886 602.53 336.195 605.04C336.331 606.149 336.274 607.273 336.026 608.363C338.34 603.314 339.542 597.826 339.55 592.272C339.55 590.878 339.473 589.485 339.318 588.1C339.19 586.964 339.012 585.837 338.785 584.717C337.544 578.644 334.88 572.951 331.012 568.106C329.14 567.085 327.626 565.514 326.675 563.606C326.33 562.92 326.086 562.187 325.951 561.432C326.361 560.349 326.577 559.203 326.588 558.046C326.882 557.599 327.409 557.377 327.73 556.941C329.329 554.774 331.531 555.152 332.681 558.098C335.137 559.337 335.161 561.393 333.654 563.37C332.695 564.628 332.563 566.33 331.722 567.677C331.809 567.788 331.899 567.895 331.985 568.006C333.567 570.04 334.946 572.225 336.102 574.529C335.821 571.948 336.157 569.338 337.081 566.912C338.018 564.651 339.775 562.748 341.322 560.793C341.731 560.268 342.286 559.877 342.918 559.667C343.55 559.458 344.229 559.441 344.871 559.617C345.513 559.794 346.087 560.158 346.523 560.661C346.958 561.164 347.234 561.786 347.316 562.446L347.326 562.533C347.096 562.662 346.871 562.8 346.651 562.945C346.375 563.13 346.16 563.394 346.037 563.702C345.913 564.011 345.885 564.349 345.957 564.674C346.029 564.999 346.197 565.294 346.44 565.521C346.682 565.748 346.988 565.897 347.316 565.948L347.35 565.953C347.268 566.781 347.123 567.602 346.917 568.408C348.901 576.081 344.618 578.876 338.501 579.001C338.366 579.071 338.234 579.14 338.099 579.206C339.261 582.497 339.989 585.926 340.267 589.405C340.423 591.458 340.414 593.52 340.239 595.571L340.249 595.498C340.692 593.217 341.909 591.159 343.694 589.672C346.345 587.494 350.09 586.692 352.95 584.942C353.254 584.746 353.607 584.642 353.969 584.641C354.33 584.641 354.684 584.743 354.988 584.937C355.293 585.13 355.537 585.407 355.689 585.734C355.842 586.062 355.898 586.426 355.85 586.784L355.839 586.86C355.413 587.034 354.997 587.234 354.596 587.459C354.366 587.589 354.141 587.726 353.921 587.872C353.645 588.057 353.431 588.32 353.307 588.629C353.183 588.937 353.155 589.276 353.227 589.601C353.299 589.925 353.467 590.221 353.71 590.448C353.952 590.675 354.258 590.824 354.587 590.875L354.62 590.88L354.689 590.89C353.961 592.629 352.939 594.23 351.667 595.623C350.426 602.321 345.098 602.957 339.398 601.006H339.394C338.769 603.724 337.863 606.369 336.69 608.9H327.031C326.997 608.792 326.965 608.682 326.934 608.574C327.828 608.63 328.726 608.577 329.607 608.415C328.89 607.536 328.174 606.649 327.457 605.77C327.441 605.754 327.426 605.736 327.412 605.718C327.048 605.268 326.681 604.821 326.318 604.371L326.318 604.371C326.298 602.991 326.457 601.615 326.789 600.276L326.789 600.276Z" fill="black"/>
<path d="M86.1243 600.276C85.8752 600.287 85.6286 600.222 85.4178 600.088C85.2071 599.955 85.0425 599.76 84.9463 599.53C84.8501 599.3 84.8269 599.045 84.8799 598.802C84.933 598.558 85.0596 598.337 85.2428 598.167L85.3261 597.836L85.293 597.756C85.042 597.163 84.6214 596.658 84.0841 596.303C83.5467 595.949 82.9166 595.761 82.2728 595.763C81.629 595.766 81.0003 595.958 80.4656 596.317C79.9309 596.675 79.5141 597.184 79.2675 597.779C78.282 600.152 77.0272 602.53 76.7183 605.04C76.5822 606.149 76.6396 607.273 76.8879 608.363C74.5732 603.314 73.3713 597.826 73.3636 592.272C73.3631 590.878 73.4405 589.485 73.5956 588.1C73.7237 586.964 73.9014 585.837 74.1287 584.717C75.3694 578.644 78.033 572.951 81.901 568.106C83.7731 567.085 85.2871 565.514 86.2389 563.606C86.5838 562.92 86.8275 562.187 86.9625 561.432C86.5523 560.349 86.3366 559.203 86.3255 558.046C86.0312 557.599 85.5045 557.377 85.183 556.941C83.5845 554.774 81.382 555.152 80.2323 558.098C77.7761 559.337 77.7524 561.393 79.2594 563.37C80.2183 564.628 80.35 566.33 81.1913 567.677C81.1047 567.788 81.0147 567.895 80.9282 568.006C79.346 570.04 77.967 572.225 76.811 574.529C77.0921 571.948 76.7566 569.338 75.832 566.912C74.895 564.651 73.1386 562.748 71.5919 560.793C71.1828 560.268 70.6273 559.877 69.9955 559.667C69.3637 559.458 68.6841 559.441 68.0425 559.618C67.4009 559.794 66.8262 560.158 66.3909 560.661C65.9556 561.164 65.6794 561.786 65.5971 562.446L65.5878 562.533C65.8175 562.662 66.0424 562.8 66.2625 562.945C66.5389 563.13 66.753 563.394 66.8769 563.702C67.0008 564.011 67.0286 564.349 66.9567 564.674C66.8848 564.999 66.7165 565.294 66.4739 565.521C66.2313 565.748 65.9258 565.897 65.5972 565.948L65.5636 565.953C65.6455 566.781 65.7901 567.602 65.9964 568.408C64.0121 576.081 68.2959 578.876 74.4126 579.001C74.5476 579.071 74.6792 579.14 74.8142 579.206C73.6527 582.497 72.9242 585.926 72.647 589.405C72.49 591.458 72.4992 593.52 72.6746 595.571L72.6643 595.498C72.2211 593.217 71.0043 591.159 69.2195 589.672C66.5686 587.494 62.8233 586.692 59.9635 584.942C59.6596 584.746 59.3061 584.642 58.945 584.641C58.5838 584.641 58.2299 584.743 57.925 584.937C57.6201 585.13 57.377 585.407 57.2243 585.734C57.0715 586.062 57.0156 586.426 57.063 586.784L57.0747 586.86C57.501 587.034 57.9161 587.234 58.3176 587.459C58.5473 587.589 58.7722 587.726 58.9922 587.872C59.2686 588.057 59.4828 588.32 59.6067 588.629C59.7306 588.937 59.7584 589.276 59.6864 589.601C59.6145 589.925 59.4463 590.221 59.2037 590.448C58.9611 590.675 58.6555 590.824 58.327 590.875L58.2933 590.88L58.2241 590.89C58.9525 592.629 59.9749 594.23 61.2464 595.623C62.4871 602.321 67.8159 602.957 73.5159 601.006H73.5194C74.1448 603.724 75.051 606.369 76.2233 608.9H85.8824C85.917 608.792 85.9482 608.682 85.9794 608.574C85.0853 608.63 84.1877 608.577 83.3067 608.415C84.0233 607.536 84.7399 606.649 85.4566 605.77C85.4726 605.754 85.4876 605.736 85.5016 605.718C85.8651 605.268 86.2321 604.821 86.5956 604.371L86.5958 604.371C86.6152 602.991 86.4569 601.615 86.1248 600.276L86.1243 600.276Z" fill="black"/>
<path d="M232.106 79.2674C234.061 75.3329 237.184 72.0662 239.095 68.1103C241.005 64.1544 241.377 58.8598 238.194 55.8319C235.491 53.2609 231.258 53.2249 228.026 51.3626C219.791 46.6182 219.801 31.5489 210.387 30.2468C205.81 29.6137 201.668 33.0465 198.901 36.7478C196.134 40.4492 193.93 44.7682 190.093 47.3434C185.749 50.2585 180.134 50.3852 175.31 52.41C166.062 56.2921 161.214 66.2745 157.16 75.4484C154.548 81.3583 151.877 87.7325 153.089 94.0791C150.455 95.7179 151.629 100.126 154.258 101.772C156.887 103.419 160.188 103.382 163.207 104.095C169.552 105.594 174.748 110.645 177.211 116.681C179.13 121.386 179.523 126.552 179.893 131.62C180.536 140.414 181.179 149.208 181.821 158.002C182.107 161.914 182.482 166.072 184.864 169.189C187.245 172.306 192.402 173.613 195.079 170.745C197.637 168.005 196.485 163.667 196.433 159.918C196.382 156.169 199.77 151.502 202.965 153.463L204.092 150.906C211.39 148.293 217.781 143.632 222.499 137.481C227.217 131.33 230.062 123.95 230.695 116.224C231.511 103.78 226.559 90.4367 232.106 79.2674Z" fill="black"/>
<path d="M239.564 158.179C240.269 157.515 240.769 156.663 241.006 155.723C241.242 154.784 241.205 153.797 240.899 152.878C240.593 151.959 240.03 151.146 239.277 150.537C238.525 149.927 237.613 149.545 236.651 149.437L236.663 149.859C235.289 150.661 233.723 151.073 232.132 151.05C230.547 151.025 228.97 151.274 227.471 151.788C226.725 152.059 226.079 152.55 225.618 153.195C225.156 153.84 224.901 154.61 224.885 155.403C224.973 156.011 225.205 156.589 225.563 157.088C225.921 157.586 226.395 157.992 226.943 158.268C228.044 158.811 229.225 159.169 230.442 159.331C233.576 159.92 237.244 160.367 239.564 158.179Z" fill="black"/>
<path d="M300.681 79.4758C301.994 78.583 303.108 77.429 303.955 76.0859C304.365 75.4064 304.56 74.6187 304.514 73.8262C304.469 73.0338 304.185 72.2736 303.699 71.6456C302.711 70.7881 301.439 70.3287 300.131 70.3566C296.579 70.0914 293.009 70.5124 289.616 71.5965C293.1 74.6831 296.584 77.7698 300.068 80.8564L300.681 79.4758Z" fill="black"/>
<path d="M283.258 87.5035C284.666 89.0577 284.217 91.4687 283.819 93.5278C283.42 95.5869 283.369 98.16 285.14 99.2833C286.675 100.257 288.83 99.4624 289.953 98.0328C290.956 96.5081 291.568 94.759 291.733 92.941C292.285 90.2987 292.534 87.6023 292.476 84.9037C292.409 82.185 291.45 79.5636 289.747 77.4438C288.537 76.0653 286.927 75.0997 285.141 74.6825C283.356 74.2654 281.484 74.4175 279.789 75.1175L281.408 75.0377C280.231 76.5486 279.339 78.2608 278.775 80.0908C278.504 81.0102 278.485 81.9851 278.719 82.9144C278.953 83.8436 279.432 84.6932 280.105 85.375C281.065 86.2107 282.403 86.5601 283.258 87.5035Z" fill="black"/>
<path d="M362.678 61.4357L362.965 60.5494C361.762 61.2457 360.834 62.3343 360.337 63.633C359.84 64.9317 359.804 66.3616 360.236 67.6834C361.162 66.9532 361.876 65.9894 362.305 64.8912C362.735 63.793 362.863 62.6002 362.678 61.4357Z" fill="black"/>
<path d="M347.033 74.1214C348.565 73.2535 349.873 72.0386 350.852 70.5742C351.83 69.1097 352.452 67.4364 352.667 65.6884C352.833 64.6015 352.707 63.49 352.302 62.4677C352.094 61.9602 351.764 61.5119 351.341 61.1627C350.919 60.8135 350.416 60.5742 349.878 60.4661L349.223 61.4979C348.283 60.6889 346.704 61.5209 346.308 62.6965C346.053 63.9171 346.159 65.1855 346.613 66.3469C347.066 67.5152 347.046 68.8143 346.556 69.9677C346.027 70.646 345.433 71.2703 344.782 71.8315C344.463 72.1212 344.256 72.5124 344.194 72.9384C344.132 73.3644 344.22 73.7987 344.443 74.1669C345.06 74.8715 346.214 74.5758 347.033 74.1214Z" fill="black"/>
<path d="M340.362 68.3578C340.923 67.3481 341.188 66.2006 341.126 65.0472L339.692 64.5976C338.776 64.969 337.963 65.5568 337.324 66.3107C337.13 66.5055 336.981 66.7408 336.888 66.9998C336.796 67.2588 336.761 67.535 336.788 67.8088C336.815 68.0826 336.902 68.347 337.042 68.5833C337.183 68.8196 337.374 69.0218 337.603 69.1755C337.831 69.3292 338.09 69.4305 338.362 69.4723C338.634 69.5141 338.911 69.4952 339.175 69.4171C339.439 69.3389 339.682 69.2034 339.887 69.0203C340.093 68.8372 340.255 68.611 340.362 68.3578V68.3578Z" fill="black"/>
<path d="M410.428 61.1033C410.558 61.2119 410.687 61.3235 410.816 61.4331C410.931 61.4091 411.039 61.366 411.156 61.3518L410.428 61.1033Z" fill="black"/>
<path d="M408.131 73.6839C409.447 72.6193 410.763 71.5546 412.079 70.4899C412.778 69.9952 413.374 69.3688 413.834 68.6458C414.147 67.9613 414.283 67.2084 414.227 66.4575C414.172 65.7065 413.927 64.9818 413.516 64.351C412.787 63.2329 411.875 62.2463 410.817 61.433C409.654 61.7082 408.633 62.4 407.947 63.3775C407.26 64.355 406.956 65.5503 407.092 66.737C407.329 68.2466 408.277 69.8608 407.503 71.1786C407.202 71.6917 406.684 72.041 406.337 72.5241C405.989 73.0072 405.876 73.7767 406.354 74.132C406.884 74.5264 407.617 74.0995 408.131 73.6839Z" fill="black"/>
<path d="M411.009 80.2014C411.499 80.2276 411.988 80.1483 412.444 79.9688C412.9 79.7893 413.312 79.5138 413.652 79.161C415.412 77.7194 416.951 76.0284 418.221 74.1416C415.26 75.0796 412.298 76.0176 409.337 76.9556L410.26 78.0353C409.44 78.5705 410.048 80.0171 411.009 80.2014Z" fill="black"/>
<path d="M419.309 86.2967C419.49 86.7586 419.817 87.1485 420.24 87.407C420.663 87.6654 421.16 87.7781 421.653 87.7278C422.144 87.6624 422.615 87.4899 423.033 87.2227C423.45 86.9554 423.804 86.5999 424.069 86.1811C424.52 85.5173 424.784 84.7453 424.836 83.945C424.888 83.1446 424.725 82.345 424.364 81.6287C424.003 80.9125 423.457 80.3056 422.783 79.871C422.109 79.4363 421.331 79.1896 420.53 79.1564L421.348 80.4056C421.556 82.5378 418.658 84.256 419.309 86.2967Z" fill="black"/>
<path d="M476.822 109.649C477.623 110.247 478.596 110.569 479.595 110.566C480.594 110.564 481.566 110.238 482.364 109.636C482.881 109.194 483.302 108.65 483.599 108.038C483.897 107.426 484.065 106.759 484.092 106.079C484.12 105.399 484.007 104.721 483.761 104.086C483.514 103.452 483.139 102.876 482.659 102.393L481.147 103.237C480.308 102.698 479.293 102.506 478.315 102.7C477.337 102.894 476.472 103.46 475.903 104.279C475.393 105.137 475.205 106.149 475.373 107.134C475.542 108.118 476.055 109.01 476.822 109.649V109.649Z" fill="black"/>
<path d="M494.409 111.64C495.146 111.427 495.815 111.027 496.353 110.481C496.891 109.934 497.28 109.258 497.482 108.518L494.542 108.132C493.724 107.514 492.772 107.098 491.763 106.918C491.257 106.842 490.741 106.943 490.3 107.202C489.859 107.462 489.521 107.865 489.342 108.345C489.279 108.752 489.322 109.169 489.467 109.556C489.611 109.942 489.852 110.285 490.166 110.552C490.721 111.082 491.403 111.46 492.146 111.65C492.889 111.841 493.668 111.837 494.409 111.64V111.64Z" fill="black"/>
<path d="M482.267 117.519C482.319 117.997 482.506 118.451 482.806 118.827C483.106 119.203 483.507 119.486 483.962 119.643C484.459 119.878 485.015 119.959 485.559 119.875C486.102 119.791 486.608 119.545 487.011 119.17C487.188 118.97 487.315 118.73 487.382 118.471C487.448 118.211 487.451 117.94 487.391 117.679C487.332 117.418 487.211 117.175 487.038 116.97C486.866 116.765 486.647 116.605 486.4 116.501L484.195 116.1C483.343 115.659 482.253 116.56 482.267 117.519Z" fill="black"/>
<path d="M354.324 133.023L352.618 131.465C353.072 132.098 353.653 132.628 354.324 133.023Z" fill="black"/>
<path d="M341.289 123.847C342.34 128.726 347.595 132.701 352.366 131.235L352.618 131.465C351.099 129.386 350.841 126.31 351.196 123.635C351.854 119.051 353.657 114.706 356.436 111.003C359.216 107.299 362.884 104.355 367.102 102.442C368.257 102.081 369.29 101.408 370.087 100.497C370.767 99.5029 370.513 97.7978 369.342 97.517C368.705 97.4442 368.063 97.5929 367.523 97.938L358.657 102.302C354.178 104.506 349.611 106.773 346.094 110.314C342.576 113.855 340.238 118.967 341.289 123.847Z" fill="black"/>
<path d="M198.168 291.629C189.907 285.715 180.859 280.987 171.287 277.582C165.404 275.49 159.082 273.895 152.952 275.082C149.591 275.778 146.44 277.256 143.758 279.398C141.075 281.539 138.935 284.283 137.512 287.407C136.141 290.554 135.497 293.969 135.626 297.398C135.755 300.828 136.655 304.185 138.259 307.219C141.086 312.516 145.981 316.735 147.617 322.512C148.721 326.406 148.198 330.553 147.667 334.566C146.582 342.766 145.497 350.966 144.411 359.167C143.423 366.633 142.46 374.402 144.824 381.553C147.188 388.704 153.934 395.007 161.426 394.248L162.911 394.136C157.955 390.765 156.565 383.788 158.041 377.978C159.517 372.169 163.263 367.243 166.92 362.494C177.773 348.402 188.625 334.309 199.478 320.217C203.869 314.515 208.513 307.468 206.172 300.663C204.841 296.795 201.493 294.011 198.168 291.629Z" fill="black"/>
<path d="M124.207 256.004C123.107 255.632 121.947 256.459 121.3 257.423C120.778 258.459 120.164 259.445 119.467 260.371C117.776 262.114 114.695 261.768 112.872 260.164C111.048 258.561 110.258 256.082 109.904 253.68C109.48 250.798 109.663 247.582 111.565 245.376C113.523 243.104 116.742 242.495 119.704 242.023C122.763 241.536 126.19 241.129 128.696 242.95C130.275 244.097 131.195 245.947 132.658 247.239C134.12 248.531 136.721 249.02 137.822 247.409C138.11 246.838 138.256 246.206 138.246 245.566C138.237 244.927 138.073 244.299 137.769 243.736C137.15 242.615 136.778 241.376 136.677 240.099C136.751 238.328 138.173 236.921 139.629 235.908C141.084 234.896 142.727 234.023 143.682 232.529C144.856 230.692 144.731 228.325 145.46 226.27C147.223 221.296 153.515 219.083 155.348 214.134C155.79 213.093 155.839 211.928 155.488 210.853C154.721 208.882 152.647 209.269 152.52 206.859C152.398 204.555 154.321 202.295 156.274 201.332C158.967 200.005 162.107 200.113 165.108 200.032C168.109 199.951 171.343 199.552 173.545 197.512C174.258 196.777 174.808 195.9 175.158 194.938C175.509 193.976 175.652 192.951 175.579 191.93C175.506 190.909 175.218 189.914 174.735 189.012C174.251 188.11 173.582 187.32 172.772 186.694C171.131 185.56 169.056 185.166 167.459 183.971C165.47 182.483 164.528 180.004 162.979 178.061C161.69 176.583 160.216 175.277 158.592 174.177C157.262 173.19 155.933 172.204 154.604 171.218C152.201 169.435 149.7 167.606 146.776 166.971C143.852 166.335 140.369 167.234 138.905 169.844C138.327 171.007 138.012 172.283 137.981 173.581C137.847 176.637 137.975 179.7 138.362 182.735C138.603 185.178 138.845 187.62 139.086 190.063C139.302 192.253 139.07 195.141 136.944 195.709C132.228 196.97 133.819 189.997 132.773 187.86C131.172 184.59 123.816 183.02 120.672 181.657C118.708 180.806 116.635 179.867 115.449 178.085C113.973 175.867 114.276 172.848 115.433 170.449C116.591 168.049 118.477 166.096 120.19 164.056C121.936 161.977 123.526 159.772 125.115 157.569C126.957 155.014 128.799 152.46 130.642 149.905C133.004 146.629 135.488 142.63 134.146 138.82C133.855 138.311 133.42 137.898 132.896 137.634C132.372 137.371 131.781 137.267 131.199 137.338C130.616 137.408 130.067 137.648 129.621 138.029C129.174 138.41 128.85 138.914 128.689 139.478C128.1 141.535 129.67 144.161 128.168 145.686C127.654 146.1 127.011 146.32 126.35 146.308C125.69 146.295 125.056 146.051 124.557 145.618C123.585 144.72 122.844 143.6 122.399 142.354C120.58 138.313 118.808 134.246 116.941 130.226C116.351 128.956 115.735 126.78 113.947 126.994C112.394 127.18 111.555 129.443 111.609 130.756C111.688 132.667 112.744 134.375 113.552 136.109C114.359 137.843 114.924 139.926 114.037 141.621C112.915 143.767 110.072 144.249 107.651 144.178C103.088 144.04 98.6165 142.86 94.5791 140.729C94.4736 142.972 94.3681 145.215 94.2626 147.458C91.0493 146.113 87.8359 144.768 84.6225 143.423C83.9984 143.161 83.3743 142.9 82.7502 142.639C80.0396 141.504 77.3256 140.369 74.5351 139.448C72.9509 138.925 71.3447 138.472 69.7391 138.019C68.763 137.744 67.787 137.469 66.811 137.194C64.885 136.511 62.8422 136.22 60.8022 136.337C58.6589 136.606 56.7472 137.757 54.765 138.618C50.3427 140.537 44.6227 138.606 39.8836 138.572C38.0037 135.828 35.4659 133.598 32.502 132.088C29.5381 130.578 26.2429 129.835 22.9177 129.927C19.5925 130.019 16.3435 130.943 13.4678 132.615C10.5921 134.287 8.1815 136.654 6.45651 139.498C5.62329 140.939 4.88128 142.431 4.23483 143.965C3.59182 145.406 2.9488 146.847 2.30576 148.288C1.36246 150.402 0.398345 152.629 0.583755 154.937C0.769165 157.244 2.53803 159.601 4.85275 159.58C-0.605558 162.051 -1.74136 170.699 2.89365 174.495C4.1771 175.547 5.75094 176.234 6.90591 177.425C7.77885 178.326 8.36285 179.466 8.58298 180.701C8.8031 181.935 8.64931 183.207 8.14133 184.354C7.63335 185.5 6.79435 186.469 5.73202 187.135C4.6697 187.802 3.43252 188.135 2.17923 188.093C5.41293 189.343 8.97485 189.459 12.2831 188.423C15.5914 187.387 18.4506 185.259 20.3935 182.388C22.3751 179.286 23.2364 175.409 25.9321 172.902C29.5022 169.582 35.3991 169.839 39.5167 172.45C43.6343 175.061 46.2391 179.507 48.0309 184.041C50.3789 189.983 51.8816 196.773 56.8839 200.748C59.3026 202.67 62.3657 203.751 64.5036 205.981C67.5481 209.157 68.0748 213.95 68.0062 218.349C67.9375 222.748 67.4637 227.312 69.0662 231.409C70.6686 235.506 75.2624 238.876 79.3819 237.332C78.2018 240.833 78.238 244.63 79.4846 248.108C80.7312 251.587 83.1153 254.542 86.2508 256.497C85.5003 251.842 84.7498 247.187 83.9993 242.532C87.7399 243.585 90.1643 247.213 91.5645 250.838C92.9647 254.463 93.7045 258.383 95.734 261.697C98.9299 266.915 104.717 269.164 110.605 269.144C116.965 269.123 119.379 266.09 123.57 261.624C124.412 260.863 125.052 259.903 125.43 258.832C125.601 258.293 125.572 257.709 125.347 257.19C125.122 256.67 124.717 256.249 124.207 256.004V256.004Z" fill="black"/>
<path d="M142.215 255.773C138.66 255.214 135.106 254.655 131.551 254.096C133.414 255.217 135.278 256.337 137.141 257.457C138.695 258.492 140.385 259.306 142.162 259.876C143.054 260.157 143.993 260.251 144.922 260.153C145.851 260.055 146.751 259.767 147.564 259.308L147.109 258.438C146.392 256.625 144.141 256.075 142.215 255.773Z" fill="black"/>
<path d="M139.8 275.532L139.825 275.471C139.61 275.114 139.293 274.83 138.915 274.655C138.537 274.48 138.116 274.422 137.705 274.488C136.886 274.635 136.049 274.648 135.226 274.529C134.703 274.324 134.236 273.998 133.866 273.576C133.495 273.154 133.23 272.65 133.094 272.106C132.741 271.043 132.636 269.905 132.234 268.86C131.943 268.033 131.43 267.302 130.751 266.748C130.071 266.194 129.252 265.838 128.384 265.719C127.512 265.649 126.648 265.925 125.979 266.487C125.309 267.049 124.887 267.852 124.805 268.723C124.874 269.619 125.158 270.485 125.635 271.247C126.018 271.985 126.402 272.722 126.785 273.46C127.109 274.121 127.48 274.757 127.897 275.363C128.576 276.298 129.464 277.062 130.489 277.594C131.515 278.126 132.651 278.412 133.806 278.429C134.962 278.445 136.105 278.192 137.145 277.689C138.186 277.186 139.095 276.448 139.8 275.532V275.532Z" fill="black"/>
<path d="M119.039 86.3576C121.746 87.9534 125.135 89.0533 126.421 91.9203L127.163 92.16C126.354 93.1656 125.545 94.1713 124.735 95.177C123.735 96.4198 122.684 97.8045 122.707 99.3996C122.739 101.596 124.852 103.254 126.987 103.772C129.266 104.24 131.637 103.846 133.641 102.665C135.645 101.484 137.139 99.6 137.832 97.3795C138.086 96.4534 138.191 95.4929 138.414 94.5589C139.063 92.3436 140.042 90.239 141.319 88.3161C148.507 76.2234 155.695 64.1308 162.883 52.0381C163.778 50.5321 164.701 48.7306 164.028 47.1131C163.669 46.429 163.113 45.8681 162.432 45.5027C161.751 45.1373 160.976 44.9842 160.208 45.063C158.674 45.2493 157.194 45.747 155.859 46.5256C155.266 45.4839 154.429 44.6016 153.42 43.9547C152.411 43.3077 151.259 42.9153 150.065 42.8113C147.677 42.627 145.276 42.8362 142.955 43.4305C137.714 44.2214 132.66 45.9577 128.039 48.5549C125.511 49.8329 122.729 51.4112 121.995 54.1473C121.093 57.5129 124 60.943 127.348 61.9102C130.695 62.8775 134.269 62.0652 137.657 61.251C138.039 62.8934 137.88 64.6157 137.202 66.1597C136.523 67.7038 135.363 68.9864 133.894 69.8154C132.426 70.6444 130.728 70.9751 129.056 70.758C127.383 70.5409 125.826 69.7876 124.618 68.611C122.189 66.2463 121 62.1413 117.666 61.531C114.342 60.9226 111.7 64.4676 110.967 67.766C110.249 71.3185 110.638 75.0056 112.082 78.33C113.525 81.6545 115.953 84.4563 119.039 86.3576Z" fill="black"/>
<path d="M160.727 144.546C159.126 140.034 157.023 135.717 154.456 131.676C152.51 128.482 150.109 125.588 147.327 123.086C144.786 120.891 141.864 119.18 138.706 118.036C135.641 116.928 132.229 116.38 129.13 117.391C126.031 118.401 123.395 121.282 123.458 124.541C123.527 128.144 126.68 130.962 129.966 132.443C133.251 133.923 136.906 134.568 140.006 136.406C142.114 137.684 143.875 139.46 145.135 141.579C146.396 143.697 147.116 146.093 147.234 148.555L148.015 149.846C146.246 150.432 144.597 151.33 143.144 152.498C142.425 153.091 141.876 153.864 141.551 154.738C141.226 155.612 141.138 156.556 141.295 157.475C141.836 159.657 144.064 160.909 146.079 161.907C149.801 163.751 153.523 165.594 157.246 167.438C155.351 161.786 161.556 156.527 161.899 150.576C161.912 148.508 161.514 146.458 160.727 144.546V144.546Z" fill="black"/>
<path d="M67.1296 129.287C69.3876 131.04 72.8594 130.22 74.928 128.246C76.9966 126.273 78.0041 123.465 78.9437 120.764C78.6006 123.437 78.6331 126.145 79.0403 128.808C79.2523 130.14 79.7386 131.414 80.4683 132.548C81.1981 133.682 82.1553 134.653 83.2795 135.398C84.3002 135.958 85.4006 136.358 86.5423 136.586C91.8501 137.794 97.3972 137.397 102.479 135.447L102.525 133.709C99.9718 134 98.0398 131.2 97.8713 128.636C97.7027 126.072 98.6333 123.558 98.7151 120.989C98.7969 118.421 97.5591 115.42 95.0304 114.963C95.473 115.852 95.6344 116.855 95.4931 117.837C95.3518 118.82 94.9146 119.737 94.2396 120.465C93.5646 121.193 92.6839 121.699 91.7145 121.914C90.7452 122.129 89.7333 122.044 88.8134 121.67C85.8865 120.48 84.8232 116.915 82.5613 114.709C81.1637 113.465 79.4298 112.663 77.5775 112.403C75.7253 112.142 73.8373 112.435 72.151 113.244C70.4861 114.094 69.0255 115.295 67.8702 116.764C66.7148 118.233 65.8923 119.936 65.4593 121.754C64.7724 124.392 64.9762 127.614 67.1296 129.287Z" fill="black"/>
<path d="M136.819 110.986L136.924 110.816C136.293 108.996 134.339 107.929 132.432 107.658C130.509 107.531 128.579 107.595 126.669 107.848C124.741 108.098 122.787 107.667 121.142 106.631C119.83 105.65 119.082 104.105 118.032 102.846C116.983 101.587 115.284 100.552 113.759 101.154C112.109 101.806 111.668 104.119 112.469 105.703C113.413 107.223 114.837 108.384 116.515 109.004C122.869 111.921 130.02 112.619 136.819 110.986V110.986Z" fill="black"/>
<path d="M115.127 116.443C114.599 116.829 114.241 117.405 114.128 118.05C114.015 118.694 114.156 119.358 114.521 119.901C114.886 120.444 115.446 120.825 116.086 120.964C116.725 121.104 117.394 120.99 117.951 120.648L118.508 121.198C119.249 119.871 119.554 118.095 118.607 116.907C118.186 116.415 117.598 116.095 116.956 116.009C116.314 115.924 115.663 116.078 115.127 116.443V116.443Z" fill="black"/>
<path d="M108.611 121.201C108.619 120.727 108.483 120.262 108.222 119.866C107.961 119.471 107.586 119.164 107.147 118.986C106.848 118.934 106.542 118.944 106.246 119.014C105.951 119.084 105.674 119.214 105.43 119.394C105.186 119.574 104.981 119.802 104.828 120.064C104.675 120.326 104.576 120.616 104.537 120.916C104.491 121.529 104.572 122.145 104.774 122.726C104.976 123.306 105.295 123.839 105.712 124.291C105.954 124.655 106.271 124.963 106.641 125.196C107.012 125.428 107.427 125.58 107.86 125.64C108.733 125.669 109.622 124.756 109.269 123.958L107.936 123.932C108.347 123.078 108.576 122.148 108.611 121.201V121.201Z" fill="black"/>
<path d="M82.5515 107.554C83.0409 107.95 83.5303 108.347 84.0197 108.744C84.8674 109.476 85.7831 110.127 86.7544 110.685C88.4533 111.626 90.4512 111.871 92.3269 111.367C93.253 111.103 94.0976 110.61 94.783 109.934C95.4685 109.258 95.9726 108.42 96.2489 107.497C96.8341 105.292 95.8796 103.003 94.9455 100.922C94.7323 100.326 94.3805 99.7899 93.9193 99.357C93.6829 99.1477 93.3814 99.0266 93.066 99.0142C92.7505 99.0018 92.4405 99.0989 92.1884 99.289C92.0057 99.5167 91.8841 99.7872 91.8353 100.075C91.7866 100.363 91.8122 100.658 91.9098 100.934C92.1106 101.482 92.2024 102.064 92.18 102.647C92.0869 103.223 91.4829 103.767 90.9508 103.529L90.866 105.488C88.325 104.202 86.9812 100.78 84.1533 100.443C83.5187 100.367 82.8754 100.467 82.2937 100.732C81.7119 100.997 81.2141 101.416 80.8545 101.945C80.495 102.473 80.2874 103.09 80.2545 103.729C80.2216 104.367 80.3647 105.002 80.668 105.565C81.159 106.345 81.799 107.021 82.5515 107.554V107.554Z" fill="black"/>
<path d="M76.4995 99.0967C77.0873 98.6937 77.5523 98.1361 77.8434 97.4856C78.1345 96.8351 78.2404 96.1168 78.1492 95.41C78.0788 95.0677 77.9339 94.745 77.7247 94.465C77.5156 94.185 77.2472 93.9546 76.9389 93.79C76.6306 93.6255 76.2897 93.5309 75.9407 93.513C75.5917 93.495 75.243 93.5543 74.9194 93.6864C74.1934 94.2292 73.6834 95.0118 73.4801 95.8952C72.8104 97.7842 72.1407 99.6733 71.471 101.562L72.5965 100.743C73.9891 100.443 75.313 99.8849 76.4995 99.0967V99.0967Z" fill="black"/>
<path d="M89.5426 87.5036C89.7437 87.2501 89.8867 86.9555 89.9617 86.6407C90.0367 86.3258 90.0417 85.9984 89.9765 85.6814C89.9113 85.3644 89.7774 85.0655 89.5842 84.8059C89.391 84.5462 89.1433 84.332 88.8584 84.1784L87.4511 84.0469C87.1311 84.1279 86.8345 84.2828 86.5852 84.4991C86.3359 84.7154 86.1408 84.9872 86.0155 85.2926C85.8902 85.598 85.8382 85.9285 85.8637 86.2576C85.8892 86.5867 85.9915 86.9052 86.1624 87.1877C86.3333 87.4701 86.568 87.7085 86.8477 87.8838C87.1273 88.0592 87.4442 88.1665 87.7729 88.1972C88.1015 88.2279 88.4328 88.1812 88.7401 88.0608C89.0475 87.9403 89.3223 87.7495 89.5426 87.5036V87.5036Z" fill="black"/>
<path d="M102.49 89.676C103.804 90.3044 105.466 90.9031 106.609 90.0008C106.947 89.6945 107.199 89.3045 107.338 88.8699C107.478 88.4353 107.501 87.9717 107.404 87.5256C107.199 86.6356 106.803 85.801 106.243 85.0796C104.496 82.5711 102.276 80.4275 99.7076 78.7692L99.0726 79.5942C98.1857 81.8972 97.3294 84.5857 98.5664 86.7212C99.4005 88.1607 100.99 88.9579 102.49 89.676Z" fill="black"/>
<path d="M112.274 91.7256L114.73 92.8365C114.489 92.4168 114.122 92.0836 113.681 91.8842C113.241 91.6848 112.748 91.6293 112.274 91.7256Z" fill="black"/>
<path d="M105.656 99.4525L104.496 99.8348C103.509 101.456 103.937 103.53 104.396 105.372C104.686 106.536 105.312 107.969 106.511 107.916C107.677 107.864 108.193 106.45 108.417 105.304C108.767 104.059 108.805 102.747 108.528 101.484C108.37 100.859 107.993 100.311 107.467 99.9382C106.94 99.5657 106.298 99.3935 105.656 99.4525V99.4525Z" fill="black"/>
<path d="M87.1502 93.9949L88.0089 94.3406C88.2102 94.3119 88.3964 94.2176 88.5387 94.0722C88.6809 93.9269 88.7713 93.7388 88.7958 93.5369C88.8202 93.335 88.7774 93.1307 88.6739 92.9556C88.5705 92.7806 88.4122 92.6445 88.2235 92.5685C88.0349 92.4926 87.8265 92.4809 87.6306 92.5355C87.4347 92.59 87.2622 92.7076 87.1399 92.8701C87.0177 93.0326 86.9524 93.2309 86.9543 93.4342C86.9561 93.6376 87.025 93.8346 87.1502 93.9949Z" fill="black"/>
<path d="M130.439 159.652C130.023 159.661 129.615 159.769 129.25 159.968C128.884 160.167 128.571 160.451 128.338 160.795C128.104 161.139 127.956 161.534 127.906 161.947C127.856 162.36 127.906 162.779 128.051 163.169C128.894 164.985 131.798 164.993 133.088 163.462C133.419 163.027 133.656 162.529 133.784 161.998C133.912 161.467 133.929 160.915 133.833 160.378C133.737 159.84 133.531 159.328 133.227 158.874C132.924 158.42 132.529 158.034 132.069 157.74L130.439 159.652Z" fill="black"/>
<path d="M172.264 202.663C171.927 202.753 171.61 202.909 171.335 203.124C171.059 203.338 170.829 203.605 170.658 203.91C170.487 204.215 170.379 204.551 170.34 204.898C170.302 205.245 170.333 205.596 170.432 205.931L172.843 206.099C173.659 205.689 174.476 205.279 175.292 204.869C175.243 204.523 175.125 204.191 174.945 203.892C174.765 203.592 174.527 203.332 174.244 203.126C173.962 202.921 173.641 202.774 173.301 202.694C172.961 202.614 172.608 202.604 172.264 202.663V202.663Z" fill="black"/>
<path d="M162.465 205.645C161.775 206.135 161.221 206.792 160.856 207.555C160.49 208.318 160.325 209.162 160.376 210.006C160.455 210.849 160.799 211.644 161.36 212.278C161.921 212.911 162.668 213.35 163.495 213.53C164.329 213.661 165.182 213.47 165.881 212.996C166.58 212.522 167.073 211.8 167.26 210.977C167.668 208.483 164.988 206.657 164.025 204.321L162.465 205.645Z" fill="black"/>
<path d="M256.1 189.176C256.355 191.048 254.668 192.688 254.606 194.576C254.531 196.816 256.97 198.559 259.201 198.34C260.308 198.148 261.355 197.702 262.261 197.036C263.167 196.371 263.906 195.505 264.42 194.506L264.468 194.296C263.382 193.068 262.295 191.839 261.209 190.611C259.874 189.103 258.46 187.386 258.512 185.373C258.538 184.381 258.929 183.419 258.907 182.427C258.855 181.713 258.695 181.011 258.434 180.344C258.14 179.466 257.74 178.477 256.862 178.181C255.764 177.81 254.656 178.783 254.132 179.817C253.66 180.77 253.431 181.825 253.464 182.888C253.498 183.952 253.793 184.99 254.323 185.912C254.958 186.99 255.932 187.937 256.1 189.176Z" fill="black"/>
<path d="M245.854 195.762C246.092 195.891 246.354 195.966 246.624 195.983C246.893 196.001 247.163 195.959 247.415 195.862C248.383 195.698 249.314 195.359 250.162 194.864C250.583 194.611 250.93 194.25 251.166 193.819C251.402 193.388 251.519 192.902 251.506 192.411C251.359 191.793 251.032 191.233 250.567 190.801C250.102 190.369 249.519 190.085 248.892 189.984C248.457 189.831 247.991 189.787 247.535 189.857C247.078 189.926 246.647 190.107 246.277 190.383C245.467 191.143 245.564 192.432 245.723 193.531L245.552 193.817C245.4 194.495 245.302 195.339 245.854 195.762Z" fill="black"/>
<path d="M416.88 275.765C416.645 275.181 416.41 274.596 416.175 274.012C415.852 274.806 415.972 275.618 416.88 275.765Z" fill="black"/>
<path d="M557.957 152.838C554.941 149.566 553.094 147.68 551.189 143.624C550.153 141.387 548.579 139.442 546.608 137.961C544.636 136.481 542.329 135.512 539.892 135.14C533.635 134.109 527.242 135.741 520.909 135.414C510.766 134.89 501.619 129.45 491.906 126.482C486.467 124.959 480.928 123.816 475.33 123.064C472.105 122.554 468.879 122.044 465.653 121.534C455.08 119.862 444.44 118.185 433.737 118.407C430.651 118.471 426.352 117.543 426.599 114.466C426.906 110.645 433.782 111.146 435.104 107.548C435.922 105.322 433.964 102.985 431.817 101.978C429.669 100.972 427.191 100.669 425.242 99.3176C423.293 97.9663 422.225 94.8336 424.016 93.2791C419.051 95.8243 414.087 98.3694 409.122 100.915C404.994 103.031 400.382 105.784 399.653 110.364C397.166 111.022 394.989 112.534 393.506 114.635C390.713 114.65 388.518 117.331 388.058 120.086C387.597 122.84 388.434 125.628 389.262 128.295C388.249 126.355 387.173 124.34 385.388 123.074C383.602 121.808 380.884 121.567 379.362 123.14C377.8 124.754 378.165 127.462 379.27 129.417C380.375 131.373 382.073 132.951 383.115 134.94C386.372 141.154 380.471 149.901 373.49 149.209C373.958 142.793 374.427 136.377 374.895 129.961C375.192 127.988 375.026 125.972 374.41 124.074C373.649 122.237 371.699 120.729 369.758 121.162C366.269 121.942 366.567 127.053 368.019 130.32C369.47 133.587 370.917 138.131 367.954 140.132C366.041 141.424 363.447 140.626 361.382 139.594C359.316 138.563 357.106 137.292 354.849 137.774C352.591 138.256 351.171 141.707 353.166 142.869C349.858 142.294 346.549 141.72 343.241 141.145C343.077 142.118 342.711 143.047 342.166 143.87C341.621 144.694 340.909 145.394 340.076 145.925C339.244 146.456 338.309 146.807 337.333 146.954C336.356 147.101 335.36 147.042 334.408 146.78C334.083 145.435 333.758 144.089 333.433 142.743C332.949 142.608 332.465 142.473 331.981 142.338C333.501 142.761 331.123 149.17 328.992 154.065C326.126 153.729 321.939 153.665 321.461 152.844C319.173 148.912 319.444 139.546 315.469 137.334C313.476 136.225 311.431 135.214 309.336 134.301C308.236 133.778 307.073 133.396 305.876 133.165C303.435 132.781 300.974 133.538 298.618 134.286C295.834 135.17 292.986 136.087 290.681 137.881C288.713 139.588 287.026 141.594 285.682 143.826C281.132 150.561 276.581 157.296 272.03 164.03C270.675 165.829 269.608 167.828 268.869 169.956C268.52 171.013 268.404 172.134 268.529 173.241C268.653 174.348 269.015 175.415 269.589 176.369C270.194 177.304 271.097 178.009 272.151 178.369C273.205 178.73 274.35 178.725 275.401 178.355C276.72 177.784 278.041 176.49 279.348 177.088C280.338 177.54 280.586 178.841 280.482 179.925C280.23 180.986 280.21 182.088 280.424 183.157C281.019 184.844 283.308 185.431 284.941 184.701C286.528 183.835 287.718 182.387 288.259 180.661C289.832 176.626 289.672 172.162 290.063 167.849C290.455 163.536 291.634 158.923 295.034 156.241C296.052 155.439 297.548 154.86 298.595 155.623C298.988 155.98 299.259 156.45 299.371 156.968C299.483 157.486 299.431 158.026 299.221 158.513C298.783 159.477 298.212 160.374 297.524 161.179C296.363 162.813 295.55 164.669 295.136 166.632C294.722 168.594 294.717 170.62 295.121 172.585L295.815 173.015C298.467 172.327 302.015 173.558 305.535 174.739C302.98 175.499 300.73 177.046 299.107 179.161C295.038 184.869 292.093 190.272 284.044 190.204C282.135 190.188 280.242 189.81 278.332 189.806C276.405 189.687 274.506 190.319 273.035 191.57C271.587 192.988 271.14 195.146 269.902 196.749C268.273 198.857 265.551 199.715 263.066 200.672C261.249 201.372 259.334 202.316 258.499 204.075C257.974 205.517 257.853 207.075 258.149 208.581C258.429 211.245 258.924 214.274 261.184 215.712C262.029 216.152 262.953 216.421 263.903 216.501C264.852 216.582 265.808 216.472 266.715 216.18C269.066 215.608 271.364 214.531 273.778 214.692C277.567 214.945 280.688 218.582 280.726 222.38C280.746 224.302 280.185 226.507 281.459 227.947C282.656 229.3 285.031 229.059 286.272 227.745C286.848 227.047 287.245 226.217 287.427 225.33C287.609 224.443 287.572 223.524 287.317 222.655C286.79 220.923 285.98 219.291 284.919 217.824C286.18 217.498 287.516 217.618 288.699 218.165C289.881 218.711 290.838 219.651 291.406 220.823C292.248 222.693 291.976 224.851 292.244 226.884C292.513 228.917 293.751 231.177 295.798 231.294C296.468 231.313 297.122 231.097 297.649 230.683C298.176 230.27 298.542 229.685 298.683 229.03C298.704 227.998 298.648 226.966 298.514 225.943C298.584 224.936 299.037 223.993 299.78 223.309C300.522 222.625 301.498 222.251 302.508 222.263C301.885 223.414 301.683 224.746 301.935 226.03C302.187 227.314 302.878 228.47 303.889 229.301C305.448 230.506 307.507 230.776 309.448 231.113C311.389 231.45 313.46 231.983 314.712 233.503C316.799 236.036 314.246 237.177 313.848 239.322C313.361 241.955 315.56 245.843 316.405 248.363C320.287 253.794 324.169 259.225 328.052 264.656C328.918 265.977 329.941 267.188 331.096 268.265C334.929 271.557 341.247 271.232 344.922 267.766C346.704 265.963 347.861 263.637 348.223 261.128C348.585 258.619 348.134 256.06 346.935 253.827C344.664 249.692 340.163 247.132 337.941 242.971C341.64 246.033 346.181 247.901 350.964 248.327C359.426 250.046 367.466 253.418 374.624 258.249C374.96 265.727 377.829 272.869 382.76 278.5C383.647 272.119 386.622 266.21 391.221 261.698C394.212 258.781 398.299 256.429 402.403 257.214C406.506 257.998 409.619 263.231 407.137 266.591C409.217 266.746 411.297 266.901 413.376 267.055C414.309 269.374 415.242 271.693 416.175 274.012C416.34 273.525 416.658 273.103 417.081 272.81C417.504 272.516 418.01 272.366 418.525 272.381C420.472 272.675 421.837 274.486 423.689 275.155C427.18 276.416 430.912 272.923 431.363 269.239C431.815 265.555 430.062 261.998 428.359 258.7C432.121 259.397 436.003 258.982 439.532 257.505C443.061 256.029 446.083 253.556 448.228 250.389C450.373 247.221 451.548 243.497 451.609 239.673C451.67 235.848 450.615 232.088 448.572 228.854C452.619 224.603 457.382 221.097 462.643 218.495C467.512 216.089 472.838 214.438 477.093 211.064C481.348 207.69 484.332 201.831 482.286 196.801C480.84 193.248 477.213 190.836 476.128 187.156C474.557 181.83 479.329 176.32 484.721 174.989C490.113 173.659 495.743 175.294 501.054 176.917C500.238 171.452 506.573 166.329 511.746 168.27C513.913 167.392 516.08 166.515 518.247 165.637C515.735 171.175 510.292 174.698 506.29 179.277C502.288 183.855 499.905 191.31 504.085 195.725C510.078 190.294 516.07 184.863 522.062 179.432C528.33 173.751 534.598 168.07 540.866 162.389C540.566 161.509 540.267 160.63 539.968 159.751C545.898 157.499 552.285 155.636 557.957 152.838Z" fill="black"/>
<path d="M246.714 225.935C246.472 226.283 246.343 226.698 246.345 227.122C246.347 227.547 246.48 227.96 246.726 228.306C247.047 228.58 247.455 228.732 247.877 228.738C248.299 228.744 248.71 228.602 249.039 228.337C249.683 227.788 250.185 227.092 250.505 226.309C250.816 226.911 251.305 227.403 251.906 227.717C252.506 228.032 253.189 228.154 253.861 228.067C255.204 227.864 256.476 227.334 257.564 226.522C258.428 226.016 259.19 225.355 259.813 224.571C260.121 224.177 260.333 223.715 260.431 223.225C260.529 222.734 260.511 222.227 260.378 221.744C260.055 221.004 259.553 220.355 258.917 219.857C257.331 218.393 255.746 216.928 254.16 215.464L253.623 215.302C253.343 215.005 253.006 214.767 252.632 214.603C252.258 214.439 251.855 214.352 251.447 214.348C251.039 214.343 250.634 214.421 250.256 214.578C249.879 214.734 249.537 214.964 249.251 215.256C248.267 216.358 248.262 218.005 248.413 219.475C248.563 220.945 248.797 222.512 248.143 223.837C247.767 224.596 247.132 225.198 246.714 225.935Z" fill="black"/>
<path d="M338.709 275.965C332.547 274.593 326.907 271.486 322.455 267.011C318.002 262.536 314.924 256.88 313.584 250.711C313 247.8 312.735 244.619 310.798 242.369C308.924 240.19 305.86 239.404 302.986 239.404C300.112 239.404 297.278 240.066 294.409 240.245C289.393 240.557 284.079 239.232 280.492 235.712C278.793 234.045 277.507 231.928 275.524 230.613C272.858 228.846 269.323 228.848 266.285 229.849C262.901 230.964 260.193 234.016 256.493 233.596C252.645 233.159 248.186 231.799 246.677 236.865C246.243 238.324 246.391 239.924 245.841 241.344C244.993 243.531 242.743 244.764 240.963 246.292C237.377 249.37 235.471 254.045 234.829 258.727C234.187 263.408 234.684 268.162 235.181 272.862C235.449 275.396 235.802 278.124 237.543 279.985C239.97 282.58 244.042 282.48 247.583 282.187C251.697 281.848 255.81 281.508 259.924 281.168C262.141 280.985 264.668 280.908 266.247 282.476C267.193 283.415 267.593 284.774 268.425 285.816C269.172 286.703 270.197 287.31 271.333 287.539C272.47 287.769 273.65 287.606 274.682 287.078C273.848 288.568 273.394 290.241 273.36 291.949C273.326 293.656 273.714 295.346 274.489 296.867C275.264 298.389 276.402 299.697 277.802 300.674C279.203 301.651 280.823 302.268 282.519 302.469L282.836 302.669C280.202 307.179 277.47 312.243 278.562 317.35C279.498 321.729 283.125 325.24 283.718 329.678C284.262 333.751 282.137 337.915 283.077 341.915C284.029 345.965 288.12 348.789 292.269 349.09C296.419 349.392 300.496 347.551 303.71 344.909C306.924 342.267 309.41 338.865 311.859 335.502C313.371 333.425 314.922 331.263 315.441 328.747C315.993 326.07 315.353 323.103 316.655 320.7C318.156 317.927 321.72 316.888 323.519 314.299C325.848 310.947 324.476 306.381 324.991 302.332C326.265 292.31 338.999 286.064 338.709 275.965Z" fill="black"/>
<path d="M336.87 310.179C336.522 311.744 335.057 312.775 333.66 313.562C332.264 314.35 330.729 315.145 330.017 316.581C329.289 318.053 329.622 319.806 330.003 321.403C330.796 324.725 331.73 328.01 332.804 331.256C334.888 327.32 336.707 323.248 338.25 319.07C338.903 317.514 339.307 315.865 339.445 314.183C339.509 313.342 339.396 312.496 339.113 311.701C338.83 310.905 338.383 310.178 337.802 309.566L336.87 310.179Z" fill="black"/>
<path d="M422.56 292.749C420.81 290.729 419.06 288.71 417.311 286.69C416.114 285.308 414.75 283.833 412.937 283.603L412.19 284.079C413.707 287.692 415.224 291.304 416.741 294.916C417.279 296.566 418.224 298.053 419.49 299.239C420.848 300.306 423.05 300.511 424.182 299.207C424.547 298.718 424.778 298.142 424.85 297.536C424.922 296.93 424.834 296.316 424.594 295.755C424.1 294.64 423.411 293.622 422.56 292.749Z" fill="black"/>
<path d="M439.514 296.617C440.175 296.387 440.781 296.022 441.293 295.545C441.805 295.068 442.212 294.489 442.488 293.845C443.03 292.556 443.388 291.197 443.552 289.807C443.851 287.999 444.15 286.19 444.449 284.381L444.058 284.281C443.678 284.099 443.244 284.06 442.838 284.173C442.432 284.286 442.081 284.542 441.849 284.894C441.408 285.612 441.075 286.391 440.859 287.205C440.748 287.612 440.547 287.989 440.27 288.307C439.993 288.626 439.648 288.877 439.26 289.043C437.856 289.467 436.526 287.979 435.06 288.037C434.467 288.112 433.918 288.386 433.501 288.814C433.085 289.241 432.825 289.798 432.766 290.392C432.681 291.591 433.02 292.782 433.725 293.756C434.975 295.696 437.295 297.256 439.514 296.617Z" fill="black"/>
<path d="M449.188 300.046L453.22 289.426C451.587 290.611 450.335 292.247 449.618 294.134C448.902 296.021 448.752 298.076 449.188 300.046V300.046Z" fill="black"/>
<path d="M469.766 291.485L468.951 291.52C468.586 292.24 468.393 293.035 468.385 293.843C468.377 294.651 468.556 295.449 468.906 296.177C469.622 297.628 470.663 298.893 471.948 299.875C473.941 301.519 476.214 302.789 478.659 303.622C482.245 304.668 485.952 305.239 489.686 305.32C491.821 305.46 493.956 305.6 496.09 305.74C497.107 305.806 498.423 305.677 498.705 304.698C498.939 303.89 498.25 303.13 497.607 302.587C491.959 297.834 485.112 294.727 477.817 293.605C475.049 293.184 472.113 293.011 469.766 291.485Z" fill="black"/>
<path d="M492.552 319.67C491.017 318.181 489.481 316.692 487.946 315.204C486.453 313.756 484.216 312.222 482.505 313.404C481.522 314.083 481.219 315.409 480.385 316.265C479.877 316.72 479.264 317.041 478.601 317.199C477.938 317.357 477.246 317.347 476.588 317.169C475.277 316.801 474.037 316.213 472.922 315.432L469.112 313.068C467.798 312.252 466.483 311.437 465.169 310.621L462.202 313.504C462.331 312.085 460.44 311.163 459.13 311.724C458.508 312.073 457.972 312.558 457.563 313.143C457.154 313.728 456.882 314.397 456.767 315.102C456.549 316.51 456.169 317.888 455.633 319.209C454.127 322.092 450.47 322.946 447.253 323.429C444.036 323.912 440.391 324.592 438.669 327.353C437.235 329.652 437.664 332.604 438.144 335.271L439.957 345.361C440.042 346.583 440.533 347.742 441.35 348.655C442.943 350.061 445.411 349.206 447.355 348.349C451.419 346.394 455.78 345.13 460.259 344.609C464.777 344.103 469.325 345.268 473.044 347.883C475.35 349.639 477.108 352.069 479.551 353.628C481.233 354.641 483.125 355.255 485.081 355.426C487.038 355.597 489.007 355.319 490.84 354.614C494.513 353.151 497.553 350.44 499.426 346.957C501.088 343.886 501.922 340.435 501.846 336.944C501.77 333.453 500.787 330.042 498.992 327.046C497.16 324.33 494.996 321.852 492.552 319.67Z" fill="black"/>
<path d="M488.025 360.778C487.657 361.225 487.441 361.779 487.41 362.357C487.379 362.936 487.534 363.509 487.853 363.993C488.522 364.952 489.542 365.609 490.691 365.821C491.83 366.024 492.99 366.078 494.142 365.979L494.178 365.118C493.87 363.607 493.174 362.203 492.156 361.044C491.044 359.987 489.079 359.663 488.025 360.778Z" fill="black"/>
<path d="M527.557 361.699L527.007 361.497C525.697 363.472 524.387 365.446 523.078 367.42C522.373 368.483 521.637 369.759 522.067 370.959C522.576 372.379 524.458 372.796 525.919 372.42C527.034 372.117 528.04 371.503 528.818 370.648C529.597 369.794 530.115 368.735 530.313 367.597C530.474 366.452 530.3 365.286 529.811 364.239C529.321 363.192 528.539 362.309 527.557 361.699V361.699Z" fill="black"/>
<path d="M537.544 355.433L533.927 352.558C533.879 353.892 533.831 355.225 533.782 356.559L533.647 356.561C534.481 357.293 535.268 358.076 536.004 358.905C536.85 359.625 538.271 359.954 538.994 359.111C539.211 358.809 539.334 358.45 539.347 358.079C539.361 357.708 539.266 357.341 539.072 357.024C538.674 356.396 538.155 355.855 537.544 355.433Z" fill="black"/>
<path d="M472.209 230.353C470.692 230.306 469.012 230.214 467.836 231.174C467.45 231.52 467.11 231.915 466.827 232.35L466.413 232.931C465.792 233.743 465.251 234.613 464.797 235.529C464.56 235.958 464.418 236.433 464.38 236.922C464.342 237.411 464.409 237.902 464.577 238.363C464.675 238.583 464.819 238.779 465 238.937C465.182 239.095 465.396 239.212 465.627 239.278C465.858 239.345 466.101 239.359 466.339 239.321C466.577 239.284 466.803 239.194 467.002 239.059C467.651 238.458 467.5 237.368 467.99 236.633C468.206 236.356 468.483 236.133 468.8 235.981C469.117 235.83 469.465 235.754 469.816 235.76C470.516 235.777 471.214 235.856 471.901 235.995C473.803 236.256 475.74 235.967 477.484 235.162C479.227 234.357 480.703 233.07 481.739 231.452C482.774 229.835 483.325 227.956 483.326 226.036C483.327 224.116 482.779 222.235 481.746 220.617L481.624 220.244C480.573 220.204 479.542 220.533 478.709 221.175C477.876 221.817 477.295 222.731 477.066 223.757C476.727 225.525 477.446 227.579 476.375 229.026C475.471 230.245 473.727 230.401 472.209 230.353Z" fill="black"/>
<path d="M485.793 211.609L485.562 211.589C484.205 211.837 482.902 212.322 481.714 213.023C481.324 213.204 481.012 213.519 480.837 213.912C480.785 214.12 480.786 214.338 480.84 214.546C480.893 214.754 480.997 214.945 481.143 215.102C481.438 215.414 481.783 215.673 482.164 215.87C482.731 216.249 483.358 216.529 484.018 216.7C484.349 216.782 484.696 216.78 485.026 216.694C485.357 216.609 485.661 216.443 485.911 216.211C486.146 215.888 486.307 215.518 486.384 215.126C486.461 214.735 486.451 214.331 486.355 213.944C486.247 213.149 486.059 212.366 485.793 211.609Z" fill="black"/>
<path d="M462.404 230.804C462.767 230.223 463.025 229.582 463.165 228.912C463.307 228.391 463.449 227.871 463.59 227.35L462.077 226.431C461.355 226.807 460.689 227.282 460.097 227.843C459.803 228.125 459.571 228.465 459.414 228.842C459.258 229.218 459.181 229.623 459.189 230.031C459.21 230.438 459.368 230.826 459.637 231.132C459.907 231.438 460.272 231.644 460.674 231.716C461.016 231.726 461.356 231.648 461.659 231.488C461.962 231.328 462.219 231.092 462.404 230.804V230.804Z" fill="black"/>
<path d="M297.619 90.1398C297.02 90.5127 297.189 91.414 297.432 92.0758C297.711 92.8356 297.989 93.5953 298.268 94.3551L298.658 92.8802C299 92.3082 299.151 91.6419 299.089 90.9782C298.954 90.3299 298.18 89.7896 297.619 90.1398Z" fill="black"/>
<path d="M89.9568 226.559C93.2705 226.559 95.9568 223.873 95.9568 220.559C95.9568 217.245 93.2705 214.559 89.9568 214.559C86.643 214.559 83.9568 217.245 83.9568 220.559C83.9568 223.873 86.643 226.559 89.9568 226.559Z" fill="#FF7DD8"/>
<path d="M105.957 197.559C109.27 197.559 111.957 194.873 111.957 191.559C111.957 188.245 109.27 185.559 105.957 185.559C102.643 185.559 99.9568 188.245 99.9568 191.559C99.9568 194.873 102.643 197.559 105.957 197.559Z" fill="#FF7DD8"/>
<path d="M281.957 174.559C285.27 174.559 287.957 171.873 287.957 168.559C287.957 165.245 285.27 162.559 281.957 162.559C278.643 162.559 275.957 165.245 275.957 168.559C275.957 171.873 278.643 174.559 281.957 174.559Z" fill="#FF7DD8"/>
<path d="M144.231 599.467L153.281 599.466L157.586 564.559L144.229 564.56L144.231 599.467Z" fill="#FFB6B6"/>
<path d="M143.912 608.907L171.742 608.906V608.555C171.742 605.682 170.6 602.927 168.569 600.895C166.538 598.864 163.783 597.723 160.91 597.723H160.909L155.826 593.866L146.341 597.723L143.912 597.723L143.912 608.907Z" fill="#2F2E41"/>
<path d="M212.231 599.467L221.281 599.466L225.586 564.559L212.229 564.56L212.231 599.467Z" fill="#FFB6B6"/>
<path d="M211.912 608.907L239.742 608.906V608.555C239.742 605.682 238.6 602.927 236.569 600.895C234.538 598.864 231.783 597.723 228.91 597.723H228.909L223.826 593.866L214.341 597.723L211.912 597.723L211.912 608.907Z" fill="#2F2E41"/>
<path d="M143.879 315.506L159.94 313.205C165.372 322.288 167.302 346.464 167.302 346.464L183.02 383.822C184.061 384.529 184.897 385.498 185.445 386.631C185.992 387.764 186.232 389.021 186.139 390.276C186.046 391.531 185.624 392.739 184.916 393.779C184.208 394.82 183.238 395.655 182.104 396.201C180.971 396.747 179.713 396.985 178.458 396.891C177.203 396.796 175.996 396.373 174.956 395.664C173.917 394.954 173.083 393.983 172.538 392.849C171.993 391.715 171.757 390.457 171.853 389.202L146.046 345.718L143.879 315.506Z" fill="#FFB6B6"/>
<path d="M152.584 270.918C150.098 271.303 147.728 272.231 145.641 273.636C143.555 275.041 141.804 276.889 140.513 279.048C139.221 281.207 138.422 283.624 138.171 286.127C137.92 288.63 138.224 291.157 139.061 293.53L142.469 303.19C142.469 303.19 138.176 332.277 145.251 340.488L166.963 338.522C166.963 338.522 162.993 323.847 166.041 316.747C167.907 312.399 167.803 297.38 165.964 285.163C164.56 275.834 161.907 269.474 152.584 270.918Z" fill="#FF7DD8"/>
<path d="M227.457 358.559C227.457 358.559 244.192 374.88 240.618 378.649C237.044 382.419 228.869 387.699 236.457 388.559C244.044 389.419 247.192 391.283 240.618 392.851C234.044 394.419 235.06 398.445 235.06 398.445C235.06 398.445 244.957 445.559 237.457 476.559C237.457 476.559 233.283 561.231 230.663 567.825C228.044 574.419 227.044 570.419 228.044 574.419C229.044 578.419 231.044 571.419 229.044 578.419C227.953 582.075 227.089 585.796 226.457 589.559L206.894 586.559C206.894 586.559 203.745 576.632 206.894 574.025C210.044 571.419 212.869 573.025 209.457 567.222C206.044 561.419 205.044 569.419 206.044 561.419C207.044 553.419 202.869 510.151 209.457 487.285L197.283 423.122L177.957 489.559C177.957 489.559 167.705 570.699 164.375 573.559C161.044 576.419 156.044 571.419 161.044 576.419C166.044 581.419 165.957 580.559 166.044 581.419C166.975 590.591 138.346 580.559 138.346 580.559C138.505 578.228 138.505 575.89 138.346 573.559C138.044 571.419 141.647 570.734 138.346 568.577C135.044 566.419 139.957 568.559 139.957 568.559C139.957 568.559 147.34 508.699 152.957 490.559L159.457 402.222C159.457 402.222 159.869 403.985 159.457 399.702C159.044 395.419 156.044 398.419 159.044 395.419C162.044 392.419 164.044 390.89 162.044 388.655C160.044 386.419 154.527 381.896 157.785 379.157C161.044 376.419 167.457 358.559 167.457 358.559L229.957 359.059" fill="#2F2E41"/>
<path d="M203.958 259.385L192.688 246.696L174.881 248.675L163.481 264.629C157.412 266.025 152.109 269.692 148.663 274.878C145.216 280.064 143.889 286.374 144.953 292.509C149.377 317.984 164.412 342.692 159.447 355.261C151.911 374.341 151.451 382.123 169.49 379.448C187.53 376.773 247.964 370.606 236.247 358.889C224.53 347.172 221.957 327.593 221.957 327.593L221.487 282.798C221.985 280.097 221.919 277.321 221.292 274.646C220.665 271.972 219.492 269.456 217.845 267.256C216.199 265.057 214.115 263.223 211.725 261.868C209.335 260.513 206.69 259.668 203.958 259.385V259.385Z" fill="#FF7DD8"/>
<path d="M200.879 308.506L216.94 306.205C222.372 315.288 224.302 339.464 224.302 339.464L240.02 376.822C241.061 377.529 241.897 378.498 242.445 379.631C242.992 380.764 243.232 382.021 243.139 383.276C243.046 384.531 242.624 385.739 241.916 386.779C241.208 387.82 240.238 388.655 239.104 389.201C237.971 389.747 236.713 389.985 235.458 389.891C234.203 389.796 232.996 389.373 231.956 388.664C230.917 387.954 230.083 386.983 229.538 385.849C228.993 384.715 228.757 383.457 228.853 382.202L203.046 338.718L200.879 308.506Z" fill="#FFB6B6"/>
<path d="M209.584 261.918C207.098 262.303 204.728 263.231 202.641 264.636C200.555 266.041 198.804 267.889 197.513 270.048C196.221 272.207 195.422 274.624 195.171 277.127C194.92 279.63 195.224 282.157 196.061 284.53L199.469 294.19C199.469 294.19 195.176 323.277 202.251 331.488L223.963 329.522C223.963 329.522 219.993 314.847 223.041 307.747C224.907 303.399 224.803 288.38 222.964 276.163C221.56 266.834 218.907 260.474 209.584 261.918Z" fill="#FF7DD8"/>
<path d="M178.888 245.603C190.775 245.603 200.411 235.967 200.411 224.08C200.411 212.193 190.775 202.557 178.888 202.557C167.001 202.557 157.365 212.193 157.365 224.08C157.365 235.967 167.001 245.603 178.888 245.603Z" fill="#FFB6B6"/>
<path d="M174.93 245.149C180.924 243.648 181.128 241.935 187.123 240.433C189.031 239.955 191.243 239.201 191.809 237.317C191.943 236.628 191.915 235.916 191.728 235.24C191.541 234.563 191.2 233.938 190.731 233.416C189.786 232.382 188.901 231.294 188.081 230.159C187.537 229.247 187.224 228.217 187.167 227.157C187.111 226.097 187.314 225.039 187.758 224.075C188.202 223.111 188.875 222.27 189.717 221.624C190.56 220.978 191.546 220.546 192.593 220.367C194.447 220.05 196.359 220.541 198.225 220.304C200.785 219.978 204.549 210.482 202.909 208.491C201.311 206.552 198.69 205.396 197.809 203.044C197.233 201.506 197.548 199.785 197.291 198.163C196.911 195.757 192.043 202.418 192.691 200.07C194.28 194.311 167.387 193.404 164.587 200.793C163.541 203.554 160.708 203.993 158.529 205.986C157.101 207.293 153.686 211.473 153.19 213.726C152.78 216.004 152.859 218.344 153.422 220.589C155.656 231.115 159.347 240.444 169.173 244.829" fill="#2F2E41"/>
</g>
<defs>
<clipPath id="clip0_1_2">
<rect width="698.284" height="608.579" fill="white"/>
</clipPath>
</defs>
</svg>
