<svg width="559" height="580" viewBox="0 0 559 580" fill="none" xmlns="http://www.w3.org/2000/svg">
<g clip-path="url(#clip0_0_1)">
<path d="M326.789 571.276C327.038 571.287 327.285 571.222 327.496 571.088C327.706 570.955 327.871 570.76 327.967 570.53C328.063 570.3 328.087 570.045 328.034 569.802C327.98 569.558 327.854 569.337 327.671 569.167L327.587 568.836L327.62 568.756C327.871 568.163 328.292 567.658 328.829 567.303C329.367 566.949 329.997 566.761 330.641 566.763C331.284 566.766 331.913 566.958 332.448 567.317C332.983 567.675 333.399 568.184 333.646 568.779C334.632 571.152 335.886 573.53 336.195 576.04C336.331 577.149 336.274 578.273 336.026 579.363C338.34 574.314 339.542 568.826 339.55 563.272C339.55 561.878 339.473 560.485 339.318 559.1C339.19 557.964 339.012 556.837 338.785 555.717C337.544 549.644 334.88 543.951 331.012 539.106C329.14 538.085 327.626 536.514 326.675 534.606C326.33 533.92 326.086 533.187 325.951 532.432C326.361 531.349 326.577 530.203 326.588 529.046C326.882 528.599 327.409 528.377 327.73 527.941C329.329 525.774 331.531 526.152 332.681 529.098C335.137 530.337 335.161 532.393 333.654 534.37C332.695 535.628 332.563 537.33 331.722 538.677C331.809 538.788 331.899 538.895 331.985 539.006C333.567 541.04 334.946 543.225 336.102 545.529C335.821 542.948 336.157 540.338 337.081 537.912C338.018 535.651 339.775 533.748 341.322 531.793C341.731 531.268 342.286 530.877 342.918 530.667C343.55 530.458 344.229 530.441 344.871 530.617C345.513 530.794 346.087 531.158 346.523 531.661C346.958 532.164 347.234 532.786 347.316 533.446L347.326 533.533C347.096 533.662 346.871 533.8 346.651 533.945C346.375 534.13 346.16 534.394 346.037 534.702C345.913 535.011 345.885 535.349 345.957 535.674C346.029 535.999 346.197 536.294 346.44 536.521C346.682 536.748 346.988 536.897 347.316 536.948L347.35 536.953C347.268 537.781 347.123 538.602 346.917 539.408C348.901 547.081 344.618 549.876 338.501 550.001C338.366 550.071 338.234 550.14 338.099 550.206C339.261 553.497 339.989 556.926 340.267 560.405C340.423 562.458 340.414 564.52 340.239 566.571L340.249 566.498C340.692 564.217 341.909 562.159 343.694 560.672C346.345 558.494 350.09 557.692 352.95 555.942C353.254 555.746 353.607 555.642 353.969 555.641C354.33 555.641 354.684 555.743 354.988 555.937C355.293 556.13 355.537 556.407 355.689 556.734C355.842 557.062 355.898 557.426 355.85 557.784L355.839 557.86C355.413 558.034 354.997 558.234 354.596 558.459C354.366 558.589 354.141 558.726 353.921 558.872C353.645 559.057 353.431 559.32 353.307 559.629C353.183 559.937 353.155 560.276 353.227 560.601C353.299 560.925 353.467 561.221 353.71 561.448C353.952 561.675 354.258 561.824 354.587 561.875L354.62 561.88L354.689 561.89C353.961 563.629 352.939 565.23 351.667 566.623C350.426 573.321 345.098 573.957 339.398 572.006H339.394C338.769 574.724 337.863 577.369 336.69 579.9H327.031C326.997 579.792 326.965 579.682 326.934 579.574C327.828 579.63 328.726 579.577 329.607 579.415C328.89 578.536 328.174 577.649 327.457 576.77C327.441 576.754 327.426 576.736 327.412 576.718C327.048 576.268 326.681 575.821 326.318 575.371L326.318 575.371C326.298 573.991 326.457 572.615 326.789 571.276L326.789 571.276Z" fill="black"/>
<path d="M86.1243 571.276C85.8752 571.287 85.6286 571.222 85.4178 571.088C85.2071 570.955 85.0425 570.76 84.9463 570.53C84.8501 570.3 84.8269 570.045 84.8799 569.802C84.933 569.558 85.0596 569.337 85.2428 569.167L85.3261 568.836L85.293 568.756C85.042 568.163 84.6214 567.658 84.0841 567.303C83.5467 566.949 82.9166 566.761 82.2728 566.763C81.629 566.766 81.0003 566.958 80.4656 567.317C79.9309 567.675 79.5141 568.184 79.2675 568.779C78.282 571.152 77.0272 573.53 76.7183 576.04C76.5822 577.149 76.6396 578.273 76.8879 579.363C74.5732 574.314 73.3713 568.826 73.3636 563.272C73.3631 561.878 73.4405 560.485 73.5956 559.1C73.7237 557.964 73.9014 556.837 74.1287 555.717C75.3694 549.644 78.033 543.951 81.901 539.106C83.7731 538.085 85.2871 536.514 86.2389 534.606C86.5838 533.92 86.8275 533.187 86.9625 532.432C86.5523 531.349 86.3366 530.203 86.3255 529.046C86.0312 528.599 85.5045 528.377 85.183 527.941C83.5845 525.774 81.382 526.152 80.2323 529.098C77.7761 530.337 77.7524 532.393 79.2594 534.37C80.2183 535.628 80.35 537.33 81.1913 538.677C81.1047 538.788 81.0147 538.895 80.9282 539.006C79.346 541.04 77.967 543.225 76.811 545.529C77.0921 542.948 76.7566 540.338 75.832 537.912C74.895 535.651 73.1386 533.748 71.5919 531.793C71.1828 531.268 70.6273 530.877 69.9955 530.667C69.3637 530.458 68.6841 530.441 68.0425 530.618C67.4009 530.794 66.8262 531.158 66.3909 531.661C65.9556 532.164 65.6794 532.786 65.5971 533.446L65.5878 533.533C65.8175 533.662 66.0424 533.8 66.2625 533.945C66.5389 534.13 66.753 534.394 66.8769 534.702C67.0008 535.011 67.0286 535.349 66.9567 535.674C66.8848 535.999 66.7165 536.294 66.4739 536.521C66.2313 536.748 65.9258 536.897 65.5972 536.948L65.5636 536.953C65.6455 537.781 65.7901 538.602 65.9964 539.408C64.0121 547.081 68.2959 549.876 74.4126 550.001C74.5476 550.071 74.6792 550.14 74.8142 550.206C73.6527 553.497 72.9242 556.926 72.647 560.405C72.49 562.458 72.4992 564.52 72.6746 566.571L72.6643 566.498C72.2211 564.217 71.0043 562.159 69.2195 560.672C66.5686 558.494 62.8233 557.692 59.9635 555.942C59.6596 555.746 59.3061 555.642 58.945 555.641C58.5838 555.641 58.2299 555.743 57.925 555.937C57.6201 556.13 57.377 556.407 57.2243 556.734C57.0715 557.062 57.0156 557.426 57.063 557.784L57.0747 557.86C57.501 558.034 57.9161 558.234 58.3176 558.459C58.5473 558.589 58.7722 558.726 58.9922 558.872C59.2686 559.057 59.4828 559.32 59.6067 559.629C59.7306 559.937 59.7584 560.276 59.6864 560.601C59.6145 560.925 59.4463 561.221 59.2037 561.448C58.9611 561.675 58.6555 561.824 58.327 561.875L58.2933 561.88L58.2241 561.89C58.9525 563.629 59.9749 565.23 61.2464 566.623C62.4871 573.321 67.8159 573.957 73.5159 572.006H73.5194C74.1448 574.724 75.051 577.369 76.2233 579.9H85.8824C85.917 579.792 85.9482 579.682 85.9794 579.574C85.0853 579.63 84.1877 579.577 83.3067 579.415C84.0233 578.536 84.7399 577.649 85.4566 576.77C85.4726 576.754 85.4876 576.736 85.5016 576.718C85.8651 576.268 86.2321 575.821 86.5956 575.371L86.5958 575.371C86.6152 573.991 86.4569 572.615 86.1248 571.276L86.1243 571.276Z" fill="black"/>
<path d="M232.106 50.2674C234.061 46.3329 237.184 43.0662 239.095 39.1103C241.005 35.1544 241.377 29.8598 238.194 26.8319C235.491 24.2609 231.258 24.2249 228.026 22.3626C219.791 17.6182 219.801 2.54891 210.387 1.24684C205.81 0.613667 201.668 4.04653 198.901 7.74784C196.134 11.4492 193.93 15.7682 190.093 18.3434C185.749 21.2585 180.134 21.3852 175.31 23.41C166.062 27.2921 161.214 37.2745 157.16 46.4484C154.548 52.3583 151.877 58.7325 153.089 65.0791C150.455 66.7179 151.629 71.1258 154.258 72.7723C156.887 74.4187 160.188 74.3821 163.207 75.0953C169.552 76.5942 174.748 81.645 177.211 87.6814C179.13 92.3863 179.523 97.5521 179.893 102.62C180.536 111.414 181.179 120.208 181.821 129.002C182.107 132.914 182.482 137.072 184.864 140.189C187.245 143.306 192.402 144.613 195.079 141.745C197.637 139.005 196.485 134.667 196.433 130.918C196.382 127.169 199.77 122.502 202.965 124.463L204.092 121.906C211.39 119.293 217.781 114.632 222.499 108.481C227.217 102.33 230.062 94.9502 230.695 87.2242C231.511 74.7799 226.559 61.4367 232.106 50.2674Z" fill="black"/>
<path d="M239.564 129.179C240.269 128.515 240.769 127.663 241.006 126.723C241.242 125.784 241.205 124.797 240.899 123.878C240.593 122.959 240.03 122.146 239.277 121.537C238.525 120.927 237.613 120.545 236.651 120.437L236.663 120.859C235.289 121.661 233.723 122.073 232.132 122.05C230.547 122.025 228.97 122.274 227.471 122.788C226.725 123.059 226.079 123.55 225.618 124.195C225.156 124.84 224.901 125.61 224.885 126.403C224.973 127.011 225.205 127.589 225.563 128.088C225.921 128.586 226.395 128.992 226.943 129.268C228.044 129.811 229.225 130.169 230.442 130.331C233.576 130.92 237.244 131.367 239.564 129.179Z" fill="black"/>
<path d="M300.681 50.4758C301.994 49.583 303.108 48.429 303.955 47.0859C304.365 46.4064 304.56 45.6187 304.514 44.8262C304.469 44.0338 304.185 43.2736 303.699 42.6456C302.711 41.7881 301.439 41.3287 300.131 41.3566C296.579 41.0914 293.009 41.5124 289.616 42.5965C293.1 45.6831 296.584 48.7698 300.068 51.8564L300.681 50.4758Z" fill="black"/>
<path d="M283.258 58.5035C284.666 60.0577 284.217 62.4687 283.819 64.5278C283.42 66.5869 283.369 69.16 285.14 70.2833C286.675 71.2569 288.83 70.4624 289.953 69.0328C290.956 67.5081 291.568 65.759 291.733 63.941C292.285 61.2987 292.534 58.6023 292.476 55.9037C292.409 53.185 291.45 50.5636 289.747 48.4438C288.537 47.0653 286.927 46.0997 285.141 45.6825C283.356 45.2654 281.484 45.4175 279.789 46.1175L281.408 46.0377C280.231 47.5486 279.339 49.2608 278.775 51.0908C278.504 52.0102 278.485 52.9851 278.719 53.9144C278.953 54.8436 279.432 55.6932 280.105 56.375C281.065 57.2107 282.403 57.5601 283.258 58.5035Z" fill="black"/>
<path d="M362.678 32.4357L362.965 31.5494C361.762 32.2457 360.834 33.3343 360.337 34.633C359.84 35.9317 359.804 37.3616 360.236 38.6834C361.162 37.9532 361.876 36.9894 362.305 35.8912C362.735 34.793 362.863 33.6002 362.678 32.4357Z" fill="black"/>
<path d="M347.033 45.1214C348.565 44.2535 349.873 43.0386 350.852 41.5742C351.83 40.1097 352.452 38.4364 352.667 36.6884C352.833 35.6015 352.707 34.49 352.302 33.4677C352.094 32.9602 351.764 32.5119 351.341 32.1627C350.919 31.8135 350.416 31.5742 349.878 31.4661L349.223 32.4979C348.283 31.6889 346.704 32.5209 346.308 33.6965C346.053 34.9171 346.159 36.1855 346.613 37.3469C347.066 38.5152 347.046 39.8143 346.556 40.9677C346.027 41.646 345.433 42.2703 344.782 42.8315C344.463 43.1212 344.256 43.5124 344.194 43.9384C344.132 44.3644 344.22 44.7987 344.443 45.1669C345.06 45.8715 346.214 45.5758 347.033 45.1214Z" fill="black"/>
<path d="M340.362 39.3578C340.923 38.3481 341.188 37.2006 341.126 36.0472L339.692 35.5976C338.776 35.969 337.963 36.5568 337.324 37.3107C337.13 37.5055 336.981 37.7408 336.888 37.9998C336.796 38.2588 336.761 38.535 336.788 38.8088C336.815 39.0826 336.902 39.347 337.042 39.5833C337.183 39.8196 337.374 40.0218 337.603 40.1755C337.831 40.3292 338.09 40.4305 338.362 40.4723C338.634 40.5141 338.911 40.4952 339.175 40.4171C339.439 40.3389 339.682 40.2034 339.887 40.0203C340.093 39.8372 340.255 39.611 340.362 39.3578V39.3578Z" fill="black"/>
<path d="M410.428 32.1033C410.558 32.2119 410.687 32.3235 410.816 32.4331C410.931 32.4091 411.039 32.366 411.156 32.3518L410.428 32.1033Z" fill="black"/>
<path d="M408.131 44.6839C409.447 43.6193 410.763 42.5546 412.079 41.4899C412.778 40.9952 413.374 40.3688 413.834 39.6458C414.147 38.9613 414.283 38.2084 414.227 37.4575C414.172 36.7065 413.927 35.9818 413.516 35.351C412.787 34.2329 411.875 33.2463 410.817 32.433C409.654 32.7082 408.633 33.4 407.947 34.3775C407.26 35.355 406.956 36.5503 407.092 37.737C407.329 39.2466 408.277 40.8608 407.503 42.1786C407.202 42.6917 406.684 43.041 406.337 43.5241C405.989 44.0072 405.876 44.7767 406.354 45.132C406.884 45.5264 407.617 45.0995 408.131 44.6839Z" fill="black"/>
<path d="M411.009 51.2014C411.499 51.2276 411.988 51.1483 412.444 50.9688C412.9 50.7893 413.312 50.5138 413.652 50.161C415.412 48.7194 416.951 47.0284 418.221 45.1416C415.26 46.0796 412.298 47.0176 409.337 47.9556L410.26 49.0353C409.44 49.5705 410.048 51.0171 411.009 51.2014Z" fill="black"/>
<path d="M419.309 57.2967C419.49 57.7586 419.817 58.1485 420.24 58.407C420.663 58.6654 421.16 58.7781 421.653 58.7278C422.144 58.6624 422.615 58.4899 423.033 58.2227C423.45 57.9554 423.804 57.5999 424.069 57.1811C424.52 56.5173 424.784 55.7453 424.836 54.945C424.888 54.1446 424.725 53.345 424.364 52.6287C424.003 51.9125 423.457 51.3056 422.783 50.871C422.109 50.4363 421.331 50.1896 420.53 50.1564L421.348 51.4056C421.556 53.5378 418.658 55.256 419.309 57.2967Z" fill="black"/>
<path d="M476.822 80.6493C477.623 81.2469 478.596 81.5687 479.595 81.5663C480.594 81.564 481.566 81.2375 482.364 80.6361C482.881 80.1941 483.302 79.6501 483.599 79.038C483.897 78.4259 484.065 77.759 484.092 77.0791C484.12 76.3991 484.007 75.7207 483.761 75.0865C483.514 74.4522 483.139 73.8757 482.659 73.393L481.147 74.2375C480.308 73.6984 479.293 73.5057 478.315 73.6999C477.337 73.8942 476.472 74.4603 475.903 75.2791C475.393 76.1373 475.205 77.1493 475.373 78.1335C475.542 79.1177 476.055 80.0097 476.822 80.6493V80.6493Z" fill="black"/>
<path d="M494.409 82.6404C495.146 82.4265 495.815 82.0272 496.353 81.4805C496.891 80.9339 497.28 80.2583 497.482 79.5185L494.542 79.132C493.724 78.5143 492.772 78.0984 491.763 77.9182C491.257 77.8424 490.741 77.9428 490.3 78.2025C489.859 78.4622 489.521 78.8654 489.342 79.3447C489.279 79.7524 489.322 80.1694 489.467 80.5559C489.611 80.9423 489.852 81.2854 490.166 81.5523C490.721 82.0817 491.403 82.4597 492.146 82.6502C492.889 82.8408 493.668 82.8374 494.409 82.6404V82.6404Z" fill="black"/>
<path d="M482.267 88.5189C482.319 88.9972 482.506 89.4509 482.806 89.827C483.106 90.203 483.507 90.4859 483.962 90.6426C484.459 90.8784 485.015 90.9594 485.559 90.8752C486.102 90.791 486.608 90.5455 487.011 90.1704C487.188 89.97 487.315 89.7301 487.382 89.4707C487.448 89.2112 487.451 88.9398 487.391 88.6788C487.332 88.4178 487.211 88.1748 487.038 87.97C486.866 87.7652 486.647 87.6045 486.4 87.5013L484.195 87.1003C483.343 86.6591 482.253 87.5595 482.267 88.5189Z" fill="black"/>
<path d="M354.324 104.023L352.618 102.465C353.072 103.098 353.653 103.628 354.324 104.023Z" fill="black"/>
<path d="M341.289 94.8468C342.34 99.7261 347.595 103.701 352.366 102.235L352.618 102.465C351.099 100.386 350.841 97.3098 351.196 94.6348C351.854 90.0508 353.657 85.7064 356.436 82.0026C359.216 78.2987 362.884 75.3546 367.102 73.442C368.257 73.0813 369.29 72.4083 370.087 71.4972C370.767 70.5029 370.513 68.7978 369.342 68.517C368.705 68.4442 368.063 68.5929 367.523 68.938L358.657 73.3017C354.178 75.5057 349.611 77.7729 346.094 81.314C342.576 84.8552 340.238 89.9674 341.289 94.8468Z" fill="black"/>
<path d="M198.168 262.629C189.907 256.715 180.859 251.987 171.287 248.582C165.404 246.49 159.082 244.895 152.952 246.082C149.591 246.778 146.44 248.256 143.758 250.398C141.075 252.539 138.935 255.283 137.512 258.407C136.141 261.554 135.497 264.969 135.626 268.398C135.755 271.828 136.655 275.185 138.259 278.219C141.086 283.516 145.981 287.735 147.617 293.512C148.721 297.406 148.198 301.553 147.667 305.566C146.582 313.766 145.497 321.966 144.411 330.167C143.423 337.633 142.46 345.402 144.824 352.553C147.188 359.704 153.934 366.007 161.426 365.248L162.911 365.136C157.955 361.765 156.565 354.788 158.041 348.978C159.517 343.169 163.263 338.243 166.92 333.494C177.773 319.402 188.625 305.309 199.478 291.217C203.869 285.515 208.513 278.468 206.172 271.663C204.841 267.795 201.493 265.011 198.168 262.629Z" fill="black"/>
<path d="M124.207 227.004C123.107 226.632 121.947 227.459 121.3 228.423C120.778 229.459 120.164 230.445 119.467 231.371C117.776 233.114 114.695 232.768 112.872 231.164C111.048 229.561 110.258 227.082 109.904 224.68C109.48 221.798 109.663 218.582 111.565 216.376C113.523 214.104 116.742 213.495 119.704 213.023C122.763 212.536 126.19 212.129 128.696 213.95C130.275 215.097 131.195 216.947 132.658 218.239C134.12 219.531 136.721 220.02 137.822 218.409C138.11 217.838 138.256 217.206 138.246 216.566C138.237 215.927 138.073 215.299 137.769 214.736C137.15 213.615 136.778 212.376 136.677 211.099C136.751 209.328 138.173 207.921 139.629 206.908C141.084 205.896 142.727 205.023 143.682 203.529C144.856 201.692 144.731 199.325 145.46 197.27C147.223 192.296 153.515 190.083 155.348 185.134C155.79 184.093 155.839 182.928 155.488 181.853C154.721 179.882 152.647 180.269 152.52 177.859C152.398 175.555 154.321 173.295 156.274 172.332C158.967 171.005 162.107 171.113 165.108 171.032C168.109 170.951 171.343 170.552 173.545 168.512C174.258 167.777 174.808 166.9 175.158 165.938C175.509 164.976 175.652 163.951 175.579 162.93C175.506 161.909 175.218 160.914 174.735 160.012C174.251 159.11 173.582 158.32 172.772 157.694C171.131 156.56 169.056 156.166 167.459 154.971C165.47 153.483 164.528 151.004 162.979 149.061C161.69 147.583 160.216 146.277 158.592 145.177C157.262 144.19 155.933 143.204 154.604 142.218C152.201 140.435 149.7 138.606 146.776 137.971C143.852 137.335 140.369 138.234 138.905 140.844C138.327 142.007 138.012 143.283 137.981 144.581C137.847 147.637 137.975 150.7 138.362 153.735C138.603 156.178 138.845 158.62 139.086 161.063C139.302 163.253 139.07 166.141 136.944 166.709C132.228 167.97 133.819 160.997 132.773 158.86C131.172 155.59 123.816 154.02 120.672 152.657C118.708 151.806 116.635 150.867 115.449 149.085C113.973 146.867 114.276 143.848 115.433 141.449C116.591 139.049 118.477 137.096 120.19 135.056C121.936 132.977 123.526 130.772 125.115 128.569C126.957 126.014 128.799 123.46 130.642 120.905C133.004 117.629 135.488 113.63 134.146 109.82C133.855 109.311 133.42 108.898 132.896 108.634C132.372 108.371 131.781 108.267 131.199 108.338C130.616 108.408 130.067 108.648 129.621 109.029C129.174 109.41 128.85 109.914 128.689 110.478C128.1 112.535 129.67 115.161 128.168 116.686C127.654 117.1 127.011 117.32 126.35 117.308C125.69 117.295 125.056 117.051 124.557 116.618C123.585 115.72 122.844 114.6 122.399 113.354C120.58 109.313 118.808 105.246 116.941 101.226C116.351 99.9555 115.735 97.7797 113.947 97.9939C112.394 98.1799 111.555 100.443 111.609 101.756C111.688 103.667 112.744 105.375 113.552 107.109C114.359 108.843 114.924 110.926 114.037 112.621C112.915 114.767 110.072 115.249 107.651 115.178C103.088 115.04 98.6165 113.86 94.5791 111.729C94.4736 113.972 94.3681 116.215 94.2626 118.458C91.0493 117.113 87.8359 115.768 84.6225 114.423C83.9984 114.161 83.3743 113.9 82.7502 113.639C80.0396 112.504 77.3256 111.369 74.5351 110.448C72.9509 109.925 71.3447 109.472 69.7391 109.019C68.763 108.744 67.787 108.469 66.811 108.194C64.885 107.511 62.8422 107.22 60.8022 107.337C58.6589 107.606 56.7472 108.757 54.765 109.618C50.3427 111.537 44.6227 109.606 39.8836 109.572C38.0037 106.828 35.4659 104.598 32.502 103.088C29.5381 101.578 26.2429 100.835 22.9177 100.927C19.5925 101.019 16.3435 101.943 13.4678 103.615C10.5921 105.287 8.1815 107.654 6.45651 110.498C5.62329 111.939 4.88128 113.431 4.23483 114.965C3.59182 116.406 2.9488 117.847 2.30576 119.288C1.36246 121.402 0.398345 123.629 0.583755 125.937C0.769165 128.244 2.53803 130.601 4.85275 130.58C-0.605558 133.051 -1.74136 141.699 2.89365 145.495C4.1771 146.547 5.75094 147.234 6.90591 148.425C7.77885 149.326 8.36285 150.466 8.58298 151.701C8.8031 152.935 8.64931 154.207 8.14133 155.354C7.63335 156.5 6.79435 157.469 5.73202 158.135C4.6697 158.802 3.43252 159.135 2.17923 159.093C5.41293 160.343 8.97485 160.459 12.2831 159.423C15.5914 158.387 18.4506 156.259 20.3935 153.388C22.3751 150.286 23.2364 146.409 25.9321 143.902C29.5022 140.582 35.3991 140.839 39.5167 143.45C43.6343 146.061 46.2391 150.507 48.0309 155.041C50.3789 160.983 51.8816 167.773 56.8839 171.748C59.3026 173.67 62.3657 174.751 64.5036 176.981C67.5481 180.157 68.0748 184.95 68.0062 189.349C67.9375 193.748 67.4637 198.312 69.0662 202.409C70.6686 206.506 75.2624 209.876 79.3819 208.332C78.2018 211.833 78.238 215.63 79.4846 219.108C80.7312 222.587 83.1153 225.542 86.2508 227.497C85.5003 222.842 84.7498 218.187 83.9993 213.532C87.7399 214.585 90.1643 218.213 91.5645 221.838C92.9647 225.463 93.7045 229.383 95.734 232.697C98.9299 237.915 104.717 240.164 110.605 240.144C116.965 240.123 119.379 237.09 123.57 232.624C124.412 231.863 125.052 230.903 125.43 229.832C125.601 229.293 125.572 228.709 125.347 228.19C125.122 227.67 124.717 227.249 124.207 227.004V227.004Z" fill="black"/>
<path d="M142.215 226.773C138.66 226.214 135.106 225.655 131.551 225.096C133.414 226.217 135.278 227.337 137.141 228.457C138.695 229.492 140.385 230.306 142.162 230.876C143.054 231.157 143.993 231.251 144.922 231.153C145.851 231.055 146.751 230.767 147.564 230.308L147.109 229.438C146.392 227.625 144.141 227.075 142.215 226.773Z" fill="black"/>
<path d="M139.8 246.532L139.825 246.471C139.61 246.114 139.293 245.83 138.915 245.655C138.537 245.48 138.116 245.422 137.705 245.488C136.886 245.635 136.049 245.648 135.226 245.529C134.703 245.324 134.236 244.998 133.866 244.576C133.495 244.154 133.23 243.65 133.094 243.106C132.741 242.043 132.636 240.905 132.234 239.86C131.943 239.033 131.43 238.302 130.751 237.748C130.071 237.194 129.252 236.838 128.384 236.719C127.512 236.649 126.648 236.925 125.979 237.487C125.309 238.049 124.887 238.852 124.805 239.723C124.874 240.619 125.158 241.485 125.635 242.247C126.018 242.985 126.402 243.722 126.785 244.46C127.109 245.121 127.48 245.757 127.897 246.363C128.576 247.298 129.464 248.062 130.489 248.594C131.515 249.126 132.651 249.412 133.806 249.429C134.962 249.445 136.105 249.192 137.145 248.689C138.186 248.186 139.095 247.448 139.8 246.532V246.532Z" fill="black"/>
<path d="M119.039 57.3576C121.746 58.9534 125.135 60.0533 126.421 62.9203L127.163 63.16C126.354 64.1656 125.545 65.1713 124.735 66.177C123.735 67.4198 122.684 68.8045 122.707 70.3996C122.739 72.5964 124.852 74.2537 126.987 74.7716C129.266 75.2404 131.637 74.8459 133.641 73.6648C135.645 72.4836 137.139 70.6 137.832 68.3795C138.086 67.4534 138.191 66.4929 138.414 65.5589C139.063 63.3436 140.042 61.239 141.319 59.3161C148.507 47.2234 155.695 35.1308 162.883 23.0381C163.778 21.5321 164.701 19.7306 164.028 18.1131C163.669 17.429 163.113 16.8681 162.432 16.5027C161.751 16.1373 160.976 15.9842 160.208 16.063C158.674 16.2493 157.194 16.747 155.859 17.5256C155.266 16.4839 154.429 15.6016 153.42 14.9547C152.411 14.3077 151.259 13.9153 150.065 13.8113C147.677 13.627 145.276 13.8362 142.955 14.4305C137.714 15.2214 132.66 16.9577 128.039 19.5549C125.511 20.8329 122.729 22.4112 121.995 25.1473C121.093 28.5129 124 31.943 127.348 32.9102C130.695 33.8775 134.269 33.0652 137.657 32.251C138.039 33.8934 137.88 35.6157 137.202 37.1597C136.523 38.7038 135.363 39.9864 133.894 40.8154C132.426 41.6444 130.728 41.9751 129.056 41.758C127.383 41.5409 125.826 40.7876 124.618 39.611C122.189 37.2463 121 33.1413 117.666 32.531C114.342 31.9226 111.7 35.4676 110.967 38.766C110.249 42.3185 110.638 46.0056 112.082 49.33C113.525 52.6545 115.953 55.4563 119.039 57.3576Z" fill="black"/>
<path d="M160.727 115.546C159.126 111.034 157.023 106.717 154.456 102.676C152.51 99.4816 150.109 96.5878 147.327 94.0864C144.786 91.8914 141.864 90.1798 138.706 89.0361C135.641 87.9276 132.229 87.3801 129.13 88.3907C126.031 89.4014 123.395 92.2825 123.458 95.5412C123.527 99.1443 126.68 101.962 129.966 103.443C133.251 104.923 136.906 105.568 140.006 107.406C142.114 108.684 143.875 110.46 145.135 112.579C146.396 114.697 147.116 117.093 147.234 119.555L148.015 120.846C146.246 121.432 144.597 122.33 143.144 123.498C142.425 124.091 141.876 124.864 141.551 125.738C141.226 126.612 141.138 127.556 141.295 128.475C141.836 130.657 144.064 131.909 146.079 132.907C149.801 134.751 153.523 136.594 157.246 138.438C155.351 132.786 161.556 127.527 161.899 121.576C161.912 119.508 161.514 117.458 160.727 115.546V115.546Z" fill="black"/>
<path d="M67.1296 100.287C69.3876 102.04 72.8594 101.22 74.928 99.2464C76.9966 97.2729 78.0041 94.4646 78.9437 91.7644C78.6006 94.437 78.6331 97.1446 79.0403 99.8082C79.2523 101.14 79.7386 102.414 80.4683 103.548C81.1981 104.682 82.1553 105.653 83.2795 106.398C84.3002 106.958 85.4006 107.358 86.5423 107.586C91.8501 108.794 97.3972 108.397 102.479 106.447L102.525 104.709C99.9718 105 98.0398 102.2 97.8713 99.6362C97.7027 97.0721 98.6333 94.5575 98.7151 91.9892C98.7969 89.4209 97.5591 86.4201 95.0304 85.9632C95.473 86.852 95.6344 87.8546 95.4931 88.8375C95.3518 89.8203 94.9146 90.7368 94.2396 91.4651C93.5646 92.1933 92.6839 92.6987 91.7145 92.9141C90.7452 93.1294 89.7333 93.0444 88.8134 92.6704C85.8865 91.4805 84.8232 87.9147 82.5613 85.7086C81.1637 84.4654 79.4298 83.6631 77.5775 83.4025C75.7253 83.142 73.8373 83.4349 72.151 84.2443C70.4861 85.0939 69.0255 86.2947 67.8702 87.764C66.7148 89.2332 65.8923 90.9358 65.4593 92.754C64.7724 95.3923 64.9762 98.6144 67.1296 100.287Z" fill="black"/>
<path d="M136.819 81.9863L136.924 81.8162C136.293 79.9959 134.339 78.9286 132.432 78.6577C130.509 78.5308 128.579 78.5946 126.669 78.8482C124.741 79.0976 122.787 78.6671 121.142 77.631C119.83 76.6495 119.082 75.1054 118.032 73.8463C116.983 72.5872 115.284 71.5518 113.759 72.1539C112.109 72.8057 111.668 75.1192 112.469 76.7028C113.413 78.2227 114.837 79.3845 116.515 80.0045C122.869 82.9215 130.02 83.6194 136.819 81.9863V81.9863Z" fill="black"/>
<path d="M115.127 87.4426C114.599 87.8293 114.241 88.4052 114.128 89.0498C114.015 89.6943 114.156 90.3576 114.521 90.9009C114.886 91.4441 115.446 91.8252 116.086 91.9644C116.725 92.1037 117.394 91.9903 117.951 91.6479L118.508 92.1976C119.249 90.8713 119.554 89.0946 118.607 87.907C118.186 87.4146 117.598 87.0949 116.956 87.0092C116.314 86.9236 115.663 87.0779 115.127 87.4426V87.4426Z" fill="black"/>
<path d="M108.611 92.2006C108.619 91.7267 108.483 91.2615 108.222 90.8662C107.961 90.4708 107.586 90.1638 107.147 89.9856C106.848 89.9343 106.542 89.944 106.246 90.0142C105.951 90.0844 105.674 90.2136 105.43 90.394C105.186 90.5744 104.981 90.8023 104.828 91.064C104.675 91.3256 104.576 91.6156 104.537 91.9165C104.491 92.5293 104.572 93.1451 104.774 93.7255C104.976 94.3059 105.295 94.8387 105.712 95.2905C105.954 95.6546 106.271 95.963 106.641 96.1957C107.012 96.4283 107.427 96.5798 107.86 96.6402C108.733 96.6688 109.622 95.7562 109.269 94.958L107.936 94.932C108.347 94.0777 108.576 93.1478 108.611 92.2006V92.2006Z" fill="black"/>
<path d="M82.5515 78.5537C83.0409 78.9503 83.5303 79.3469 84.0197 79.7436C84.8674 80.4764 85.7831 81.1266 86.7544 81.6854C88.4533 82.6264 90.4512 82.871 92.3269 82.3675C93.253 82.1034 94.0976 81.6105 94.783 80.9341C95.4685 80.2577 95.9726 79.4197 96.2489 78.4972C96.8341 76.2924 95.8796 74.0029 94.9455 71.9217C94.7323 71.3262 94.3805 70.7899 93.9193 70.357C93.6829 70.1477 93.3814 70.0266 93.066 70.0142C92.7505 70.0018 92.4405 70.0989 92.1884 70.289C92.0057 70.5167 91.8841 70.7872 91.8353 71.075C91.7866 71.3629 91.8122 71.6584 91.9098 71.9335C92.1106 72.4818 92.2024 73.064 92.18 73.6474C92.0869 74.2229 91.4829 74.7669 90.9508 74.5288L90.866 76.4878C88.325 75.2016 86.9812 71.7802 84.1533 71.4428C83.5187 71.3671 82.8754 71.4672 82.2937 71.732C81.7119 71.9969 81.2141 72.4164 80.8545 72.9449C80.495 73.4733 80.2874 74.0904 80.2545 74.7287C80.2216 75.367 80.3647 76.0021 80.668 76.5647C81.159 77.3451 81.799 78.021 82.5515 78.5537V78.5537Z" fill="black"/>
<path d="M76.4995 70.0967C77.0873 69.6937 77.5523 69.1361 77.8434 68.4856C78.1345 67.8351 78.2404 67.1168 78.1492 66.41C78.0788 66.0677 77.9339 65.745 77.7247 65.465C77.5156 65.185 77.2472 64.9546 76.9389 64.79C76.6306 64.6255 76.2897 64.5309 75.9407 64.513C75.5917 64.495 75.243 64.5543 74.9194 64.6864C74.1934 65.2292 73.6834 66.0118 73.4801 66.8952C72.8104 68.7842 72.1407 70.6733 71.471 72.5624L72.5965 71.7434C73.9891 71.4435 75.313 70.8849 76.4995 70.0967V70.0967Z" fill="black"/>
<path d="M89.5426 58.5036C89.7437 58.2501 89.8867 57.9555 89.9617 57.6407C90.0367 57.3258 90.0417 56.9984 89.9765 56.6814C89.9113 56.3644 89.7774 56.0655 89.5842 55.8059C89.391 55.5462 89.1433 55.332 88.8584 55.1784L87.4511 55.0469C87.1311 55.1279 86.8345 55.2828 86.5852 55.4991C86.3359 55.7154 86.1408 55.9872 86.0155 56.2926C85.8902 56.598 85.8382 56.9285 85.8637 57.2576C85.8892 57.5867 85.9915 57.9052 86.1624 58.1877C86.3333 58.4701 86.568 58.7085 86.8477 58.8838C87.1273 59.0592 87.4442 59.1665 87.7729 59.1972C88.1015 59.2279 88.4328 59.1812 88.7401 59.0608C89.0475 58.9403 89.3223 58.7495 89.5426 58.5036V58.5036Z" fill="black"/>
<path d="M102.49 60.676C103.804 61.3044 105.466 61.9031 106.609 61.0008C106.947 60.6945 107.199 60.3045 107.338 59.8699C107.478 59.4353 107.501 58.9717 107.404 58.5256C107.199 57.6356 106.803 56.801 106.243 56.0796C104.496 53.5711 102.276 51.4275 99.7076 49.7692L99.0726 50.5942C98.1857 52.8972 97.3294 55.5857 98.5664 57.7212C99.4005 59.1607 100.99 59.9579 102.49 60.676Z" fill="black"/>
<path d="M112.274 62.7256L114.73 63.8365C114.489 63.4168 114.122 63.0836 113.681 62.8842C113.241 62.6848 112.748 62.6293 112.274 62.7256Z" fill="black"/>
<path d="M105.656 70.4525L104.496 70.8348C103.509 72.4564 103.937 74.5299 104.396 76.3718C104.686 77.5362 105.312 78.9689 106.511 78.916C107.677 78.8645 108.193 77.45 108.417 76.304C108.767 75.059 108.805 73.7473 108.528 72.4842C108.37 71.859 107.993 71.3107 107.467 70.9382C106.94 70.5657 106.298 70.3935 105.656 70.4525V70.4525Z" fill="black"/>
<path d="M87.1502 64.9949L88.0089 65.3406C88.2102 65.3119 88.3964 65.2176 88.5387 65.0722C88.6809 64.9269 88.7713 64.7388 88.7958 64.5369C88.8202 64.335 88.7774 64.1307 88.6739 63.9556C88.5705 63.7806 88.4122 63.6445 88.2235 63.5685C88.0349 63.4926 87.8265 63.4809 87.6306 63.5355C87.4347 63.59 87.2622 63.7076 87.1399 63.8701C87.0177 64.0326 86.9524 64.2309 86.9543 64.4342C86.9561 64.6376 87.025 64.8346 87.1502 64.9949Z" fill="black"/>
<path d="M130.439 130.652C130.023 130.661 129.615 130.769 129.25 130.968C128.884 131.167 128.571 131.451 128.338 131.795C128.104 132.139 127.956 132.534 127.906 132.947C127.856 133.36 127.906 133.779 128.051 134.169C128.894 135.985 131.798 135.993 133.088 134.462C133.419 134.027 133.656 133.529 133.784 132.998C133.912 132.467 133.929 131.915 133.833 131.378C133.737 130.84 133.531 130.328 133.227 129.874C132.924 129.42 132.529 129.034 132.069 128.74L130.439 130.652Z" fill="black"/>
<path d="M172.264 173.663C171.927 173.753 171.61 173.909 171.335 174.124C171.059 174.338 170.829 174.605 170.658 174.91C170.487 175.215 170.379 175.551 170.34 175.898C170.302 176.245 170.333 176.596 170.432 176.931L172.843 177.099C173.659 176.689 174.476 176.279 175.292 175.869C175.243 175.523 175.125 175.191 174.945 174.892C174.765 174.592 174.527 174.332 174.244 174.126C173.962 173.921 173.641 173.774 173.301 173.694C172.961 173.614 172.608 173.604 172.264 173.663V173.663Z" fill="black"/>
<path d="M162.465 176.645C161.775 177.135 161.221 177.792 160.856 178.555C160.49 179.318 160.325 180.162 160.376 181.006C160.455 181.849 160.799 182.644 161.36 183.278C161.921 183.911 162.668 184.35 163.495 184.53C164.329 184.661 165.182 184.47 165.881 183.996C166.58 183.522 167.073 182.8 167.26 181.977C167.668 179.483 164.988 177.657 164.025 175.321L162.465 176.645Z" fill="black"/>
<path d="M256.1 160.176C256.355 162.048 254.668 163.688 254.606 165.576C254.531 167.816 256.97 169.559 259.201 169.34C260.308 169.148 261.355 168.702 262.261 168.036C263.167 167.371 263.906 166.505 264.42 165.506L264.468 165.296C263.382 164.068 262.295 162.839 261.209 161.611C259.874 160.103 258.46 158.386 258.512 156.373C258.538 155.381 258.929 154.419 258.907 153.427C258.855 152.713 258.695 152.011 258.434 151.344C258.14 150.466 257.74 149.477 256.862 149.181C255.764 148.81 254.656 149.783 254.132 150.817C253.66 151.77 253.431 152.825 253.464 153.888C253.498 154.952 253.793 155.99 254.323 156.912C254.958 157.99 255.932 158.937 256.1 160.176Z" fill="black"/>
<path d="M245.854 166.762C246.092 166.891 246.354 166.966 246.624 166.983C246.893 167.001 247.163 166.959 247.415 166.862C248.383 166.698 249.314 166.359 250.162 165.864C250.583 165.611 250.93 165.25 251.166 164.819C251.402 164.388 251.519 163.902 251.506 163.411C251.359 162.793 251.032 162.233 250.567 161.801C250.102 161.369 249.519 161.085 248.892 160.984C248.457 160.831 247.991 160.787 247.535 160.857C247.078 160.926 246.647 161.107 246.277 161.383C245.467 162.143 245.564 163.432 245.723 164.531L245.552 164.817C245.4 165.495 245.302 166.339 245.854 166.762Z" fill="black"/>
<path d="M416.88 246.765C416.645 246.181 416.41 245.596 416.175 245.012C415.852 245.806 415.972 246.618 416.88 246.765Z" fill="black"/>
<path d="M557.957 123.838C554.941 120.566 553.094 118.68 551.189 114.624C550.153 112.387 548.579 110.442 546.608 108.961C544.636 107.481 542.329 106.512 539.892 106.14C533.635 105.109 527.242 106.741 520.909 106.414C510.766 105.89 501.619 100.45 491.906 97.4825C486.467 95.9587 480.928 94.8164 475.33 94.064C472.105 93.5538 468.879 93.0438 465.653 92.5337C455.08 90.8616 444.44 89.1845 433.737 89.4066C430.651 89.4707 426.352 88.5431 426.599 85.4662C426.906 81.6448 433.782 82.1465 435.104 78.5479C435.922 76.3219 433.964 73.9848 431.817 72.9782C429.669 71.9717 427.191 71.669 425.242 70.3176C423.293 68.9663 422.225 65.8336 424.016 64.2791C419.051 66.8243 414.087 69.3694 409.122 71.9146C404.994 74.0306 400.382 76.7836 399.653 81.3644C397.166 82.0217 394.989 83.5337 393.506 85.6354C390.713 85.65 388.518 88.3311 388.058 91.0856C387.597 93.84 388.434 96.6277 389.262 99.295C388.249 97.3547 387.173 95.3403 385.388 94.0742C383.602 92.8081 380.884 92.567 379.362 94.1398C377.8 95.7538 378.165 98.4617 379.27 100.417C380.375 102.373 382.073 103.951 383.115 105.94C386.372 112.154 380.471 120.901 373.49 120.209C373.958 113.793 374.427 107.377 374.895 100.961C375.192 98.9877 375.026 96.9722 374.41 95.0738C373.649 93.2371 371.699 91.7286 369.758 92.1623C366.269 92.9422 366.567 98.053 368.019 101.32C369.47 104.587 370.917 109.131 367.954 111.132C366.041 112.424 363.447 111.626 361.382 110.594C359.316 109.563 357.106 108.292 354.849 108.774C352.591 109.256 351.171 112.707 353.166 113.869C349.858 113.294 346.549 112.72 343.241 112.145C343.077 113.118 342.711 114.047 342.166 114.87C341.621 115.694 340.909 116.394 340.076 116.925C339.244 117.456 338.309 117.807 337.333 117.954C336.356 118.101 335.36 118.042 334.408 117.78C334.083 116.435 333.758 115.089 333.433 113.743C332.949 113.608 332.465 113.473 331.981 113.338C333.501 113.761 331.123 120.17 328.992 125.065C326.126 124.729 321.939 124.665 321.461 123.844C319.173 119.912 319.444 110.546 315.469 108.334C313.476 107.225 311.431 106.214 309.336 105.301C308.236 104.778 307.073 104.396 305.876 104.165C303.435 103.781 300.974 104.538 298.618 105.286C295.834 106.17 292.986 107.087 290.681 108.881C288.713 110.588 287.026 112.594 285.682 114.826C281.132 121.561 276.581 128.296 272.03 135.03C270.675 136.829 269.608 138.828 268.869 140.956C268.52 142.013 268.404 143.134 268.529 144.241C268.653 145.348 269.015 146.415 269.589 147.369C270.194 148.304 271.097 149.009 272.151 149.369C273.205 149.73 274.35 149.725 275.401 149.355C276.72 148.784 278.041 147.49 279.348 148.088C280.338 148.54 280.586 149.841 280.482 150.925C280.23 151.986 280.21 153.088 280.424 154.157C281.019 155.844 283.308 156.431 284.941 155.701C286.528 154.835 287.718 153.387 288.259 151.661C289.832 147.626 289.672 143.162 290.063 138.849C290.455 134.536 291.634 129.923 295.034 127.241C296.052 126.439 297.548 125.86 298.595 126.623C298.988 126.98 299.259 127.45 299.371 127.968C299.483 128.486 299.431 129.026 299.221 129.513C298.783 130.477 298.212 131.374 297.524 132.179C296.363 133.813 295.55 135.669 295.136 137.632C294.722 139.594 294.717 141.62 295.121 143.585L295.815 144.015C298.467 143.327 302.015 144.558 305.535 145.739C302.98 146.499 300.73 148.046 299.107 150.161C295.038 155.869 292.093 161.272 284.044 161.204C282.135 161.188 280.242 160.81 278.332 160.806C276.405 160.687 274.506 161.319 273.035 162.57C271.587 163.988 271.14 166.146 269.902 167.749C268.273 169.857 265.551 170.715 263.066 171.672C261.249 172.372 259.334 173.316 258.499 175.075C257.974 176.517 257.853 178.075 258.149 179.581C258.429 182.245 258.924 185.274 261.184 186.712C262.029 187.152 262.953 187.421 263.903 187.501C264.852 187.582 265.808 187.472 266.715 187.18C269.066 186.608 271.364 185.531 273.778 185.692C277.567 185.945 280.688 189.582 280.726 193.38C280.746 195.302 280.185 197.507 281.459 198.947C282.656 200.3 285.031 200.059 286.272 198.745C286.848 198.047 287.245 197.217 287.427 196.33C287.609 195.443 287.572 194.524 287.317 193.655C286.79 191.923 285.98 190.291 284.919 188.824C286.18 188.498 287.516 188.618 288.699 189.165C289.881 189.711 290.838 190.651 291.406 191.823C292.248 193.693 291.976 195.851 292.244 197.884C292.513 199.917 293.751 202.177 295.798 202.294C296.468 202.313 297.122 202.097 297.649 201.683C298.176 201.27 298.542 200.685 298.683 200.03C298.704 198.998 298.648 197.966 298.514 196.943C298.584 195.936 299.037 194.993 299.78 194.309C300.522 193.625 301.498 193.251 302.508 193.263C301.885 194.414 301.683 195.746 301.935 197.03C302.187 198.314 302.878 199.47 303.889 200.301C305.448 201.506 307.507 201.776 309.448 202.113C311.389 202.45 313.46 202.983 314.712 204.503C316.799 207.036 314.246 208.177 313.848 210.322C313.361 212.955 315.56 216.843 316.405 219.363C320.287 224.794 324.169 230.225 328.052 235.656C328.918 236.977 329.941 238.188 331.096 239.265C334.929 242.557 341.247 242.232 344.922 238.766C346.704 236.963 347.861 234.637 348.223 232.128C348.585 229.619 348.134 227.06 346.935 224.827C344.664 220.692 340.163 218.132 337.941 213.971C341.64 217.033 346.181 218.901 350.964 219.327C359.426 221.046 367.466 224.418 374.624 229.249C374.96 236.727 377.829 243.869 382.76 249.5C383.647 243.119 386.622 237.21 391.221 232.698C394.212 229.781 398.299 227.429 402.403 228.214C406.506 228.998 409.619 234.231 407.137 237.591C409.217 237.746 411.297 237.901 413.376 238.055C414.309 240.374 415.242 242.693 416.175 245.012C416.34 244.525 416.658 244.103 417.081 243.81C417.504 243.516 418.01 243.366 418.525 243.381C420.472 243.675 421.837 245.486 423.689 246.155C427.18 247.416 430.912 243.923 431.363 240.239C431.815 236.555 430.062 232.998 428.359 229.7C432.121 230.397 436.003 229.982 439.532 228.505C443.061 227.029 446.083 224.556 448.228 221.389C450.373 218.221 451.548 214.497 451.609 210.673C451.67 206.848 450.615 203.088 448.572 199.854C452.619 195.603 457.382 192.097 462.643 189.495C467.512 187.089 472.838 185.438 477.093 182.064C481.348 178.69 484.332 172.831 482.286 167.801C480.84 164.248 477.213 161.836 476.128 158.156C474.557 152.83 479.329 147.32 484.721 145.989C490.113 144.659 495.743 146.294 501.054 147.917C500.238 142.452 506.573 137.329 511.746 139.27C513.913 138.392 516.08 137.515 518.247 136.637C515.735 142.175 510.292 145.698 506.29 150.277C502.288 154.855 499.905 162.31 504.085 166.725C510.078 161.294 516.07 155.863 522.062 150.432C528.33 144.751 534.598 139.07 540.866 133.389C540.566 132.509 540.267 131.63 539.968 130.751C545.898 128.499 552.285 126.636 557.957 123.838Z" fill="black"/>
<path d="M246.714 196.935C246.472 197.283 246.343 197.698 246.345 198.122C246.347 198.547 246.48 198.96 246.726 199.306C247.047 199.58 247.455 199.732 247.877 199.738C248.299 199.744 248.71 199.602 249.039 199.337C249.683 198.788 250.185 198.092 250.505 197.309C250.816 197.911 251.305 198.403 251.906 198.717C252.506 199.032 253.189 199.154 253.861 199.067C255.204 198.864 256.476 198.334 257.564 197.522C258.428 197.016 259.19 196.355 259.813 195.571C260.121 195.177 260.333 194.715 260.431 194.225C260.529 193.734 260.511 193.227 260.378 192.744C260.055 192.004 259.553 191.355 258.917 190.857C257.331 189.393 255.746 187.928 254.16 186.464L253.623 186.302C253.343 186.005 253.006 185.767 252.632 185.603C252.258 185.439 251.855 185.352 251.447 185.348C251.039 185.343 250.634 185.421 250.256 185.578C249.879 185.734 249.537 185.964 249.251 186.256C248.267 187.358 248.262 189.005 248.413 190.475C248.563 191.945 248.797 193.512 248.143 194.837C247.767 195.596 247.132 196.198 246.714 196.935Z" fill="black"/>
<path d="M338.709 246.965C332.547 245.593 326.907 242.486 322.455 238.011C318.002 233.536 314.924 227.88 313.584 221.711C313 218.8 312.735 215.619 310.798 213.369C308.924 211.19 305.86 210.404 302.986 210.404C300.112 210.404 297.278 211.066 294.409 211.245C289.393 211.557 284.079 210.232 280.492 206.712C278.793 205.045 277.507 202.928 275.524 201.613C272.858 199.846 269.323 199.848 266.285 200.849C262.901 201.964 260.193 205.016 256.493 204.596C252.645 204.159 248.186 202.799 246.677 207.865C246.243 209.324 246.391 210.924 245.841 212.344C244.993 214.531 242.743 215.764 240.963 217.292C237.377 220.37 235.471 225.045 234.829 229.727C234.187 234.408 234.684 239.162 235.181 243.862C235.449 246.396 235.802 249.124 237.543 250.985C239.97 253.58 244.042 253.48 247.583 253.187C251.697 252.848 255.81 252.508 259.924 252.168C262.141 251.985 264.668 251.908 266.247 253.476C267.193 254.415 267.593 255.774 268.425 256.816C269.172 257.703 270.197 258.31 271.333 258.539C272.47 258.769 273.65 258.606 274.682 258.078C273.848 259.568 273.394 261.241 273.36 262.949C273.326 264.656 273.714 266.346 274.489 267.867C275.264 269.389 276.402 270.697 277.802 271.674C279.203 272.651 280.823 273.268 282.519 273.469L282.836 273.669C280.202 278.179 277.47 283.243 278.562 288.35C279.498 292.729 283.125 296.24 283.718 300.678C284.262 304.751 282.137 308.915 283.077 312.915C284.029 316.965 288.12 319.789 292.269 320.09C296.419 320.392 300.496 318.551 303.71 315.909C306.924 313.267 309.41 309.865 311.859 306.502C313.371 304.425 314.922 302.263 315.441 299.747C315.993 297.07 315.353 294.103 316.655 291.7C318.156 288.927 321.72 287.888 323.519 285.299C325.848 281.947 324.476 277.381 324.991 273.332C326.265 263.31 338.999 257.064 338.709 246.965Z" fill="black"/>
<path d="M336.87 281.179C336.522 282.744 335.057 283.775 333.66 284.562C332.264 285.35 330.729 286.145 330.017 287.581C329.289 289.053 329.622 290.806 330.003 292.403C330.796 295.725 331.73 299.01 332.804 302.256C334.888 298.32 336.707 294.248 338.25 290.07C338.903 288.514 339.307 286.865 339.445 285.183C339.509 284.342 339.396 283.496 339.113 282.701C338.83 281.905 338.383 281.178 337.802 280.566L336.87 281.179Z" fill="black"/>
<path d="M422.56 263.749C420.81 261.729 419.06 259.71 417.311 257.69C416.114 256.308 414.75 254.833 412.937 254.603L412.19 255.079C413.707 258.692 415.224 262.304 416.741 265.916C417.279 267.566 418.224 269.053 419.49 270.239C420.848 271.306 423.05 271.511 424.182 270.207C424.547 269.718 424.778 269.142 424.85 268.536C424.922 267.93 424.834 267.316 424.594 266.755C424.1 265.64 423.411 264.622 422.56 263.749Z" fill="black"/>
<path d="M439.514 267.617C440.175 267.387 440.781 267.022 441.293 266.545C441.805 266.068 442.212 265.489 442.488 264.845C443.03 263.556 443.388 262.197 443.552 260.807C443.851 258.999 444.15 257.19 444.449 255.381L444.058 255.281C443.678 255.099 443.244 255.06 442.838 255.173C442.432 255.286 442.081 255.542 441.849 255.894C441.408 256.612 441.075 257.391 440.859 258.205C440.748 258.612 440.547 258.989 440.27 259.307C439.993 259.626 439.648 259.877 439.26 260.043C437.856 260.467 436.526 258.979 435.06 259.037C434.467 259.112 433.918 259.386 433.501 259.814C433.085 260.241 432.825 260.798 432.766 261.392C432.681 262.591 433.02 263.782 433.725 264.756C434.975 266.696 437.295 268.256 439.514 267.617Z" fill="black"/>
<path d="M449.188 271.046L453.22 260.426C451.587 261.611 450.335 263.247 449.618 265.134C448.902 267.021 448.752 269.076 449.188 271.046V271.046Z" fill="black"/>
<path d="M469.766 262.485L468.951 262.52C468.586 263.24 468.393 264.035 468.385 264.843C468.377 265.651 468.556 266.449 468.906 267.177C469.622 268.628 470.663 269.893 471.948 270.875C473.941 272.519 476.214 273.789 478.659 274.622C482.245 275.668 485.952 276.239 489.686 276.32C491.821 276.46 493.956 276.6 496.09 276.74C497.107 276.806 498.423 276.677 498.705 275.698C498.939 274.89 498.25 274.13 497.607 273.587C491.959 268.834 485.112 265.727 477.817 264.605C475.049 264.184 472.113 264.011 469.766 262.485Z" fill="black"/>
<path d="M492.552 290.67C491.017 289.181 489.481 287.692 487.946 286.204C486.453 284.756 484.216 283.222 482.505 284.404C481.522 285.083 481.219 286.409 480.385 287.265C479.877 287.72 479.264 288.041 478.601 288.199C477.938 288.357 477.246 288.347 476.588 288.169C475.277 287.801 474.037 287.213 472.922 286.432L469.112 284.068C467.798 283.252 466.483 282.437 465.169 281.621L462.202 284.504C462.331 283.085 460.44 282.163 459.13 282.724C458.508 283.073 457.972 283.558 457.563 284.143C457.154 284.728 456.882 285.397 456.767 286.102C456.549 287.51 456.169 288.888 455.633 290.209C454.127 293.092 450.47 293.946 447.253 294.429C444.036 294.912 440.391 295.592 438.669 298.353C437.235 300.652 437.664 303.604 438.144 306.271L439.957 316.361C440.042 317.583 440.533 318.742 441.35 319.655C442.943 321.061 445.411 320.206 447.355 319.349C451.419 317.394 455.78 316.13 460.259 315.609C464.777 315.103 469.325 316.268 473.044 318.883C475.35 320.639 477.108 323.069 479.551 324.628C481.233 325.641 483.125 326.255 485.081 326.426C487.038 326.597 489.007 326.319 490.84 325.614C494.513 324.151 497.553 321.44 499.426 317.957C501.088 314.886 501.922 311.435 501.846 307.944C501.77 304.453 500.787 301.042 498.992 298.046C497.16 295.33 494.996 292.852 492.552 290.67Z" fill="black"/>
<path d="M488.025 331.778C487.657 332.225 487.441 332.779 487.41 333.357C487.379 333.936 487.534 334.509 487.853 334.993C488.522 335.952 489.542 336.609 490.691 336.821C491.83 337.024 492.99 337.078 494.142 336.979L494.178 336.118C493.87 334.607 493.174 333.203 492.156 332.044C491.044 330.987 489.079 330.663 488.025 331.778Z" fill="black"/>
<path d="M527.557 332.699L527.007 332.497C525.697 334.472 524.387 336.446 523.078 338.42C522.373 339.483 521.637 340.759 522.067 341.959C522.576 343.379 524.458 343.796 525.919 343.42C527.034 343.117 528.04 342.503 528.818 341.648C529.597 340.794 530.115 339.735 530.313 338.597C530.474 337.452 530.3 336.286 529.811 335.239C529.321 334.192 528.539 333.309 527.557 332.699V332.699Z" fill="black"/>
<path d="M537.544 326.433L533.927 323.558C533.879 324.892 533.831 326.225 533.782 327.559L533.647 327.561C534.481 328.293 535.268 329.076 536.004 329.905C536.85 330.625 538.271 330.954 538.994 330.111C539.211 329.809 539.334 329.45 539.347 329.079C539.361 328.708 539.266 328.341 539.072 328.024C538.674 327.396 538.155 326.855 537.544 326.433Z" fill="black"/>
<path d="M472.209 201.353C470.692 201.306 469.012 201.214 467.836 202.174C467.45 202.52 467.11 202.915 466.827 203.35L466.413 203.931C465.792 204.743 465.251 205.613 464.797 206.529C464.56 206.958 464.418 207.433 464.38 207.922C464.342 208.411 464.409 208.902 464.577 209.363C464.675 209.583 464.819 209.779 465 209.937C465.182 210.095 465.396 210.212 465.627 210.278C465.858 210.345 466.101 210.359 466.339 210.321C466.577 210.284 466.803 210.194 467.002 210.059C467.651 209.458 467.5 208.368 467.99 207.633C468.206 207.356 468.483 207.133 468.8 206.981C469.117 206.83 469.465 206.754 469.816 206.76C470.516 206.777 471.214 206.856 471.901 206.995C473.803 207.256 475.74 206.967 477.484 206.162C479.227 205.357 480.703 204.07 481.739 202.452C482.774 200.835 483.325 198.956 483.326 197.036C483.327 195.116 482.779 193.235 481.746 191.617L481.624 191.244C480.573 191.204 479.542 191.533 478.709 192.175C477.876 192.817 477.295 193.731 477.066 194.757C476.727 196.525 477.446 198.579 476.375 200.026C475.471 201.245 473.727 201.401 472.209 201.353Z" fill="black"/>
<path d="M485.793 182.609L485.562 182.589C484.205 182.837 482.902 183.322 481.714 184.023C481.324 184.204 481.012 184.519 480.837 184.912C480.785 185.12 480.786 185.338 480.84 185.546C480.893 185.754 480.997 185.945 481.143 186.102C481.438 186.414 481.783 186.673 482.164 186.87C482.731 187.249 483.358 187.529 484.018 187.7C484.349 187.782 484.696 187.78 485.026 187.694C485.357 187.609 485.661 187.443 485.911 187.211C486.146 186.888 486.307 186.518 486.384 186.126C486.461 185.735 486.451 185.331 486.355 184.944C486.247 184.149 486.059 183.366 485.793 182.609Z" fill="black"/>
<path d="M462.404 201.804C462.767 201.223 463.025 200.582 463.165 199.912C463.307 199.391 463.449 198.871 463.59 198.35L462.077 197.431C461.355 197.807 460.689 198.282 460.097 198.843C459.803 199.125 459.571 199.465 459.414 199.842C459.258 200.218 459.181 200.623 459.189 201.031C459.21 201.438 459.368 201.826 459.637 202.132C459.907 202.438 460.272 202.644 460.674 202.716C461.016 202.726 461.356 202.648 461.659 202.488C461.962 202.328 462.219 202.092 462.404 201.804V201.804Z" fill="black"/>
<path d="M297.619 61.1398C297.02 61.5127 297.189 62.414 297.432 63.0758C297.711 63.8356 297.989 64.5953 298.268 65.3551L298.658 63.8802C299 63.3082 299.151 62.6419 299.089 61.9782C298.954 61.3299 298.18 60.7896 297.619 61.1398Z" fill="black"/>
<path d="M89.9568 197.559C93.2705 197.559 95.9568 194.873 95.9568 191.559C95.9568 188.245 93.2705 185.559 89.9568 185.559C86.643 185.559 83.9568 188.245 83.9568 191.559C83.9568 194.873 86.643 197.559 89.9568 197.559Z" fill="#FF7DD8"/>
<path d="M105.957 168.559C109.27 168.559 111.957 165.873 111.957 162.559C111.957 159.245 109.27 156.559 105.957 156.559C102.643 156.559 99.9568 159.245 99.9568 162.559C99.9568 165.873 102.643 168.559 105.957 168.559Z" fill="#FF7DD8"/>
<path d="M281.957 145.559C285.27 145.559 287.957 142.873 287.957 139.559C287.957 136.245 285.27 133.559 281.957 133.559C278.643 133.559 275.957 136.245 275.957 139.559C275.957 142.873 278.643 145.559 281.957 145.559Z" fill="#FF7DD8"/>
<path d="M144.231 570.467L153.281 570.466L157.586 535.559L144.229 535.56L144.231 570.467Z" fill="#FFB6B6"/>
<path d="M143.912 579.907L171.742 579.906V579.555C171.742 576.682 170.6 573.927 168.569 571.895C166.538 569.864 163.783 568.723 160.91 568.723H160.909L155.826 564.866L146.341 568.723L143.912 568.723L143.912 579.907Z" fill="#2F2E41"/>
<path d="M212.231 570.467L221.281 570.466L225.586 535.559L212.229 535.56L212.231 570.467Z" fill="#FFB6B6"/>
<path d="M211.912 579.907L239.742 579.906V579.555C239.742 576.682 238.6 573.927 236.569 571.895C234.538 569.864 231.783 568.723 228.91 568.723H228.909L223.826 564.866L214.341 568.723L211.912 568.723L211.912 579.907Z" fill="#2F2E41"/>
<path d="M143.879 286.506L159.94 284.205C165.372 293.288 167.302 317.464 167.302 317.464L183.02 354.822C184.061 355.529 184.897 356.498 185.445 357.631C185.992 358.764 186.232 360.021 186.139 361.276C186.046 362.531 185.624 363.739 184.916 364.779C184.208 365.82 183.238 366.655 182.104 367.201C180.971 367.747 179.713 367.985 178.458 367.891C177.203 367.796 175.996 367.373 174.956 366.664C173.917 365.954 173.083 364.983 172.538 363.849C171.993 362.715 171.757 361.457 171.853 360.202L146.046 316.718L143.879 286.506Z" fill="#FFB6B6"/>
<path d="M152.584 241.918C150.098 242.303 147.728 243.231 145.641 244.636C143.555 246.041 141.804 247.889 140.513 250.048C139.221 252.207 138.422 254.624 138.171 257.127C137.92 259.63 138.224 262.157 139.061 264.53L142.469 274.19C142.469 274.19 138.176 303.277 145.251 311.488L166.963 309.522C166.963 309.522 162.993 294.847 166.041 287.747C167.907 283.399 167.803 268.38 165.964 256.163C164.56 246.834 161.907 240.474 152.584 241.918Z" fill="#FF7DD8"/>
<path d="M227.457 329.559C227.457 329.559 244.192 345.88 240.618 349.649C237.044 353.419 228.869 358.699 236.457 359.559C244.044 360.419 247.192 362.283 240.618 363.851C234.044 365.419 235.06 369.445 235.06 369.445C235.06 369.445 244.957 416.559 237.457 447.559C237.457 447.559 233.283 532.231 230.663 538.825C228.044 545.419 227.044 541.419 228.044 545.419C229.044 549.419 231.044 542.419 229.044 549.419C227.953 553.075 227.089 556.796 226.457 560.559L206.894 557.559C206.894 557.559 203.745 547.632 206.894 545.025C210.044 542.419 212.869 544.025 209.457 538.222C206.044 532.419 205.044 540.419 206.044 532.419C207.044 524.419 202.869 481.151 209.457 458.285L197.283 394.122L177.957 460.559C177.957 460.559 167.705 541.699 164.375 544.559C161.044 547.419 156.044 542.419 161.044 547.419C166.044 552.419 165.957 551.559 166.044 552.419C166.975 561.591 138.346 551.559 138.346 551.559C138.505 549.228 138.505 546.89 138.346 544.559C138.044 542.419 141.647 541.734 138.346 539.577C135.044 537.419 139.957 539.559 139.957 539.559C139.957 539.559 147.34 479.699 152.957 461.559L159.457 373.222C159.457 373.222 159.869 374.985 159.457 370.702C159.044 366.419 156.044 369.419 159.044 366.419C162.044 363.419 164.044 361.89 162.044 359.655C160.044 357.419 154.527 352.896 157.785 350.157C161.044 347.419 167.457 329.559 167.457 329.559L229.957 330.059" fill="#2F2E41"/>
<path d="M203.958 230.385L192.688 217.696L174.881 219.675L163.481 235.629C157.412 237.025 152.109 240.692 148.663 245.878C145.216 251.064 143.889 257.374 144.953 263.509C149.377 288.984 164.412 313.692 159.447 326.261C151.911 345.341 151.451 353.123 169.49 350.448C187.53 347.773 247.964 341.606 236.247 329.889C224.53 318.172 221.957 298.593 221.957 298.593L221.487 253.798C221.985 251.097 221.919 248.321 221.292 245.646C220.665 242.972 219.492 240.456 217.845 238.256C216.199 236.057 214.115 234.223 211.725 232.868C209.335 231.513 206.69 230.668 203.958 230.385V230.385Z" fill="#FF7DD8"/>
<path d="M200.879 279.506L216.94 277.205C222.372 286.288 224.302 310.464 224.302 310.464L240.02 347.822C241.061 348.529 241.897 349.498 242.445 350.631C242.992 351.764 243.232 353.021 243.139 354.276C243.046 355.531 242.624 356.739 241.916 357.779C241.208 358.82 240.238 359.655 239.104 360.201C237.971 360.747 236.713 360.985 235.458 360.891C234.203 360.796 232.996 360.373 231.956 359.664C230.917 358.954 230.083 357.983 229.538 356.849C228.993 355.715 228.757 354.457 228.853 353.202L203.046 309.718L200.879 279.506Z" fill="#FFB6B6"/>
<path d="M209.584 232.918C207.098 233.303 204.728 234.231 202.641 235.636C200.555 237.041 198.804 238.889 197.513 241.048C196.221 243.207 195.422 245.624 195.171 248.127C194.92 250.63 195.224 253.157 196.061 255.53L199.469 265.19C199.469 265.19 195.176 294.277 202.251 302.488L223.963 300.522C223.963 300.522 219.993 285.847 223.041 278.747C224.907 274.399 224.803 259.38 222.964 247.163C221.56 237.834 218.907 231.474 209.584 232.918Z" fill="#FF7DD8"/>
<path d="M178.888 216.603C190.775 216.603 200.411 206.967 200.411 195.08C200.411 183.193 190.775 173.557 178.888 173.557C167.001 173.557 157.365 183.193 157.365 195.08C157.365 206.967 167.001 216.603 178.888 216.603Z" fill="#FFB6B6"/>
<path d="M174.93 216.149C180.924 214.648 181.128 212.935 187.123 211.433C189.031 210.955 191.243 210.201 191.809 208.317C191.943 207.628 191.915 206.916 191.728 206.24C191.541 205.563 191.2 204.938 190.731 204.416C189.786 203.382 188.901 202.294 188.081 201.159C187.537 200.247 187.224 199.217 187.167 198.157C187.111 197.097 187.314 196.039 187.758 195.075C188.202 194.111 188.875 193.27 189.717 192.624C190.56 191.978 191.546 191.546 192.593 191.367C194.447 191.05 196.359 191.541 198.225 191.304C200.785 190.978 204.549 181.482 202.909 179.491C201.311 177.552 198.69 176.396 197.809 174.044C197.233 172.506 197.548 170.785 197.291 169.163C196.911 166.757 192.043 173.418 192.691 171.07C194.28 165.311 167.387 164.404 164.587 171.793C163.541 174.554 160.708 174.993 158.529 176.986C157.101 178.293 153.686 182.473 153.19 184.726C152.78 187.004 152.859 189.344 153.422 191.589C155.656 202.115 159.347 211.444 169.173 215.829" fill="#2F2E41"/>
</g>
<defs>
<clipPath id="clip0_0_1">
<rect width="698.284" height="608.579" fill="white" transform="translate(0 -29)"/>
</clipPath>
</defs>
</svg>
