<svg width="847" height="624" viewBox="0 0 847 624" fill="none" xmlns="http://www.w3.org/2000/svg">
<g clip-path="url(#clip0_18_2)">
<path d="M610.122 215.548H318.283C313.644 215.542 309.195 213.697 305.915 210.416C302.634 207.135 300.788 202.687 300.783 198.048V25.8939C300.787 22.4239 302.167 19.0971 304.621 16.6434C307.074 14.1897 310.401 12.8095 313.871 12.8055H614.324C617.85 12.8095 621.23 14.2118 623.723 16.7047C626.215 19.1975 627.618 22.5774 627.622 26.1028V198.048C627.616 202.687 625.771 207.135 622.49 210.416C619.209 213.697 614.761 215.542 610.122 215.548V215.548Z" fill="white"/>
<path d="M610.122 215.548H318.283C313.644 215.542 309.195 213.697 305.915 210.416C302.634 207.135 300.788 202.687 300.783 198.048V25.8939C300.787 22.4239 302.167 19.0971 304.621 16.6434C307.074 14.1897 310.401 12.8095 313.871 12.8055H614.324C617.85 12.8095 621.23 14.2118 623.723 16.7047C626.215 19.1975 627.618 22.5774 627.622 26.1028V198.048C627.616 202.687 625.771 207.135 622.49 210.416C619.209 213.697 614.761 215.542 610.122 215.548V215.548ZM313.871 14.8055C310.931 14.8088 308.113 15.9782 306.034 18.0569C303.956 20.1357 302.786 22.9541 302.783 25.8939V198.048C302.788 202.157 304.422 206.097 307.328 209.003C310.234 211.908 314.174 213.543 318.283 213.548H610.122C614.231 213.543 618.171 211.908 621.077 209.003C623.982 206.097 625.617 202.157 625.622 198.048V26.1028C625.618 23.1077 624.427 20.2361 622.309 18.1182C620.191 16.0002 617.32 14.8089 614.324 14.8055H313.871Z" fill="#3F3D56"/>
<path d="M334.283 198.048H594.122C598.365 198.048 602.435 196.362 605.435 193.362C608.436 190.361 610.122 186.291 610.122 182.048V56.5C610.122 52.2565 608.436 48.1869 605.435 45.1863C602.435 42.1857 598.365 40.5 594.122 40.5H334.283C330.04 40.5 325.97 42.1857 322.969 45.1863C319.969 48.1869 318.283 52.2565 318.283 56.5V182.048C318.283 186.291 319.969 190.361 322.969 193.362C325.97 196.362 330.04 198.048 334.283 198.048Z" fill="#F2F2F2"/>
<path d="M628.059 24.9502H300.059V16.5498C300.09 12.1367 301.869 7.91585 305.008 4.81327C308.147 1.71069 312.388 -0.0203069 316.801 -6.17235e-06H611.317C615.73 -0.0203281 619.971 1.71066 623.11 4.81324C626.249 7.91582 628.028 12.1366 628.059 16.5498V24.9502Z" fill="#FF7DD8"/>
<path d="M331.647 16.7834C334.013 16.7834 335.93 14.8657 335.93 12.5C335.93 10.1343 334.013 8.21658 331.647 8.21658C329.281 8.21658 327.364 10.1343 327.364 12.5C327.364 14.8657 329.281 16.7834 331.647 16.7834Z" fill="white"/>
<path d="M347.906 16.7834C350.271 16.7834 352.189 14.8657 352.189 12.5C352.189 10.1343 350.271 8.21658 347.906 8.21658C345.54 8.21658 343.622 10.1343 343.622 12.5C343.622 14.8657 345.54 16.7834 347.906 16.7834Z" fill="white"/>
<path d="M364.165 16.7834C366.53 16.7834 368.448 14.8657 368.448 12.5C368.448 10.1343 366.53 8.21658 364.165 8.21658C361.799 8.21658 359.881 10.1343 359.881 12.5C359.881 14.8657 361.799 16.7834 364.165 16.7834Z" fill="white"/>
<path d="M380.533 152.274C374.006 152.274 367.626 150.338 362.199 146.712C356.772 143.086 352.543 137.932 350.045 131.902C347.547 125.873 346.894 119.237 348.167 112.836C349.44 106.435 352.583 100.555 357.199 95.9394C361.814 91.3243 367.694 88.1813 374.095 86.908C380.496 85.6347 387.132 86.2882 393.162 88.7859C399.192 91.2836 404.346 95.5133 407.972 100.94C411.598 106.367 413.533 112.747 413.533 119.274C413.523 128.023 410.043 136.411 403.857 142.598C397.67 148.784 389.282 152.264 380.533 152.274V152.274Z" fill="#FF7DD8"/>
<path d="M572.872 146.274H445.154C443.091 146.301 441.094 145.549 439.562 144.167C438.03 142.785 437.075 140.876 436.89 138.822C436.816 137.728 436.968 136.63 437.335 135.597C437.703 134.565 438.279 133.618 439.027 132.817C439.775 132.015 440.68 131.376 441.685 130.939C442.691 130.501 443.775 130.275 444.872 130.274H572.555C574.628 130.243 576.636 130.998 578.175 132.387C579.715 133.775 580.672 135.695 580.856 137.76C580.925 138.851 580.769 139.945 580.399 140.974C580.03 142.003 579.453 142.946 578.705 143.743C577.957 144.541 577.053 145.177 576.05 145.612C575.047 146.047 573.965 146.273 572.872 146.274Z" fill="#3F3D56"/>
<path d="M505.872 112.274H445.154C443.091 112.301 441.094 111.549 439.562 110.167C438.03 108.785 437.075 106.877 436.89 104.822C436.816 103.728 436.968 102.63 437.335 101.597C437.703 100.565 438.279 99.6181 439.027 98.8167C439.775 98.0153 440.68 97.3761 441.685 96.9387C442.691 96.5013 443.775 96.275 444.872 96.2738H505.555C507.628 96.2433 509.636 96.9981 511.175 98.3866C512.715 99.7751 513.672 101.695 513.856 103.76C513.925 104.851 513.769 105.945 513.399 106.974C513.03 108.003 512.453 108.946 511.705 109.743C510.957 110.541 510.053 111.177 509.05 111.612C508.047 112.047 506.965 112.273 505.872 112.274Z" fill="#3F3D56"/>
<path d="M760.096 452.401C760.587 451.016 760.769 449.539 760.629 448.076C760.488 446.613 760.028 445.198 759.281 443.931C758.535 442.665 757.52 441.578 756.307 440.746C755.095 439.914 753.715 439.359 752.265 439.118L746.236 403.896L732.68 416.588L740.484 448.09C740.242 450.553 740.911 453.02 742.365 455.022C743.819 457.025 745.958 458.425 748.375 458.956C750.792 459.488 753.321 459.114 755.481 457.906C757.641 456.697 759.283 454.739 760.096 452.401V452.401Z" fill="#FFB8B8"/>
<path d="M751.089 435.549L737.781 439.042C737.148 439.205 736.476 439.115 735.908 438.79C735.34 438.466 734.921 437.933 734.741 437.304L710.826 352.573L703.601 330.958C702.905 328.875 702.747 326.65 703.142 324.49C703.537 322.33 704.471 320.305 705.859 318.603C707.247 316.901 709.043 315.578 711.08 314.756C713.117 313.935 715.328 313.643 717.508 313.906C720.032 314.209 722.411 315.245 724.353 316.885C726.294 318.526 727.712 320.699 728.433 323.136L747.542 387.729L752.937 432.835C752.995 433.336 752.901 433.844 752.667 434.291C752.432 434.738 752.068 435.104 751.622 435.342C751.453 435.431 751.274 435.501 751.089 435.549V435.549Z" fill="#CCCCCC"/>
<path d="M702.453 299.613C716.018 299.613 727.014 288.617 727.014 275.052C727.014 261.488 716.018 250.491 702.453 250.491C688.889 250.491 677.892 261.488 677.892 275.052C677.892 288.617 688.889 299.613 702.453 299.613Z" fill="#FFB8B8"/>
<path d="M630.137 611.049L618.386 607.553L626.28 560.565L643.623 565.725L630.137 611.049Z" fill="#FFB8B8"/>
<path d="M629.745 623.331L591.856 612.058L591.998 611.579C592.574 609.642 593.526 607.838 594.8 606.269C596.073 604.7 597.643 603.398 599.42 602.436C601.197 601.474 603.146 600.871 605.156 600.662C607.165 600.453 609.197 600.643 611.133 601.219L611.134 601.219L634.275 608.105L629.745 623.331Z" fill="#2F2E41"/>
<path d="M758.875 610.447H746.615L740.783 563.159L752.877 563.16L758.875 610.447Z" fill="#FFB8B8"/>
<path d="M762.002 622.331L722.471 622.33V621.83C722.471 619.809 722.869 617.809 723.642 615.942C724.416 614.075 725.549 612.379 726.978 610.95C728.406 609.521 730.103 608.388 731.969 607.615C733.836 606.842 735.837 606.444 737.858 606.444H737.859L762.002 606.445L762.002 622.331Z" fill="#2F2E41"/>
<path d="M634.657 597.147H622.348C621.688 597.147 621.036 597.001 620.439 596.721C619.841 596.441 619.313 596.033 618.89 595.527C618.468 595.02 618.162 594.426 617.995 593.788C617.828 593.149 617.802 592.482 617.922 591.833C610.072 588.341 652.338 385.648 662.324 389.577L662.653 389.104L712.94 393.207C735.464 438.287 749.722 512.88 763.063 590.751C763.227 591.398 763.245 592.072 763.117 592.726C762.988 593.381 762.715 593.998 762.319 594.534C761.922 595.07 761.412 595.512 760.824 595.826C760.236 596.141 759.585 596.321 758.919 596.353L745.089 597.024C744.153 597.072 743.225 596.826 742.436 596.32C741.648 595.813 741.038 595.072 740.692 594.201L687.703 461.733C687.598 461.443 687.403 461.195 687.146 461.025C686.889 460.856 686.584 460.773 686.276 460.79C685.97 460.793 685.672 460.892 685.424 461.072C685.176 461.253 684.991 461.506 684.894 461.797L638.908 594.124C638.601 595.007 638.026 595.772 637.265 596.313C636.503 596.855 635.592 597.146 634.657 597.147V597.147Z" fill="#2F2E41"/>
<path d="M713.993 397.174L713.609 397.146L660.068 393.105L669.459 333.375C670.49 326.708 673.649 320.553 678.465 315.828C683.281 311.104 689.495 308.063 696.181 307.16C696.593 307.103 697.007 307.046 697.424 306.991C702.676 306.3 708.018 306.971 712.936 308.94C717.854 310.908 722.184 314.108 725.51 318.232C728.914 322.379 731.195 327.333 732.132 332.616C733.07 337.899 732.633 343.335 730.864 348.401L713.993 397.174Z" fill="#CCCCCC"/>
<path d="M750.146 303.147C733.258 310.872 710.343 309.49 684.146 303.147C687.771 293.217 690.596 283.626 687.392 276.586C686.098 273.928 685.368 271.032 685.247 268.078C685.126 265.124 685.616 262.178 686.689 259.423C689.2 253.416 693.432 248.286 698.851 244.679C704.27 241.071 710.636 239.146 717.146 239.147V239.147C725.898 239.147 734.292 242.624 740.481 248.812C746.669 255.001 750.146 263.395 750.146 272.147V303.147Z" fill="#2F2E41"/>
<path d="M693.146 241.392H714.146V267.217H670.146V264.392C670.146 258.292 672.569 252.442 676.883 248.129C681.196 243.816 687.046 241.392 693.146 241.392V241.392Z" fill="#2F2E41"/>
<path d="M658.911 457.957C659.994 456.963 660.847 455.744 661.408 454.385C661.97 453.027 662.226 451.562 662.16 450.093C662.094 448.624 661.707 447.188 661.026 445.885C660.345 444.583 659.386 443.445 658.218 442.553L669.398 408.612L651.475 413.472L643.606 444.958C642.238 447.02 641.673 449.512 642.019 451.963C642.365 454.414 643.598 456.652 645.485 458.255C647.371 459.857 649.78 460.712 652.254 460.657C654.729 460.602 657.097 459.641 658.911 457.957V457.957Z" fill="#FFB8B8"/>
<path d="M658.851 438.849L645.459 435.698C644.822 435.545 644.271 435.151 643.922 434.598C643.572 434.045 643.452 433.378 643.587 432.738L662.168 346.68L665.915 324.2C666.276 322.033 667.179 319.994 668.541 318.27C669.902 316.547 671.677 315.196 673.7 314.343C675.724 313.49 677.931 313.163 680.115 313.392C682.299 313.621 684.389 314.399 686.192 315.653V315.653C688.279 317.103 689.896 319.133 690.842 321.492C691.788 323.851 692.023 326.435 691.517 328.926L678.128 394.943L661.756 437.317C661.572 437.787 661.251 438.192 660.835 438.477C660.418 438.762 659.925 438.915 659.42 438.915C659.228 438.915 659.038 438.893 658.851 438.849V438.849Z" fill="#CCCCCC"/>
<path d="M846 623.673H465C464.735 623.673 464.48 623.568 464.293 623.38C464.105 623.193 464 622.938 464 622.673C464 622.408 464.105 622.154 464.293 621.966C464.48 621.778 464.735 621.673 465 621.673H846C846.265 621.673 846.52 621.778 846.707 621.966C846.895 622.154 847 622.408 847 622.673C847 622.938 846.895 623.193 846.707 623.38C846.52 623.568 846.265 623.673 846 623.673Z" fill="#CCCCCC"/>
<path d="M135.034 384.944C134.498 385.081 133.974 385.261 133.466 385.48L91.7917 358.596L92.3665 346.562L74.3181 343.321L71.23 364.526C70.9805 366.239 71.2935 367.987 72.1219 369.507C72.9503 371.027 74.2495 372.238 75.8243 372.957L127.151 396.387C127.406 398.503 128.3 400.492 129.713 402.088C131.126 403.684 132.991 404.812 135.061 405.322C137.131 405.832 139.307 405.699 141.3 404.942C143.292 404.186 145.007 402.84 146.217 401.085C147.426 399.329 148.072 397.247 148.069 395.115C148.067 392.984 147.415 390.903 146.201 389.151C144.987 387.399 143.268 386.058 141.273 385.306C139.279 384.555 137.102 384.428 135.034 384.944H135.034Z" fill="#FFB8B8"/>
<path d="M90.0914 357.855L67.7415 353.729C67.1056 353.612 66.5024 353.359 65.9732 352.987C65.4439 352.616 65.0009 352.135 64.6743 351.576C64.3478 351.018 64.1454 350.396 64.0809 349.753C64.0164 349.109 64.0914 348.46 64.3007 347.848L71.6351 326.409C72.2538 323.158 74.1363 320.286 76.8699 318.421C79.6034 316.557 82.9648 315.852 86.217 316.462C89.4692 317.073 92.3466 318.948 94.2183 321.677C96.0899 324.405 96.803 327.765 96.2011 331.019L95.4054 353.59C95.3824 354.236 95.2205 354.87 94.9305 355.448C94.6405 356.026 94.2294 356.535 93.7251 356.94C93.2208 357.344 92.6351 357.636 92.0081 357.794C91.381 357.952 90.7273 357.973 90.0914 357.855V357.855Z" fill="#3F3D56"/>
<path d="M525.331 295.693H144.331C141.049 295.69 137.823 296.541 134.97 298.163C134.287 298.551 133.629 298.982 133.001 299.453C130.621 301.218 128.687 303.515 127.355 306.162C126.023 308.809 125.33 311.73 125.331 314.693V512.693C125.335 517.731 127.338 522.561 130.901 526.123C134.463 529.686 139.293 531.689 144.331 531.693H525.331C530.368 531.689 535.199 529.685 538.761 526.123C542.323 522.561 544.326 517.731 544.331 512.693V314.693C544.326 309.656 542.323 304.825 538.761 301.263C535.199 297.701 530.368 295.698 525.331 295.693V295.693Z" fill="white"/>
<path d="M525.331 295.693H144.331C141.049 295.69 137.823 296.541 134.97 298.163C134.287 298.551 133.629 298.982 133.001 299.453C130.621 301.218 128.687 303.515 127.355 306.162C126.023 308.809 125.33 311.73 125.331 314.693V512.693C125.335 517.731 127.338 522.561 130.901 526.123C134.463 529.686 139.293 531.689 144.331 531.693H525.331C530.368 531.689 535.199 529.685 538.761 526.123C542.323 522.561 544.326 517.731 544.331 512.693V314.693C544.326 309.656 542.323 304.825 538.761 301.263C535.199 297.701 530.368 295.698 525.331 295.693V295.693ZM542.331 512.693C542.324 517.2 540.531 521.52 537.344 524.707C534.158 527.894 529.837 529.687 525.331 529.693H144.331C139.824 529.687 135.504 527.894 132.317 524.707C129.13 521.52 127.337 517.2 127.331 512.693V314.693C127.345 311.101 128.491 307.604 130.605 304.699C132.72 301.795 135.696 299.63 139.111 298.513C139.251 298.473 139.381 298.423 139.521 298.383C141.083 297.924 142.703 297.692 144.331 297.693H525.331C529.837 297.7 534.158 299.493 537.344 302.68C540.531 305.866 542.324 310.187 542.331 314.693V512.693Z" fill="#3F3D56"/>
<path d="M334.414 413.609C332.897 413.608 331.404 413.224 330.075 412.49L131.032 302.938C130.8 302.81 130.628 302.595 130.554 302.34C130.48 302.085 130.51 301.812 130.638 301.58C130.766 301.347 130.981 301.175 131.236 301.101C131.491 301.027 131.764 301.058 131.996 301.186L331.04 410.738C332.055 411.299 333.193 411.598 334.353 411.608C335.512 411.618 336.656 411.34 337.681 410.797L540.001 304.068C540.117 304.006 540.244 303.968 540.375 303.956C540.506 303.943 540.638 303.957 540.763 303.995C540.889 304.034 541.006 304.097 541.107 304.181C541.208 304.265 541.292 304.368 541.353 304.484C541.415 304.601 541.452 304.728 541.465 304.859C541.477 304.99 541.463 305.122 541.424 305.247C541.385 305.373 541.322 305.489 541.237 305.591C541.153 305.692 541.05 305.775 540.934 305.836L338.614 412.566C337.32 413.25 335.878 413.608 334.414 413.609V413.609Z" fill="#3F3D56"/>
<path d="M188.897 481.693H160.897C158.776 481.693 156.741 480.85 155.241 479.35C153.74 477.85 152.897 475.815 152.897 473.693C152.897 471.571 153.74 469.536 155.241 468.036C156.741 466.536 158.776 465.693 160.897 465.693H188.897C191.019 465.693 193.054 466.536 194.554 468.036C196.055 469.536 196.897 471.571 196.897 473.693C196.897 475.815 196.055 477.85 194.554 479.35C193.054 480.85 191.019 481.693 188.897 481.693Z" fill="#3F3D56"/>
<path d="M221.897 508.693H160.897C158.776 508.693 156.741 507.85 155.241 506.35C153.74 504.85 152.897 502.815 152.897 500.693C152.897 498.571 153.74 496.536 155.241 495.036C156.741 493.536 158.776 492.693 160.897 492.693H221.897C224.019 492.693 226.054 493.536 227.554 495.036C229.055 496.536 229.897 498.571 229.897 500.693C229.897 502.815 229.055 504.85 227.554 506.35C226.054 507.85 224.019 508.693 221.897 508.693Z" fill="#3F3D56"/>
<path d="M334.334 445.693C352.007 445.693 366.334 431.366 366.334 413.693C366.334 396.02 352.007 381.693 334.334 381.693C316.661 381.693 302.334 396.02 302.334 413.693C302.334 431.366 316.661 445.693 334.334 445.693Z" fill="#FF7DD8"/>
<path d="M189.277 314.519L330.301 373.357C330.786 373.559 331.333 373.562 331.821 373.365L477.213 314.527C477.643 314.353 477.999 314.035 478.221 313.627C478.442 313.219 478.514 312.747 478.426 312.291C478.337 311.835 478.093 311.425 477.735 311.13C477.376 310.835 476.927 310.673 476.463 310.673H190.047C189.585 310.673 189.137 310.833 188.779 311.126C188.422 311.419 188.177 311.827 188.086 312.28C187.995 312.734 188.064 313.204 188.281 313.613C188.498 314.021 188.85 314.341 189.277 314.519Z" fill="#F2F2F2"/>
<path d="M167.809 299.706C167.686 300.245 167.606 300.794 167.569 301.346L124.612 326.128L114.17 320.117L103.039 334.689L120.49 347.127C121.899 348.132 123.597 348.652 125.328 348.61C127.058 348.568 128.729 347.965 130.088 346.893L174.384 311.947C176.383 312.687 178.56 312.801 180.626 312.274C182.691 311.746 184.547 310.602 185.946 308.994C187.346 307.386 188.223 305.391 188.46 303.272C188.698 301.154 188.284 299.013 187.276 297.135C186.267 295.258 184.71 293.731 182.813 292.76C180.916 291.788 178.768 291.417 176.654 291.696C174.541 291.975 172.563 292.891 170.983 294.322C169.402 295.753 168.295 297.63 167.809 299.706V299.706Z" fill="#FFB8B8"/>
<path d="M123.176 327.302L109.292 345.296C108.897 345.808 108.396 346.228 107.824 346.529C107.252 346.83 106.621 347.005 105.975 347.04C105.33 347.075 104.684 346.971 104.082 346.734C103.48 346.498 102.937 346.134 102.488 345.668L86.7707 329.347C84.1631 327.311 82.4692 324.324 82.0605 321.041C81.6517 317.758 82.5613 314.447 84.59 311.834C86.6187 309.22 89.6008 307.518 92.8826 307.1C96.1645 306.682 99.4782 307.582 102.097 309.603L121.81 320.626C122.375 320.942 122.864 321.375 123.246 321.897C123.627 322.419 123.892 323.018 124.022 323.651C124.151 324.285 124.143 324.939 123.997 325.569C123.851 326.199 123.571 326.79 123.176 327.302H123.176Z" fill="#3F3D56"/>
<path d="M66.3207 284.338C79.8854 284.338 90.8817 273.341 90.8817 259.777C90.8817 246.212 79.8854 235.216 66.3207 235.216C52.756 235.216 41.7596 246.212 41.7596 259.777C41.7596 273.341 52.756 284.338 66.3207 284.338Z" fill="#FFB8B8"/>
<path d="M89.505 611.447H101.765L107.597 564.159L89.503 564.16L89.505 611.447Z" fill="#FFB8B8"/>
<path d="M86.3779 607.445L110.522 607.444H110.523C112.543 607.444 114.544 607.842 116.411 608.615C118.278 609.388 119.974 610.521 121.403 611.95C122.831 613.379 123.965 615.075 124.738 616.942C125.511 618.809 125.909 620.809 125.909 622.83V623.33L86.3787 623.331L86.3779 607.445Z" fill="#2F2E41"/>
<path d="M47.505 611.447H59.765L65.597 564.159L47.503 564.16L47.505 611.447Z" fill="#FFB8B8"/>
<path d="M44.3779 607.445L68.5217 607.444H68.5227C70.5433 607.444 72.5441 607.842 74.4108 608.615C76.2776 609.388 77.9738 610.521 79.4026 611.95C80.8314 613.379 81.9647 615.075 82.738 616.942C83.5112 618.809 83.9092 620.809 83.9092 622.83V623.33L44.3786 623.331L44.3779 607.445Z" fill="#2F2E41"/>
<path d="M85.8265 593.501L73.3212 496.747C73.3146 496.618 73.258 496.497 73.1634 496.41C73.0688 496.323 72.9437 496.276 72.8151 496.28C72.7507 496.278 72.6865 496.288 72.6265 496.312C72.5664 496.335 72.5117 496.37 72.4656 496.415C72.4196 496.46 72.3832 496.514 72.3586 496.574C72.334 496.633 72.3218 496.697 72.3226 496.761L68.7289 592.111C68.6886 593.276 68.1967 594.379 67.3574 595.187C66.518 595.995 65.3971 596.445 64.2318 596.442H49.3822C48.2055 596.449 47.0736 595.992 46.2316 595.17C45.3895 594.348 44.9053 593.227 44.8837 592.05L41.0287 433.185L107.485 433.849L109.144 593.225C109.129 593.859 108.981 594.482 108.709 595.054C108.437 595.626 108.047 596.134 107.565 596.546C107.094 596.952 106.542 597.254 105.946 597.433C105.35 597.613 104.723 597.664 104.106 597.586L89.7054 597.626C88.6846 597.485 87.7427 596.999 87.0368 596.249C86.3309 595.498 85.9037 594.528 85.8265 593.501Z" fill="#2F2E41"/>
<path d="M40.0443 437.53C39.3009 437.245 38.6463 436.769 38.1474 436.149C37.6484 435.528 37.3231 434.787 37.2045 434L36.5412 346.69C33.6042 327.251 30.1303 308.202 47.1268 298.352L48.6244 293.859C48.7876 293.373 49.0955 292.949 49.5067 292.644C49.9179 292.338 50.4127 292.166 50.9247 292.15L83.1674 291.229C83.6691 291.212 84.1642 291.347 84.5873 291.618C85.0103 291.888 85.3413 292.28 85.5365 292.743L87.9347 298.339L88.7863 298.825C96.8866 303.442 103.446 310.346 107.643 318.672C111.84 326.997 113.49 336.376 112.385 345.634L110.541 361.199L109.232 433.937C109.215 434.735 108.987 435.515 108.572 436.198C108.158 436.88 107.57 437.441 106.87 437.824C97.5028 442.953 87.1259 444.707 77.3068 444.707C60.8087 444.707 45.893 439.752 40.0443 437.53Z" fill="#3F3D56"/>
<path d="M65.521 285.248C61.8244 285.327 58.1529 284.624 54.7475 283.184C51.3421 281.744 48.2801 279.599 45.7626 276.891C43.2451 274.183 41.3292 270.973 40.1407 267.472C38.9522 263.971 38.518 260.258 38.8668 256.577C39.2155 252.896 40.3393 249.331 42.1641 246.115C43.989 242.899 46.4737 240.106 49.455 237.919C52.4363 235.732 55.8466 234.201 59.4618 233.426C63.077 232.651 66.8154 232.65 70.4311 233.422C75.8323 230.143 82.112 227.936 88.4059 228.497C94.6998 229.059 100.924 232.795 103.278 238.659C105.631 244.524 103.103 252.254 97.2508 254.637C93.4989 256.165 89.2621 255.424 85.2582 254.808C81.2543 254.191 76.8865 253.789 73.4019 255.855C69.9172 257.921 68.3508 263.461 71.4716 266.044C73.1259 267.467 74.3073 269.361 74.8583 271.472C75.4093 273.584 75.3038 275.814 74.5558 277.864C72.9873 281.92 68.7064 285.179 65.521 285.248Z" fill="#2F2E41"/>
<path d="M157 623.673H1C0.734784 623.673 0.480429 623.568 0.292892 623.38C0.105356 623.193 0 622.938 0 622.673C0 622.408 0.105356 622.154 0.292892 621.966C0.480429 621.778 0.734784 621.673 1 621.673H157C157.265 621.673 157.52 621.778 157.707 621.966C157.895 622.154 158 622.408 158 622.673C158 622.938 157.895 623.193 157.707 623.38C157.52 623.568 157.265 623.673 157 623.673Z" fill="#CCCCCC"/>
</g>
<defs>
<clipPath id="clip0_18_2">
<rect width="847" height="623.673" fill="white"/>
</clipPath>
</defs>
</svg>
