<svg width="562" height="596" viewBox="0 0 562 596" fill="none" xmlns="http://www.w3.org/2000/svg">
<g clip-path="url(#clip0_13_2)">
<path d="M452.988 570.009H438.754L431.98 515.106H452.988V570.009Z" fill="#FFB6B6"/>
<path d="M460.501 594.671H450.293L448.471 585.034L443.804 594.671H416.731C415.433 594.671 414.169 594.256 413.124 593.487C412.078 592.718 411.306 591.635 410.92 590.396C410.534 589.157 410.554 587.827 410.977 586.601C411.4 585.374 412.204 584.314 413.272 583.577L434.892 568.645V558.902L457.633 560.259L460.501 594.671Z" fill="#2F2E41"/>
<path d="M335.988 569.009H321.754L314.98 514.106H335.988V569.009Z" fill="#FFB6B6"/>
<path d="M343.501 593.671H333.293L331.471 584.034L326.804 593.671H299.731C298.433 593.671 297.169 593.256 296.124 592.487C295.078 591.718 294.306 590.635 293.92 589.396C293.534 588.157 293.554 586.827 293.977 585.601C294.4 584.374 295.204 583.314 296.272 582.577L317.892 567.645V557.902L340.633 559.259L343.501 593.671Z" fill="#2F2E41"/>
<path d="M478.289 539.276C475.239 552.246 426.439 549.956 417.289 551.476C408.139 553.006 394.989 344.216 394.989 344.216C381.068 344.221 354.549 442.106 354.549 442.106C354.549 442.106 363.975 545.473 352.549 547.106C345.549 548.106 296.559 544.196 289.699 541.146C284.631 538.892 334.642 318.659 334.642 318.659L363.549 264.106L398.039 261.106H427.779L429.689 267.966C434.906 262.438 456.063 286.417 449.319 343.947C439.305 429.368 480.095 531.603 478.289 539.276Z" fill="#2F2E41"/>
<path d="M440.549 268.106C440.549 268.106 413.576 301.106 383.576 292.106C353.576 283.106 345.549 280.106 345.549 280.106C353.539 260.148 361.203 227.394 343.075 209.421C318.549 185.106 338.736 184.171 334.512 170.547L322.149 145.123L348.511 143.972L354.804 134.82C355.532 133.138 356.761 131.721 358.323 130.762C359.885 129.803 361.705 129.349 363.534 129.461L376.368 130.246C378.255 130.361 380.055 131.073 381.511 132.278C382.967 133.483 384.002 135.119 384.468 136.951L390.576 143.106L417.74 153.304L401.576 173.106L417.549 243.106C430.562 249.501 438.552 257.717 440.549 268.106Z" fill="#FF7DD8"/>
<path d="M489.073 315.47C489.801 314.347 490.274 313.078 490.458 311.752C490.643 310.426 490.534 309.075 490.14 307.796C489.746 306.516 489.077 305.339 488.178 304.346C487.28 303.353 486.175 302.57 484.941 302.05L454.65 224.536L438.998 233.636L472.611 307.51C471.876 309.641 471.947 311.967 472.813 314.048C473.678 316.129 475.277 317.821 477.306 318.802C479.335 319.783 481.654 319.986 483.823 319.372C485.991 318.758 487.86 317.37 489.073 315.47V315.47Z" fill="#FFB6B6"/>
<path d="M413.818 152.372C413.818 152.372 417.841 149.684 421.734 159.165C424.851 166.756 467.814 245.116 469.198 256.425C470.786 256.597 472.271 257.293 473.419 258.402C474.567 259.512 475.314 260.972 475.542 262.552L452.507 268.037C448.08 265.008 446.54 260.468 447.98 258.929L441.512 245.594L396.542 170.017L410.876 154.263L413.818 152.372Z" fill="#FF7DD8"/>
<path d="M210.853 81.8487C210.829 83.1872 211.1 84.5147 211.645 85.7375C212.19 86.9602 212.996 88.0486 214.008 88.926C215.019 89.8033 216.21 90.4483 217.498 90.8154C218.785 91.1826 220.137 91.2629 221.459 91.0509L288.174 140.802L296.642 124.799L229.034 79.8942C228.531 77.6972 227.239 75.7611 225.403 74.4529C223.568 73.1446 221.316 72.5551 219.075 72.796C216.834 73.0369 214.759 74.0916 213.244 75.76C211.729 77.4285 210.878 79.5949 210.853 81.8487V81.8487Z" fill="#FFB6B6"/>
<path d="M361.003 180.436C361.003 180.436 359.011 184.845 350.691 178.859C344.03 174.067 266.115 130.302 258.958 121.439C257.519 122.132 255.891 122.327 254.329 121.994C252.768 121.66 251.362 120.816 250.333 119.595L266.977 102.754C272.337 102.982 276.046 106.02 275.638 108.088L288.181 115.982L366.327 156.323L362.498 177.275L361.003 180.436Z" fill="#FF7DD8"/>
<path d="M346.918 93.8053C346.918 110.003 355.021 126.485 371.219 126.485C387.416 126.485 409.764 114.754 404.737 89.6156C401.56 73.7327 392.444 64.4772 376.247 64.4772C368.468 64.4772 361.009 67.5671 355.508 73.0672C350.008 78.5673 346.918 86.027 346.918 93.8053V93.8053Z" fill="#2F2E41"/>
<path d="M370.194 126.061C383.518 126.061 394.32 115.26 394.32 101.935C394.32 88.6103 383.518 77.8086 370.194 77.8086C356.869 77.8086 346.067 88.6103 346.067 101.935C346.067 115.26 356.869 126.061 370.194 126.061Z" fill="#FFB6B6"/>
<path d="M395.443 108.26C395.224 108.225 395.006 108.179 394.787 108.145C391.024 107.477 387.26 106.821 383.508 106.142L383.163 97.6373L378.617 105.256C368.248 108.697 358.546 106.752 349.42 102.459C346.409 101.03 343.488 99.42 340.673 97.6373C338.71 85.6574 343.663 76.2163 356.382 75.0111C356.777 74.9737 357.061 74.6429 357.407 74.4701C357.408 74.4702 357.41 74.4699 357.411 74.4693C357.413 74.4687 357.414 74.4679 357.415 74.4668C357.416 74.4657 357.417 74.4645 357.417 74.463C357.418 74.4616 357.418 74.4601 357.418 74.4586C358.005 74.1824 358.604 73.9177 359.202 73.6761C363.887 71.8451 368.996 71.3814 373.934 72.3389C378.873 73.2964 383.438 75.6358 387.099 79.0851C394.465 86.1171 397.779 97.7293 395.443 108.26Z" fill="#2F2E41"/>
<path d="M386.199 73.8594V73.8798C386.196 75.1426 386.357 76.4004 386.678 77.6218C386.729 77.8359 386.791 78.0602 386.862 78.2743V78.2845C387.546 80.4656 388.726 82.4585 390.309 84.1072C391.892 85.7559 393.836 87.0155 395.987 87.7873C396.303 87.9096 396.63 88.0116 396.956 88.1034C397.643 88.3027 398.346 88.4459 399.056 88.5316C399.695 88.622 400.339 88.6663 400.983 88.6641C401.487 88.6663 401.991 88.6424 402.492 88.5927C403.666 88.474 404.82 88.2102 405.929 87.8076C406.102 87.7572 406.272 87.6959 406.438 87.6241C406.522 87.5945 406.603 87.5605 406.683 87.5222C408.533 86.7479 410.206 85.6058 411.601 84.1652C412.995 82.7246 414.083 81.0156 414.797 79.1419C415.511 77.2682 415.837 75.2689 415.755 73.2654C415.673 71.2619 415.185 69.2959 414.32 67.4869L414.31 67.4767C413.585 65.959 412.602 64.5789 411.404 63.3982C408.732 60.7371 407.555 54.0678 403.497 54.0678C403.303 54.0644 403.109 54.0712 402.916 54.0882C400.194 54.18 395.161 60.054 393.02 61.4406C391.43 62.4452 390.052 63.751 388.962 65.2845C387.825 66.862 387.014 68.6507 386.576 70.5457C386.326 71.6325 386.2 72.7441 386.199 73.8594Z" fill="#2F2E41"/>
<path d="M404.263 68.7113C406.559 71.3843 410.154 72.4234 413.396 73.8145C419.12 76.3252 424.144 80.1942 428.034 85.0858C431.924 89.9774 434.562 95.744 435.719 101.886C436.616 106.888 436.499 112.067 437.915 116.944C439.323 121.82 442.808 126.605 447.811 127.451C451.196 128.03 454.59 126.722 457.774 125.432C459.525 124.728 461.277 124.021 463.028 123.312C461.201 118.728 459.377 114.145 457.556 109.561C460.483 113.887 463.887 117.87 467.704 121.435C473.98 118.904 480.262 116.374 486.549 113.843C471.081 113.902 473.72 98.8858 470.26 83.8195C468.357 75.5406 452.16 69.9347 448.984 62.058C447.268 57.7857 444.364 54.0945 440.615 51.4212C436.867 48.7479 432.431 47.2044 427.833 46.9735C423.235 46.7425 418.667 47.8337 414.669 50.1179C410.672 52.4021 407.412 55.7838 405.277 59.8626C402.101 61.1279 402.009 66.0718 404.263 68.7113Z" fill="#2F2E41"/>
<path d="M292.378 163.658H113.07L114.422 162.185C122.91 152.944 128.164 135.263 130.486 108.137C131.058 100.766 134.395 93.8839 139.829 88.8705C145.263 83.8571 152.391 81.0834 159.784 81.1055H245.803C253.189 81.0873 260.309 83.8575 265.74 88.8623C271.17 93.867 274.512 100.737 275.096 108.1C277.161 131.793 282.353 149.01 291.437 162.284L292.378 163.658Z" fill="#E6E6E6"/>
<path d="M245.803 593.606H159.785C152.391 593.628 145.263 590.854 139.83 585.841C134.396 580.828 131.058 573.946 130.486 566.575C128.164 539.448 122.91 452.768 114.422 443.525L113.07 442.053H292.378L291.437 443.427C282.353 456.702 277.161 542.919 275.096 566.611C274.512 573.973 271.171 580.843 265.74 585.848C260.309 590.853 253.189 593.624 245.803 593.606Z" fill="#E6E6E6"/>
<path d="M332.867 220.742C331.597 220.748 330.352 221.101 329.268 221.763C328.395 203.965 320.71 187.185 307.805 174.897C294.9 162.609 277.763 155.755 259.944 155.754H144.96C126.551 155.754 108.896 163.067 95.8791 176.084C82.8622 189.101 75.5493 206.756 75.5493 225.164V383.181C75.5493 392.296 77.3447 401.322 80.8328 409.743C84.321 418.165 89.4337 425.817 95.8791 432.262C102.324 438.707 109.976 443.82 118.397 447.308C126.819 450.796 135.844 452.592 144.96 452.592H259.944C269.059 452.592 278.085 450.796 286.506 447.308C294.927 443.82 302.579 438.707 309.024 432.262C315.47 425.817 320.583 418.165 324.071 409.743C327.559 401.322 329.354 392.296 329.354 383.181V272.461C330.418 273.092 331.63 273.429 332.867 273.435C334.73 273.435 336.517 272.695 337.835 271.377C339.153 270.06 339.893 268.273 339.893 266.41V227.768C339.893 226.845 339.711 225.932 339.358 225.079C339.005 224.227 338.487 223.452 337.835 222.8C337.183 222.148 336.408 221.63 335.556 221.277C334.703 220.924 333.79 220.742 332.867 220.742V220.742Z" fill="#3F3D56"/>
<path d="M317.879 216.596C317.839 215.706 317.769 214.826 317.679 213.946C316.393 201.137 310.398 189.261 300.856 180.62C291.313 171.979 278.903 167.188 266.029 167.176H139.759C126.885 167.186 114.474 171.977 104.931 180.618C95.3884 189.259 89.3937 201.136 88.1093 213.946C88.0193 214.826 87.9493 215.706 87.9093 216.596C87.8693 217.426 87.8493 218.256 87.8493 219.086V387.506C87.8626 401.269 93.3359 414.465 103.068 424.197C112.8 433.929 125.996 439.402 139.759 439.416H266.029C279.792 439.401 292.987 433.927 302.719 424.195C312.45 414.463 317.924 401.268 317.939 387.506V219.086C317.939 218.256 317.919 217.426 317.879 216.596Z" fill="white"/>
<path d="M317.939 368.606V374.566L317.139 372.946L296.769 331.896L296.749 331.886L239.519 216.596V216.586L238.199 213.946V213.926L214.999 167.176H217.969L241.159 213.926L241.179 213.946L242.489 216.586V216.596L298.259 328.956V328.966L299.579 331.606V331.626L317.939 368.606Z" fill="#3F3D56"/>
<path d="M326.549 215.106L87.2693 216.596V213.946L325.549 213.106C326.269 213.976 325.869 214.216 326.549 215.106Z" fill="#3F3D56"/>
<path d="M318.449 375.596H87.849V372.946H317.939V374.566L318.449 375.596Z" fill="#3F3D56"/>
<path d="M252.541 226.596C246.821 222.568 240.363 219.706 233.537 218.173C226.711 216.641 219.649 216.467 212.756 217.664C205.863 218.86 199.273 221.402 193.362 225.145C187.452 228.889 182.336 233.759 178.308 239.479V239.479C161.367 263.536 144.367 326.618 156.367 363.161C192.16 325.354 247.148 321.426 265.424 300.829C284.952 278.821 276.597 243.538 252.541 226.596Z" fill="#FF7DD8"/>
<path d="M221.141 281.071C230.737 281.071 238.516 273.292 238.516 263.696C238.516 254.1 230.737 246.321 221.141 246.321C211.545 246.321 203.766 254.1 203.766 263.696C203.766 273.292 211.545 281.071 221.141 281.071Z" fill="white"/>
<path d="M141.679 382.083C147.964 382.083 153.059 376.988 153.059 370.703C153.059 364.418 147.964 359.323 141.679 359.323C135.394 359.323 130.299 364.418 130.299 370.703C130.299 376.988 135.394 382.083 141.679 382.083Z" fill="#FF7DD8"/>
<path opacity="0.2" d="M239.73 259.687C242.054 263.666 242.701 268.405 241.53 272.862C240.359 277.319 237.466 281.128 233.487 283.451C229.507 285.775 224.768 286.422 220.311 285.252C215.854 284.081 212.045 281.187 209.722 277.208C212.823 279.929 216.791 281.457 220.917 281.519C225.042 281.581 229.054 280.173 232.236 277.547C235.418 274.921 237.562 271.249 238.283 267.187C239.004 263.125 238.257 258.938 236.174 255.377C237.584 256.613 238.785 258.068 239.73 259.687V259.687Z" fill="#231F20"/>
<path opacity="0.2" d="M265.456 300.911C247.18 321.508 192.192 325.436 156.4 363.243C155.283 359.786 154.423 356.25 153.827 352.666C189.602 318.296 241.529 313.952 259.187 294.052C274.991 276.242 272.531 249.738 258.268 231.296C277.829 249.429 283.353 280.743 265.456 300.911Z" fill="#231F20"/>
<path d="M54.0411 594.032C54.0406 594.189 54.0711 594.344 54.1307 594.488C54.1904 594.633 54.278 594.764 54.3886 594.875C54.4992 594.986 54.6306 595.073 54.7752 595.133C54.9198 595.192 55.0747 595.223 55.2311 595.222H543.521C543.837 595.222 544.139 595.097 544.363 594.874C544.586 594.651 544.711 594.348 544.711 594.032C544.711 593.717 544.586 593.414 544.363 593.191C544.139 592.968 543.837 592.842 543.521 592.842H55.2311C55.0747 592.842 54.9198 592.872 54.7752 592.932C54.6306 592.992 54.4992 593.079 54.3886 593.19C54.278 593.301 54.1904 593.432 54.1307 593.576C54.0711 593.721 54.0406 593.876 54.0411 594.032Z" fill="#CCCCCC"/>
<path d="M507.416 349.573C511.308 348.066 513.613 344.65 512.565 341.943C511.517 339.235 507.512 338.262 503.62 339.768C499.728 341.275 497.423 344.691 498.471 347.399C499.519 350.106 503.524 351.08 507.416 349.573Z" fill="#E6E6E6"/>
<path d="M556.424 343.284C560.316 341.778 562.621 338.362 561.573 335.654C560.525 332.947 556.52 331.973 552.628 333.48C548.736 334.986 546.431 338.403 547.479 341.11C548.527 343.818 552.532 344.791 556.424 343.284Z" fill="#E6E6E6"/>
<path d="M503.166 391.381C507.058 389.875 509.363 386.458 508.315 383.751C507.267 381.043 503.262 380.07 499.37 381.576C495.478 383.083 493.173 386.499 494.221 389.207C495.269 391.914 499.274 392.888 503.166 391.381Z" fill="#E6E6E6"/>
<path d="M488.989 409.823C490.775 409.4 491.73 406.977 491.122 404.41C490.515 401.844 488.575 400.105 486.789 400.528C485.004 400.951 484.049 403.374 484.657 405.941C485.264 408.507 487.204 410.246 488.989 409.823Z" fill="#E6E6E6"/>
<path d="M488.698 441.046C490.483 440.623 491.438 438.2 490.831 435.633C490.223 433.066 488.283 431.328 486.498 431.751C484.712 432.173 483.757 434.597 484.365 437.163C484.972 439.73 486.912 441.468 488.698 441.046Z" fill="#E6E6E6"/>
<path d="M531.707 376.376C533.492 375.954 534.447 373.53 533.84 370.964C533.232 368.397 531.292 366.659 529.507 367.081C527.721 367.504 526.766 369.927 527.374 372.494C527.981 375.061 529.921 376.799 531.707 376.376Z" fill="#E6E6E6"/>
<path d="M505.898 370.109C507.684 369.686 508.638 367.263 508.031 364.696C507.423 362.13 505.484 360.391 503.698 360.814C501.912 361.237 500.957 363.66 501.565 366.227C502.173 368.793 504.112 370.532 505.898 370.109Z" fill="#E6E6E6"/>
<path d="M533.254 341.358C535.039 340.936 535.994 338.512 535.386 335.946C534.779 333.379 532.839 331.641 531.054 332.063C529.268 332.486 528.313 334.909 528.921 337.476C529.528 340.043 531.468 341.781 533.254 341.358Z" fill="#E6E6E6"/>
<path d="M15.1261 476.929C17.8421 475.903 18.8484 471.907 17.3739 468.002C15.8993 464.098 12.5021 461.765 9.78615 462.791C7.07015 463.816 6.06379 467.813 7.53837 471.717C9.01296 475.621 12.4101 477.955 15.1261 476.929Z" fill="#E6E6E6"/>
<path d="M9.24247 427.876C11.9585 426.85 12.9648 422.853 11.4902 418.949C10.0157 415.045 6.61853 412.711 3.90254 413.737C1.18655 414.763 0.180183 418.76 1.65477 422.664C3.12935 426.568 6.52648 428.901 9.24247 427.876Z" fill="#E6E6E6"/>
<path d="M56.898 481.522C59.614 480.496 60.6203 476.5 59.1457 472.595C57.6712 468.691 54.274 466.358 51.558 467.384C48.842 468.409 47.8357 472.406 49.3103 476.31C50.7848 480.214 54.182 482.548 56.898 481.522Z" fill="#E6E6E6"/>
<path d="M73.5528 491.224C76.1244 490.637 77.8784 488.712 77.4705 486.923C77.0625 485.134 74.6471 484.159 72.0755 484.746C69.5039 485.332 67.7499 487.257 68.1579 489.046C68.5658 490.835 70.9812 491.81 73.5528 491.224Z" fill="#E6E6E6"/>
<path d="M104.772 491.772C107.344 491.185 109.098 489.26 108.69 487.471C108.282 485.682 105.866 484.707 103.295 485.293C100.723 485.88 98.9691 487.805 99.377 489.594C99.785 491.383 102.2 492.358 104.772 491.772Z" fill="#E6E6E6"/>
<path d="M40.458 448.233C43.0296 447.647 44.7836 445.721 44.3757 443.932C43.9677 442.143 41.5523 441.168 38.9807 441.755C36.4092 442.341 34.6552 444.267 35.0631 446.056C35.4711 447.845 37.8865 448.82 40.458 448.233Z" fill="#E6E6E6"/>
<path d="M33.979 473.99C36.5506 473.403 38.3046 471.478 37.8966 469.689C37.4887 467.9 35.0733 466.925 32.5017 467.511C29.9301 468.098 28.1761 470.023 28.5841 471.812C28.992 473.601 31.4074 474.576 33.979 473.99Z" fill="#E6E6E6"/>
<path d="M5.4538 446.399C8.02539 445.813 9.77939 443.887 9.37145 442.098C8.9635 440.309 6.5481 439.334 3.97651 439.921C1.40492 440.507 -0.349069 442.433 0.0588748 444.222C0.466819 446.011 2.88221 446.986 5.4538 446.399Z" fill="#E6E6E6"/>
<path d="M97.4158 17.573C101.308 16.0664 103.613 12.6502 102.565 9.9427C101.517 7.23522 97.5124 6.26171 93.6204 7.7683C89.7284 9.27489 87.4229 12.6911 88.471 15.3985C89.5191 18.106 93.5238 19.0796 97.4158 17.573Z" fill="#E6E6E6"/>
<path d="M146.419 11.2868C150.311 9.78022 152.617 6.36404 151.569 3.65657C150.521 0.949088 146.516 -0.0244344 142.624 1.48216C138.732 2.98875 136.426 6.40493 137.475 9.11241C138.523 11.8199 142.527 12.7934 146.419 11.2868Z" fill="#E6E6E6"/>
<path d="M93.1658 59.3811C97.0578 57.8745 99.3633 54.4583 98.3153 51.7509C97.2672 49.0434 93.2625 48.0699 89.3705 49.5765C85.4785 51.083 83.173 54.4992 84.221 57.2067C85.2691 59.9142 89.2738 60.8877 93.1658 59.3811Z" fill="#E6E6E6"/>
<path d="M78.9895 77.8229C80.775 77.4003 81.73 74.977 81.1225 72.4103C80.5149 69.8436 78.575 68.1055 76.7895 68.5281C75.004 68.9507 74.049 71.374 74.6565 73.9407C75.264 76.5074 77.204 78.2455 78.9895 77.8229Z" fill="#E6E6E6"/>
<path d="M78.6979 109.045C80.4834 108.623 81.4384 106.2 80.8309 103.633C80.2233 101.066 78.2834 99.328 76.4979 99.7507C74.7124 100.173 73.7574 102.597 74.3649 105.163C74.9724 107.73 76.9124 109.468 78.6979 109.045Z" fill="#E6E6E6"/>
<path d="M121.707 44.3762C123.492 43.9536 124.447 41.5303 123.84 38.9636C123.232 36.3969 121.292 34.6588 119.507 35.0814C117.721 35.5041 116.766 37.9274 117.374 40.494C117.981 43.0607 119.921 44.7989 121.707 44.3762Z" fill="#E6E6E6"/>
<path d="M95.898 38.1089C97.6835 37.6863 98.6385 35.263 98.031 32.6963C97.4235 30.1296 95.4835 28.3915 93.698 28.8141C91.9125 29.2367 90.9575 31.66 91.565 34.2267C92.1726 36.7934 94.1125 38.5315 95.898 38.1089Z" fill="#E6E6E6"/>
<path d="M123.254 9.35814C125.039 8.93553 125.994 6.51221 125.387 3.94552C124.779 1.37883 122.839 -0.359282 121.054 0.0633357C119.268 0.485954 118.313 2.90927 118.921 5.47596C119.528 8.04265 121.468 9.78076 123.254 9.35814Z" fill="#E6E6E6"/>
<path d="M199.549 433.106C213.356 433.106 224.549 421.913 224.549 408.106C224.549 394.298 213.356 383.106 199.549 383.106C185.742 383.106 174.549 394.298 174.549 408.106C174.549 421.913 185.742 433.106 199.549 433.106Z" fill="#E6E6E6"/>
<path d="M141.549 422.106C149.281 422.106 155.549 415.838 155.549 408.106C155.549 400.374 149.281 394.106 141.549 394.106C133.817 394.106 127.549 400.374 127.549 408.106C127.549 415.838 133.817 422.106 141.549 422.106Z" fill="#E6E6E6"/>
<path d="M257.549 422.106C265.281 422.106 271.549 415.838 271.549 408.106C271.549 400.374 265.281 394.106 257.549 394.106C249.817 394.106 243.549 400.374 243.549 408.106C243.549 415.838 249.817 422.106 257.549 422.106Z" fill="#E6E6E6"/>
<path d="M158.474 262.696H87.8491V264.696H158.474V262.696Z" fill="#3F3D56"/>
</g>
<defs>
<clipPath id="clip0_13_2">
<rect width="561.822" height="595.222" fill="white"/>
</clipPath>
</defs>
</svg>
